{
.appVersion = "1352";
classes = (
{
automatic = 1;

glyphs = (
{
color = 8;
glyphname = A;
lastChange = "2021-05-03 08:45:35 +0000";
layers = (
{
anchors = (
{
name = bottom;
position = "{845, 0}";
},
{
name = ogonek;
position = "{1590, 0}";
},
{
name = top;
position = "{845, 1500}";
}
);
hints = (
{
origin = "{0, 0}";
scale = "{-1.3, 1}";
type = Corner;
name = _corner.Serif;
options = 1;
},
{
origin = "{0, 3}";
scale = "{1.3, 1}";
type = Corner;
name = _corner.Serif;
},
{
origin = "{0, 4}";
scale = "{-0.76, 1}";
type = Corner;
name = _corner.Serif;
options = 1;
},
{
origin = "{0, 7}";
scale = "{0.76, 1}";
type = Corner;
name = _corner.Serif;
}
);
layerId = "CA54B7DC-FBBB-40FE-ACF3-AABDD76D6A7B";
paths = (
{
closed = 1;
nodes = (
"232 0 LINE",
"851 1453 LINE",
"834 1453 LINE",
"1454 0 LINE",
"1506 0 LINE",
"864 1500 LINE",
"826 1500 LINE",
"184 0 LINE"
);
},
{
closed = 1;
nodes = (
"1252 516 LINE",
"1252 560 LINE",
"436 560 LINE",
"436 516 LINE"
);
}
);
width = 1690;
},
{
anchors = (
{
name = bottom;
position = "{827, 0}";
},
{
name = ogonek;
position = "{1543, 0}";
},
{
name = top;
position = "{827, 1500}";
}
);
hints = (
{
origin = "{0, 7}";
scale = "{0.76, 1}";
type = Corner;
name = _corner.Serif;
},
{
origin = "{0, 0}";
scale = "{-1.3, 1}";
type = Corner;
name = _corner.Serif;
options = 1;
},
{
origin = "{0, 3}";
scale = "{1.3, 1}";
type = Corner;
name = _corner.Serif;
},
{
origin = "{0, 4}";
scale = "{-0.76, 1}";
type = Corner;
name = _corner.Serif;
options = 1;
}
);
layerId = "1E61A082-F045-49A7-AB52-DD1B03FD9B54";
paths = (
{
closed = 1;
nodes = (
"240 0 LINE",
"831 1453 LINE",
"814 1453 LINE",
"1405 0 LINE",
"1457 0 LINE",
"845 1500 LINE",
"809 1500 LINE",
"197 0 LINE"
);
},
{
closed = 1;
nodes = (
"1213 520 LINE",
"1213 558 LINE",
"437 558 LINE",
"437 520 LINE"
);
}
);
width = 1654;
},
{
anchors = (
{
name = bottom;
position = "{912, 0}";
},
{
name = ogonek;
position = "{1642, 0}";
},
{
name = top;
position = "{912, 1500}";
}
);
hints = (
{
origin = "{0, 0}";
scale = "{-1.7, 1}";
type = Corner;
name = _corner.Serif;
options = 1;
},
{
origin = "{0, 3}";
scale = "{1.7, 1}";
type = Corner;
name = _corner.Serif;
},
{
origin = "{0, 4}";
scale = "{-0.6, 1}";
type = Corner;
name = _corner.Serif;
options = 1;
},
{
origin = "{0, 7}";
scale = "{0.6, 1}";
type = Corner;
name = _corner.Serif;
}
);
layerId = "219068EA-2B9B-40DC-949E-B60449C01B8A";
paths = (
{
closed = 1;
nodes = (
"364 0 LINE",
"895 1269 LINE",
"764 1270 LINE",
"1281 0 LINE",
"1742 0 LINE",
"1106 1500 LINE",
"718 1500 LINE",
"82 0 LINE"
);
},
{
closed = 1;
nodes = (
"1184 425 LINE",
"1184 649 LINE",
"486 649 LINE",
"486 425 LINE"
);
}
);
width = 1824;
},
{
anchors = (
{
name = bottom;
position = "{903, 0}";
},
{
name = ogonek;
position = "{1619, 0}";
},
{
name = top;
position = "{903, 1500}";
}
);
hints = (
{
origin = "{0, 7}";
scale = "{0.6, 1}";
type = Corner;
name = _corner.Serif;
},
{
origin = "{0, 0}";
scale = "{-1.7, 1}";
type = Corner;
name = _corner.Serif;
options = 1;
},
{
origin = "{0, 3}";
scale = "{1.7, 1}";
type = Corner;
name = _corner.Serif;
},
{
origin = "{0, 4}";
scale = "{-0.6, 1}";
type = Corner;
name = _corner.Serif;
options = 1;
}
);
layerId = "0C29AA02-E021-4BD1-A2C4-87F681D64C35";
paths = (
{
closed = 1;
nodes = (
"354 0 LINE",
"870 1275 LINE",
"731 1276 LINE",
"1237 0 LINE",
"1693 0 LINE",
"1077 1506 LINE",
"728 1506 LINE",
"112 0 LINE"
);
},
{
closed = 1;
nodes = (
"1155 433 LINE",
"1155 633 LINE",
"457 633 LINE",
"457 433 LINE"
);
}
);
width = 1805;
}
);
leftKerningGroup = A;
rightKerningGroup = A;
unicode = 0041;
},
{
color = 8;
glyphname = AE;
lastChange = "2021-05-03 08:46:47 +0000";
layers = (
{
anchors = (
{
name = top;
position = "{1266, 1500}";
}
);
hints = (
{
origin = "{3, 2}";
scale = "{-1.29, 1}";
type = Corner;
name = _corner.Serif;
},
{
origin = "{3, 3}";
scale = "{1.1, 1}";
type = Corner;
name = _corner.Serif;
options = 1;
},
{
origin = "{0, 0}";
scale = "{-1.3, 1}";
type = Corner;
name = _corner.Serif;
options = 1;
},
{
origin = "{0, 3}";
scale = "{0.76, 1}";
type = Corner;
name = _corner.Serif;
}
);
layerId = "CA54B7DC-FBBB-40FE-ACF3-AABDD76D6A7B";
paths = (
{
closed = 1;
nodes = (
"233 0 LINE",
"1249 1500 LINE",
"1198 1500 LINE",
"180 0 LINE"
);
},
{
closed = 1;
nodes = (
"1218 516 LINE",
"1218 560 LINE",
"571 560 LINE",
"571 516 LINE"
);
},
{
closed = 1;
nodes = (
"2270 0 LINE",
"2270 44 LINE",
"1266 44 LINE",
"1266 0 LINE"
);
},
{
closed = 1;
nodes = (
"1266 0 LINE",
"1266 1500 LINE",
"1218 1500 LINE",
"1218 0 LINE"
);
},
{
closed = 1;
nodes = (
"1816 364 LINE",
"1816 770 LINE",
"1656 770 LINE",
"1750 770 OFFCURVE",
"1774 746 OFFCURVE",
"1774 648 CURVE SMOOTH",
"1774 364 LINE"
);
},
{
closed = 1;
nodes = (
"1816 770 LINE",
"1816 814 LINE",
"1266 814 LINE",
"1266 770 LINE"
);
},
{
closed = 1;
nodes = (
"2270 44 LINE",
"2270 520 LINE",
"2226 520 LINE",
"2226 174 LINE SMOOTH",
"2226 70 OFFCURVE",
"2200 44 OFFCURVE",
"2100 44 CURVE"
);
},
{
closed = 1;
nodes = (
"1816 814 LINE",
"1816 1146 LINE",
"1774 1146 LINE",
"1774 936 LINE SMOOTH",
"1774 838 OFFCURVE",
"1750 814 OFFCURVE",
"1656 814 CURVE"
);
},
{
closed = 1;
nodes = (
"2252 1456 LINE",
"2252 1500 LINE",
"1266 1500 LINE",
"1266 1456 LINE"
);
},
{
closed = 1;
nodes = (
"2252 1000 LINE",
"2252 1456 LINE",
"2082 1456 LINE",
"2182 1456 OFFCURVE",
"2208 1430 OFFCURVE",
"2208 1326 CURVE SMOOTH",
"2208 1000 LINE"
);
}
);
width = 2408;
},
{
anchors = (
{
name = top;
position = "{1241, 1500}";
}
);
hints = (
{
origin = "{0, 0}";
scale = "{-1.3, 1}";
type = Corner;
name = _corner.Serif;
options = 1;
},
{
origin = "{0, 3}";
scale = "{0.76, 1}";
type = Corner;
name = _corner.Serif;
},
{
origin = "{3, 2}";
scale = "{-1.28, 1}";
type = Corner;
name = _corner.Serif;
},
{
origin = "{3, 3}";
scale = "{1.1, 1}";
type = Corner;
name = _corner.Serif;
options = 1;
}
);
layerId = "1E61A082-F045-49A7-AB52-DD1B03FD9B54";
paths = (
{
closed = 1;
nodes = (
"241 0 LINE",
"1217 1500 LINE",
"1172 1500 LINE",
"193 0 LINE"
);
},
{
closed = 1;
nodes = (
"1193 520 LINE",
"1193 558 LINE",
"567 558 LINE",
"567 520 LINE"
);
},
{
closed = 1;
nodes = (
"2185 0 LINE",
"2185 38 LINE",
"1241 38 LINE",
"1241 0 LINE"
);
},
{
closed = 1;
nodes = (
"1241 0 LINE",
"1241 1500 LINE",
"1193 1500 LINE",
"1193 0 LINE"
);
},
{
closed = 1;
nodes = (
"1781 308 LINE",
"1781 772 LINE",
"1625 772 LINE",
"1719 772 OFFCURVE",
"1743 748 OFFCURVE",
"1743 650 CURVE SMOOTH",
"1743 308 LINE"
);
},
{
closed = 1;
nodes = (
"1781 772 LINE",
"1781 810 LINE",
"1241 810 LINE",
"1241 772 LINE"
);
},
{
closed = 1;
nodes = (
"2185 38 LINE",
"2185 580 LINE",
"2145 580 LINE",
"2145 168 LINE SMOOTH",
"2145 64 OFFCURVE",
"2119 38 OFFCURVE",
"2019 38 CURVE"
);
},
{
closed = 1;
nodes = (
"1781 810 LINE",
"1781 1202 LINE",
"1743 1202 LINE",
"1743 932 LINE SMOOTH",
"1743 834 OFFCURVE",
"1719 810 OFFCURVE",
"1625 810 CURVE"
);
},
{
closed = 1;
nodes = (
"2167 1462 LINE",
"2167 1500 LINE",
"1241 1500 LINE",
"1241 1462 LINE"
);
},
{
closed = 1;
nodes = (
"2167 940 LINE",
"2167 1462 LINE",
"2001 1462 LINE",
"2101 1462 OFFCURVE",
"2127 1436 OFFCURVE",
"2127 1332 CURVE SMOOTH",
"2127 940 LINE"
);
}
);
width = 2343;
},
{
anchors = (
{
name = top;
position = "{1329, 1500}";
}
);
hints = (
{
origin = "{3, 2}";
scale = "{-2.9, 1}";
type = Corner;
name = _corner.Serif;
},
{
origin = "{3, 3}";
scale = "{1.1, 1}";
type = Corner;
name = _corner.Serif;
options = 1;
},
{
origin = "{0, 0}";
scale = "{-1.7, 1}";
type = Corner;
name = _corner.Serif;
options = 1;
},
{
origin = "{0, 3}";
scale = "{0.6, 1}";
type = Corner;
name = _corner.Serif;
}
);
layerId = "219068EA-2B9B-40DC-949E-B60449C01B8A";
paths = (
{
closed = 1;
nodes = (
"369 0 LINE",
"1289 1500 LINE",
"990 1500 LINE",
"63 0 LINE"
);
},
{
closed = 1;
nodes = (
"1119 425 LINE",
"1119 649 LINE",
"551 649 LINE",
"551 425 LINE"
);
},
{
closed = 1;
nodes = (
"2363 0 LINE",
"2363 224 LINE",
"1539 224 LINE",
"1539 0 LINE"
);
},
{
closed = 1;
nodes = (
"1539 0 LINE",
"1539 1500 LINE",
"1119 1500 LINE",
"1119 0 LINE"
);
},
{
closed = 1;
nodes = (
"1944 364 LINE",
"1944 662 LINE",
"1548 662 LINE",
"1666 662 OFFCURVE",
"1720 592 OFFCURVE",
"1720 432 CURVE SMOOTH",
"1720 364 LINE"
);
},
{
closed = 1;
nodes = (
"1944 662 LINE",
"1944 882 LINE",
"1539 882 LINE",
"1539 662 LINE"
);
},
{
closed = 1;
nodes = (
"2363 224 LINE",
"2363 560 LINE",
"2131 560 LINE",
"2131 464 LINE SMOOTH",
"2131 294 OFFCURVE",
"2071 224 OFFCURVE",
"1911 224 CURVE"
);
},
{
closed = 1;
nodes = (
"1944 882 LINE",
"1944 1136 LINE",
"1720 1136 LINE",
"1720 1112 LINE SMOOTH",
"1720 952 OFFCURVE",
"1666 882 OFFCURVE",
"1548 882 CURVE"
);
},
{
closed = 1;
nodes = (
"2345 1276 LINE",
"2345 1500 LINE",
"1539 1500 LINE",
"1539 1276 LINE"
);
},
{
closed = 1;
nodes = (
"2345 960 LINE",
"2345 1276 LINE",
"1893 1276 LINE",
"2053 1276 OFFCURVE",
"2113 1206 OFFCURVE",
"2113 1036 CURVE SMOOTH",
"2113 960 LINE"
);
}
);
width = 2458;
},
{
anchors = (
{
name = top;
position = "{1266, 1500}";
}
);
hints = (
{
origin = "{0, 0}";
scale = "{-1.7, 1}";
type = Corner;
name = _corner.Serif;
options = 1;
},
{
origin = "{0, 3}";
scale = "{0.6, 1}";
type = Corner;
name = _corner.Serif;
},
{
origin = "{3, 2}";
scale = "{-2.3, 1}";
type = Corner;
name = _corner.Serif;
},
{
origin = "{3, 3}";
scale = "{1.1, 1}";
type = Corner;
name = _corner.Serif;
options = 1;
}
);
layerId = "0C29AA02-E021-4BD1-A2C4-87F681D64C35";
paths = (
{
closed = 1;
nodes = (
"359 0 LINE",
"1234 1500 LINE",
"980 1500 LINE",
"99 0 LINE"
);
},
{
closed = 1;
nodes = (
"1056 433 LINE",
"1056 641 LINE",
"542 641 LINE",
"542 433 LINE"
);
},
{
closed = 1;
nodes = (
"2226 0 LINE",
"2226 206 LINE",
"1476 206 LINE",
"1476 0 LINE"
);
},
{
closed = 1;
nodes = (
"1476 0 LINE",
"1476 1500 LINE",
"1056 1500 LINE",
"1056 0 LINE"
);
},
{
closed = 1;
nodes = (
"1873 326 LINE",
"1873 670 LINE",
"1481 670 LINE",
"1624 670 OFFCURVE",
"1681 600 OFFCURVE",
"1681 440 CURVE SMOOTH",
"1681 326 LINE"
);
},
{
closed = 1;
nodes = (
"1873 670 LINE",
"1873 874 LINE",
"1476 874 LINE",
"1476 670 LINE"
);
},
{
closed = 1;
nodes = (
"2226 206 LINE",
"2226 580 LINE",
"2028 580 LINE",
"2028 446 LINE SMOOTH",
"2028 276 OFFCURVE",
"1968 206 OFFCURVE",
"1808 206 CURVE"
);
},
{
closed = 1;
nodes = (
"1873 874 LINE",
"1873 1174 LINE",
"1681 1174 LINE",
"1681 1104 LINE SMOOTH",
"1681 944 OFFCURVE",
"1624 874 OFFCURVE",
"1481 874 CURVE"
);
},
{
closed = 1;
nodes = (
"2212 1294 LINE",
"2212 1500 LINE",
"1476 1500 LINE",
"1476 1294 LINE"
);
},
{
closed = 1;
nodes = (
"2212 940 LINE",
"2212 1294 LINE",
"1794 1294 LINE",
"1954 1294 OFFCURVE",
"2014 1224 OFFCURVE",
"2014 1054 CURVE SMOOTH",
"2014 940 LINE"
);
}
);
width = 2354;
}
);
leftKerningGroup = AE;
leftMetricsKey = A;
rightKerningGroup = E;
rightMetricsKey = E;
unicode = 00C6;
},
{
color = 8;
glyphname = B;
lastChange = "2021-05-03 10:18:41 +0000";
layers = (
{
anchors = (
{
name = bottom;
position = "{769, 0}";
},
{
name = top;
position = "{769, 1500}";
}
);
hints = (
{
origin = "{0, 2}";
scale = "{-1.08, 1}";
type = Corner;
name = _corner.Serif;
},
{
origin = "{0, 3}";
scale = "{1.1, 1}";
type = Corner;
name = _corner.Serif;
options = 1;
}
);
layerId = "CA54B7DC-FBBB-40FE-ACF3-AABDD76D6A7B";
paths = (
{
closed = 1;
nodes = (
"358 0 LINE",
"358 1500 LINE",
"310 1500 LINE",
"310 0 LINE"
);
},
{
closed = 1;
nodes = (
"960 0 LINE SMOOTH",
"1232 0 OFFCURVE",
"1412 133 OFFCURVE",
"1412 391 CURVE SMOOTH",
"1412 646 OFFCURVE",
"1241 773 OFFCURVE",
"960 773 CURVE SMOOTH",
"358 773 LINE",
"358 741 LINE",
"948 741 LINE SMOOTH",
"1204 741 OFFCURVE",
"1364 622 OFFCURVE",
"1364 392 CURVE SMOOTH",
"1364 162 OFFCURVE",
"1204 44 OFFCURVE",
"948 44 CURVE SMOOTH",
"358 44 LINE",
"358 0 LINE"
);
},
{
closed = 1;
nodes = (
"916 756 LINE SMOOTH",
"1190 756 OFFCURVE",
"1356 880 OFFCURVE",
"1356 1121 CURVE SMOOTH",
"1356 1371 OFFCURVE",
"1180 1500 OFFCURVE",
"916 1500 CURVE SMOOTH",
"358 1500 LINE",
"358 1456 LINE",
"904 1456 LINE SMOOTH",
"1152 1456 OFFCURVE",
"1308 1343 OFFCURVE",
"1308 1121 CURVE SMOOTH",
"1308 899 OFFCURVE",
"1152 785 OFFCURVE",
"904 785 CURVE SMOOTH",
"358 785 LINE",
"358 756 LINE"
);
}
);
width = 1538;
},
{
anchors = (
{
name = bottom;
position = "{730, 0}";
},
{
name = top;
position = "{730, 1500}";
}
);
hints = (
{
origin = "{0, 2}";
scale = "{-1.08, 1}";
type = Corner;
name = _corner.Serif;
},
{
origin = "{0, 3}";
scale = "{1.1, 1}";
type = Corner;
name = _corner.Serif;
options = 1;
}
);
layerId = "1E61A082-F045-49A7-AB52-DD1B03FD9B54";
paths = (
{
closed = 1;
nodes = (
"347 0 LINE",
"347 1500 LINE",
"299 1500 LINE",
"299 0 LINE"
);
},
{
closed = 1;
nodes = (
"909 0 LINE SMOOTH",
"1181 0 OFFCURVE",
"1361 133 OFFCURVE",
"1361 391 CURVE SMOOTH",
"1361 643 OFFCURVE",
"1190 769 OFFCURVE",
"909 769 CURVE SMOOTH",
"347 769 LINE",
"347 743 LINE",
"897 743 LINE SMOOTH",
"1153 743 OFFCURVE",
"1313 623 OFFCURVE",
"1313 390 CURVE SMOOTH",
"1313 157 OFFCURVE",
"1153 38 OFFCURVE",
"897 38 CURVE SMOOTH",
"347 38 LINE",
"347 0 LINE"
);
},
{
closed = 1;
nodes = (
"865 758 LINE SMOOTH",
"1139 758 OFFCURVE",
"1305 881 OFFCURVE",
"1305 1121 CURVE SMOOTH",
"1305 1371 OFFCURVE",
"1129 1500 OFFCURVE",
"865 1500 CURVE SMOOTH",
"347 1500 LINE",
"347 1462 LINE",
"853 1462 LINE SMOOTH",
"1101 1462 OFFCURVE",
"1257 1347 OFFCURVE",
"1257 1122 CURVE SMOOTH",
"1257 897 OFFCURVE",
"1101 781 OFFCURVE",
"853 781 CURVE SMOOTH",
"347 781 LINE",
"347 758 LINE"
);
}
);
width = 1459;
},
{
anchors = (
{
name = bottom;
position = "{829, 0}";
},
{
name = top;
position = "{829, 1500}";
}
);
hints = (
{
origin = "{0, 2}";
scale = "{-1.08, 1}";
type = Corner;
name = _corner.Serif;
},
{
origin = "{0, 3}";
scale = "{1.1, 1}";
type = Corner;
name = _corner.Serif;
options = 1;
}
);
layerId = "219068EA-2B9B-40DC-949E-B60449C01B8A";
paths = (
{
closed = 1;
nodes = (
"647 0 LINE",
"647 1500 LINE",
"227 1500 LINE",
"227 0 LINE"
);
},
{
closed = 1;
nodes = (
"1076 0 LINE SMOOTH",
"1398 0 OFFCURVE",
"1608 128 OFFCURVE",
"1608 408 CURVE SMOOTH",
"1608 679 OFFCURVE",
"1398 792 OFFCURVE",
"1076 792 CURVE SMOOTH",
"647 792 LINE",
"647 653 LINE",
"938 653 LINE SMOOTH",
"1085 653 OFFCURVE",
"1178 579 OFFCURVE",
"1178 439 CURVE SMOOTH",
"1178 299 OFFCURVE",
"1085 224 OFFCURVE",
"938 224 CURVE SMOOTH",
"647 224 LINE",
"647 0 LINE"
);
},
{
closed = 1;
nodes = (
"1000 754 LINE SMOOTH",
"1312 754 OFFCURVE",
"1524 865 OFFCURVE",
"1524 1118 CURVE SMOOTH",
"1524 1380 OFFCURVE",
"1312 1500 OFFCURVE",
"1000 1500 CURVE SMOOTH",
"647 1500 LINE",
"647 1276 LINE",
"871 1276 LINE SMOOTH",
"1010 1276 OFFCURVE",
"1094 1209 OFFCURVE",
"1094 1076 CURVE SMOOTH",
"1094 943 OFFCURVE",
"1010 877 OFFCURVE",
"871 877 CURVE SMOOTH",
"647 877 LINE",
"647 754 LINE"
);
}
);
width = 1658;
},
{
anchors = (
{
name = bottom;
position = "{797, 0}";
},
{
name = top;
position = "{797, 1500}";
}
);
hints = (
{
origin = "{0, 2}";
scale = "{-1.08, 1}";
type = Corner;
name = _corner.Serif;
},
{
origin = "{0, 3}";
scale = "{1.1, 1}";
type = Corner;
name = _corner.Serif;
options = 1;
}
);
layerId = "0C29AA02-E021-4BD1-A2C4-87F681D64C35";
paths = (
{
closed = 1;
nodes = (
"650 0 LINE",
"650 1500 LINE",
"230 1500 LINE",
"230 0 LINE"
);
},
{
closed = 1;
nodes = (
"999 0 LINE SMOOTH",
"1321 0 OFFCURVE",
"1531 141 OFFCURVE",
"1531 420 CURVE SMOOTH",
"1531 682 OFFCURVE",
"1323 790 OFFCURVE",
"989 790 CURVE SMOOTH",
"650 790 LINE",
"650 666 LINE",
"852 666 LINE SMOOTH",
"1004 666 OFFCURVE",
"1101 583 OFFCURVE",
"1101 435 CURVE SMOOTH",
"1101 287 OFFCURVE",
"1004 204 OFFCURVE",
"852 204 CURVE SMOOTH",
"650 204 LINE",
"650 0 LINE"
);
},
{
closed = 1;
nodes = (
"953 776 LINE SMOOTH",
"1247 776 OFFCURVE",
"1447 889 OFFCURVE",
"1447 1138 CURVE SMOOTH",
"1447 1386 OFFCURVE",
"1235 1500 OFFCURVE",
"923 1500 CURVE SMOOTH",
"650 1500 LINE",
"650 1300 LINE",
"785 1300 LINE SMOOTH",
"934 1300 OFFCURVE",
"1023 1225 OFFCURVE",
"1023 1083 CURVE SMOOTH",
"1023 941 OFFCURVE",
"934 866 OFFCURVE",
"785 866 CURVE SMOOTH",
"650 866 LINE",
"650 776 LINE"
);
}
);
width = 1593;
}
);
leftKerningGroup = I;
leftMetricsKey = H;
rightKerningGroup = B;
unicode = 0042;
},
{
color = 8;
glyphname = C;
lastChange = "2021-05-03 08:45:35 +0000";
layers = (
{
anchors = (
{
name = bottom;
position = "{862, 0}";
},
{
name = top;
position = "{900, 1500}";
}
);
layerId = "CA54B7DC-FBBB-40FE-ACF3-AABDD76D6A7B";
paths = (
{
closed = 1;
nodes = (
"1325 -24 OFFCURVE",
"1558 243 OFFCURVE",
"1566 548 CURVE",
"1522 548 LINE",
"1509 264 OFFCURVE",
"1296 20 OFFCURVE",
"890 20 CURVE SMOOTH",
"493 20 OFFCURVE",
"186 306 OFFCURVE",
"186 750 CURVE SMOOTH",
"186 1194 OFFCURVE",
"489 1480 OFFCURVE",
"880 1480 CURVE SMOOTH",
"1299 1480 OFFCURVE",
"1489 1239 OFFCURVE",
"1512 980 CURVE",
"1543 980 LINE",
"1533 1303 OFFCURVE",
"1290 1524 OFFCURVE",
"880 1524 CURVE SMOOTH",
"463 1524 OFFCURVE",
"138 1239 OFFCURVE",
"138 750 CURVE SMOOTH",
"138 261 OFFCURVE",
"467 -24 OFFCURVE",
"890 -24 CURVE SMOOTH"
);
},
{
closed = 1;
nodes = (
"1556 980 LINE",
"1556 1500 LINE",
"1512 1500 LINE",
"1512 1054 LINE",
"1543 980 LINE"
);
}
);
width = 1724;
},
{
anchors = (
{
name = bottom;
position = "{806, 0}";
},
{
name = top;
position = "{848, 1500}";
}
);
layerId = "1E61A082-F045-49A7-AB52-DD1B03FD9B54";
paths = (
{
closed = 1;
nodes = (
"1237 -24 OFFCURVE",
"1452 262 OFFCURVE",
"1460 588 CURVE",
"1420 588 LINE",
"1408 279 OFFCURVE",
"1210 14 OFFCURVE",
"834 14 CURVE SMOOTH",
"465 14 OFFCURVE",
"180 302 OFFCURVE",
"180 750 CURVE SMOOTH",
"180 1198 OFFCURVE",
"461 1486 OFFCURVE",
"824 1486 CURVE SMOOTH",
"1210 1486 OFFCURVE",
"1385 1223 OFFCURVE",
"1406 940 CURVE",
"1432 940 LINE",
"1423 1287 OFFCURVE",
"1200 1524 OFFCURVE",
"824 1524 CURVE SMOOTH",
"435 1524 OFFCURVE",
"132 1239 OFFCURVE",
"132 750 CURVE SMOOTH",
"132 261 OFFCURVE",
"439 -24 OFFCURVE",
"834 -24 CURVE SMOOTH"
);
},
{
closed = 1;
nodes = (
"1450 940 LINE",
"1450 1500 LINE",
"1410 1500 LINE",
"1410 994 LINE",
"1432 940 LINE"
);
}
);
width = 1610;
},
{
anchors = (
{
name = bottom;
position = "{837, 0}";
},
{
name = top;
position = "{869, 1500}";
}
);
layerId = "219068EA-2B9B-40DC-949E-B60449C01B8A";
paths = (
{
closed = 1;
nodes = (
"1378 -32 OFFCURVE",
"1588 269 OFFCURVE",
"1605 603 CURVE",
"1363 603 LINE",
"1337 412 OFFCURVE",
"1216 262 OFFCURVE",
"969 262 CURVE SMOOTH",
"698 262 OFFCURVE",
"522 462 OFFCURVE",
"522 772 CURVE SMOOTH",
"522 1076 OFFCURVE",
"680 1278 OFFCURVE",
"957 1278 CURVE SMOOTH",
"1210 1278 OFFCURVE",
"1316 1120 OFFCURVE",
"1337 983 CURVE",
"1474 983 LINE",
"1458 1323 OFFCURVE",
"1212 1532 OFFCURVE",
"837 1532 CURVE SMOOTH",
"398 1532 OFFCURVE",
"64 1236 OFFCURVE",
"64 750 CURVE SMOOTH",
"64 264 OFFCURVE",
"398 -32 OFFCURVE",
"877 -32 CURVE SMOOTH"
);
},
{
closed = 1;
nodes = (
"1587 983 LINE",
"1587 1500 LINE",
"1343 1500 LINE",
"1343 1164 LINE",
"1474 983 LINE"
);
}
);
width = 1689;
},
{
anchors = (
{
name = bottom;
position = "{816, 0}";
},
{
name = top;
position = "{835, 1500}";
}
);
layerId = "0C29AA02-E021-4BD1-A2C4-87F681D64C35";
paths = (
{
closed = 1;
nodes = (
"1324 -32 OFFCURVE",
"1525 274 OFFCURVE",
"1537 663 CURVE",
"1349 663 LINE",
"1322 432 OFFCURVE",
"1204 252 OFFCURVE",
"951 252 CURVE SMOOTH",
"696 252 OFFCURVE",
"534 462 OFFCURVE",
"534 772 CURVE SMOOTH",
"534 1094 OFFCURVE",
"693 1308 OFFCURVE",
"951 1308 CURVE SMOOTH",
"1209 1308 OFFCURVE",
"1318 1124 OFFCURVE",
"1331 915 CURVE",
"1412 915 LINE",
"1408 1303 OFFCURVE",
"1208 1532 OFFCURVE",
"805 1532 CURVE SMOOTH",
"394 1532 OFFCURVE",
"74 1244 OFFCURVE",
"74 750 CURVE SMOOTH",
"74 256 OFFCURVE",
"399 -32 OFFCURVE",
"863 -32 CURVE SMOOTH"
);
},
{
closed = 1;
nodes = (
"1525 915 LINE",
"1525 1500 LINE",
"1309 1500 LINE",
"1309 1164 LINE",
"1412 915 LINE"
);
}
);
width = 1631;
}
);
leftKerningGroup = O;
leftMetricsKey = O;
rightKerningGroup = C;
unicode = 0043;
},
{
color = 8;
glyphname = D;
lastChange = "2021-05-03 08:45:35 +0000";
layers = (
{
anchors = (
{
name = bottom;
position = "{790, 0}";
},
{
name = stroke;
position = "{310, 750}";
},
{
name = top;
position = "{790, 1500}";
}
);
hints = (
{
origin = "{1, 2}";
scale = "{-1.08, 1}";
type = Corner;
name = _corner.Serif;
},
{
origin = "{1, 3}";
scale = "{1.1, 1}";
type = Corner;
name = _corner.Serif;
options = 1;
}
);
layerId = "CA54B7DC-FBBB-40FE-ACF3-AABDD76D6A7B";
paths = (
{
closed = 1;
nodes = (
"756 0 LINE SMOOTH",
"1230 0 OFFCURVE",
"1542 275 OFFCURVE",
"1542 750 CURVE SMOOTH",
"1542 1225 OFFCURVE",
"1230 1500 OFFCURVE",
"756 1500 CURVE SMOOTH",
"358 1500 LINE",
"358 1456 LINE",
"756 1456 LINE SMOOTH",
"1202 1456 OFFCURVE",
"1494 1181 OFFCURVE",
"1494 750 CURVE SMOOTH",
"1494 319 OFFCURVE",
"1202 44 OFFCURVE",
"756 44 CURVE SMOOTH",
"358 44 LINE",
"358 0 LINE"
);
},
{
closed = 1;
nodes = (
"358 0 LINE",
"358 1500 LINE",
"310 1500 LINE",
"310 0 LINE"
);
}
);
width = 1680;
},
{
anchors = (
{
name = bottom;
position = "{746, 0}";
},
{
name = stroke;
position = "{299, 750}";
},
{
name = top;
position = "{746, 1500}";
}
);
hints = (
{
origin = "{1, 2}";
scale = "{-1.08, 1}";
type = Corner;
name = _corner.Serif;
},
{
origin = "{1, 3}";
scale = "{1.1, 1}";
type = Corner;
name = _corner.Serif;
options = 1;
}
);
layerId = "1E61A082-F045-49A7-AB52-DD1B03FD9B54";
paths = (
{
closed = 1;
nodes = (
"695 0 LINE SMOOTH",
"1157 0 OFFCURVE",
"1461 275 OFFCURVE",
"1461 750 CURVE SMOOTH",
"1461 1225 OFFCURVE",
"1157 1500 OFFCURVE",
"695 1500 CURVE SMOOTH",
"347 1500 LINE",
"347 1462 LINE",
"695 1462 LINE SMOOTH",
"1129 1462 OFFCURVE",
"1413 1185 OFFCURVE",
"1413 750 CURVE SMOOTH",
"1413 315 OFFCURVE",
"1129 38 OFFCURVE",
"695 38 CURVE SMOOTH",
"347 38 LINE",
"347 0 LINE"
);
},
{
closed = 1;
nodes = (
"347 0 LINE",
"347 1500 LINE",
"299 1500 LINE",
"299 0 LINE"
);
}
);
width = 1593;
},
{
anchors = (
{
name = bottom;
position = "{834, 0}";
},
{
name = stroke;
position = "{227, 750}";
},
{
name = top;
position = "{834, 1500}";
}
);
hints = (
{
origin = "{1, 2}";
scale = "{-1.08, 1}";
type = Corner;
name = _corner.Serif;
},
{
origin = "{1, 3}";
scale = "{1.1, 1}";
type = Corner;
name = _corner.Serif;
options = 1;
}
);
layerId = "219068EA-2B9B-40DC-949E-B60449C01B8A";
paths = (
{
closed = 1;
nodes = (
"883 0 LINE SMOOTH",
"1385 0 OFFCURVE",
"1719 270 OFFCURVE",
"1719 750 CURVE SMOOTH",
"1719 1230 OFFCURVE",
"1385 1500 OFFCURVE",
"883 1500 CURVE SMOOTH",
"647 1500 LINE",
"647 1276 LINE",
"821 1276 LINE SMOOTH",
"1084 1276 OFFCURVE",
"1257 1074 OFFCURVE",
"1257 750 CURVE SMOOTH",
"1257 426 OFFCURVE",
"1084 224 OFFCURVE",
"821 224 CURVE SMOOTH",
"647 224 LINE",
"647 0 LINE"
);
},
{
closed = 1;
nodes = (
"647 0 LINE",
"647 1500 LINE",
"227 1500 LINE",
"227 0 LINE"
);
}
);
width = 1783;
},
{
anchors = (
{
name = bottom;
position = "{793, 0}";
},
{
name = stroke;
position = "{230, 750}";
},
{
name = top;
position = "{793, 1500}";
}
);
hints = (
{
origin = "{1, 2}";
scale = "{-1.08, 1}";
type = Corner;
name = _corner.Serif;
},
{
origin = "{1, 3}";
scale = "{1.1, 1}";
type = Corner;
name = _corner.Serif;
options = 1;
}
);
layerId = "0C29AA02-E021-4BD1-A2C4-87F681D64C35";
paths = (
{
closed = 1;
nodes = (
"846 0 LINE SMOOTH",
"1324 0 OFFCURVE",
"1642 270 OFFCURVE",
"1642 750 CURVE SMOOTH",
"1642 1230 OFFCURVE",
"1324 1500 OFFCURVE",
"846 1500 CURVE SMOOTH",
"650 1500 LINE",
"650 1294 LINE",
"784 1294 LINE SMOOTH",
"1023 1294 OFFCURVE",
"1180 1085 OFFCURVE",
"1180 750 CURVE SMOOTH",
"1180 415 OFFCURVE",
"1023 206 OFFCURVE",
"784 206 CURVE SMOOTH",
"650 206 LINE",
"650 0 LINE"
);
},
{
closed = 1;
nodes = (
"650 0 LINE",
"650 1500 LINE",
"230 1500 LINE",
"230 0 LINE"
);
}
);
width = 1716;
}
);
leftKerningGroup = I;
leftMetricsKey = H;
rightKerningGroup = O;
rightMetricsKey = O;
unicode = 0044;
},
{
color = 8;
glyphname = E;
lastChange = "2021-05-03 08:48:29 +0000";
layers = (
{
anchors = (
{
name = bottom;
position = "{770, 0}";
},
{
name = ogonek;
position = "{1402, 0}";
},
{
name = top;
position = "{806, 1500}";
}
);
hints = (
{
origin = "{0, 2}";
scale = "{-1.08, 1}";
type = Corner;
name = _corner.Serif;
},
{
origin = "{0, 3}";
scale = "{1.1, 1}";
type = Corner;
name = _corner.Serif;
options = 1;
}
);
layerId = "CA54B7DC-FBBB-40FE-ACF3-AABDD76D6A7B";
paths = (
{
closed = 1;
nodes = (
"358 0 LINE",
"358 1500 LINE",
"310 1500 LINE",
"310 0 LINE"
);
},
{
closed = 1;
nodes = (
"1402 0 LINE",
"1402 44 LINE",
"358 44 LINE",
"358 0 LINE"
);
},
{
closed = 1;
nodes = (
"928 364 LINE",
"928 770 LINE",
"768 770 LINE",
"862 770 OFFCURVE",
"886 746 OFFCURVE",
"886 648 CURVE SMOOTH",
"886 364 LINE"
);
},
{
closed = 1;
nodes = (
"928 770 LINE",
"928 814 LINE",
"358 814 LINE",
"358 770 LINE"
);
},
{
closed = 1;
nodes = (
"1402 44 LINE",
"1402 520 LINE",
"1358 520 LINE",
"1358 174 LINE SMOOTH",
"1358 70 OFFCURVE",
"1332 44 OFFCURVE",
"1232 44 CURVE"
);
},
{
closed = 1;
nodes = (
"928 814 LINE",
"928 1146 LINE",
"886 1146 LINE",
"886 936 LINE SMOOTH",
"886 838 OFFCURVE",
"862 814 OFFCURVE",
"768 814 CURVE"
);
},
{
closed = 1;
nodes = (
"1384 1456 LINE",
"1384 1500 LINE",
"358 1500 LINE",
"358 1456 LINE"
);
},
{
closed = 1;
nodes = (
"1384 1000 LINE",
"1384 1456 LINE",
"1214 1456 LINE",
"1314 1456 OFFCURVE",
"1340 1430 OFFCURVE",
"1340 1326 CURVE SMOOTH",
"1340 1000 LINE"
);
}
);
width = 1540;
},
{
anchors = (
{
name = bottom;
position = "{745, 0}";
},
{
name = ogonek;
position = "{1331, 0}";
},
{
name = top;
position = "{766, 1500}";
}
);
hints = (
{
origin = "{0, 2}";
scale = "{-1.08, 1}";
type = Corner;
name = _corner.Serif;
},
{
origin = "{0, 3}";
scale = "{1.1, 1}";
type = Corner;
name = _corner.Serif;
options = 1;
}
);
layerId = "1E61A082-F045-49A7-AB52-DD1B03FD9B54";
paths = (
{
closed = 1;
nodes = (
"347 0 LINE",
"347 1500 LINE",
"299 1500 LINE",
"299 0 LINE"
);
},
{
closed = 1;
nodes = (
"1331 0 LINE",
"1331 38 LINE",
"347 38 LINE",
"347 0 LINE"
);
},
{
closed = 1;
nodes = (
"917 308 LINE",
"917 772 LINE",
"761 772 LINE",
"855 772 OFFCURVE",
"879 748 OFFCURVE",
"879 650 CURVE SMOOTH",
"879 308 LINE"
);
},
{
closed = 1;
nodes = (
"917 772 LINE",
"917 810 LINE",
"347 810 LINE",
"347 772 LINE"
);
},
{
closed = 1;
nodes = (
"1331 38 LINE",
"1331 580 LINE",
"1291 580 LINE",
"1291 168 LINE SMOOTH",
"1291 64 OFFCURVE",
"1265 38 OFFCURVE",
"1165 38 CURVE"
);
},
{
closed = 1;
nodes = (
"917 810 LINE",
"917 1202 LINE",
"879 1202 LINE",
"879 932 LINE SMOOTH",
"879 834 OFFCURVE",
"855 810 OFFCURVE",
"761 810 CURVE"
);
},
{
closed = 1;
nodes = (
"1313 1462 LINE",
"1313 1500 LINE",
"347 1500 LINE",
"347 1462 LINE"
);
},
{
closed = 1;
nodes = (
"1313 940 LINE",
"1313 1462 LINE",
"1147 1462 LINE",
"1247 1462 OFFCURVE",
"1273 1436 OFFCURVE",
"1273 1332 CURVE SMOOTH",
"1273 940 LINE"
);
}
);
width = 1489;
},
{
anchors = (
{
name = bottom;
position = "{803, 0}";
},
{
name = ogonek;
position = "{1511, 0}";
},
{
name = top;
position = "{827, 1500}";
}
);
hints = (
{
origin = "{0, 2}";
scale = "{-1.08, 1}";
type = Corner;
name = _corner.Serif;
},
{
origin = "{0, 3}";
scale = "{1.1, 1}";
type = Corner;
name = _corner.Serif;
options = 1;
}
);
layerId = "219068EA-2B9B-40DC-949E-B60449C01B8A";
paths = (
{
closed = 1;
nodes = (
"647 0 LINE",
"647 1500 LINE",
"227 1500 LINE",
"227 0 LINE"
);
},
{
closed = 1;
nodes = (
"1511 0 LINE",
"1511 224 LINE",
"647 224 LINE",
"647 0 LINE"
);
},
{
closed = 1;
nodes = (
"1092 364 LINE",
"1092 662 LINE",
"676 662 LINE",
"808 662 OFFCURVE",
"868 592 OFFCURVE",
"868 432 CURVE SMOOTH",
"868 364 LINE"
);
},
{
closed = 1;
nodes = (
"1092 662 LINE",
"1092 882 LINE",
"647 882 LINE",
"647 662 LINE"
);
},
{
closed = 1;
nodes = (
"1511 224 LINE",
"1511 560 LINE",
"1279 560 LINE",
"1279 464 LINE SMOOTH",
"1279 294 OFFCURVE",
"1219 224 OFFCURVE",
"1059 224 CURVE"
);
},
{
closed = 1;
nodes = (
"1092 882 LINE",
"1092 1136 LINE",
"868 1136 LINE",
"868 1112 LINE SMOOTH",
"868 952 OFFCURVE",
"808 882 OFFCURVE",
"676 882 CURVE"
);
},
{
closed = 1;
nodes = (
"1493 1276 LINE",
"1493 1500 LINE",
"647 1500 LINE",
"647 1276 LINE"
);
},
{
closed = 1;
nodes = (
"1493 960 LINE",
"1493 1276 LINE",
"1041 1276 LINE",
"1201 1276 OFFCURVE",
"1261 1206 OFFCURVE",
"1261 1036 CURVE SMOOTH",
"1261 960 LINE"
);
}
);
width = 1606;
},
{
anchors = (
{
name = bottom;
position = "{760, 0}";
},
{
name = ogonek;
position = "{1430, 0}";
},
{
name = top;
position = "{788, 1500}";
}
);
hints = (
{
origin = "{0, 2}";
scale = "{-1.08, 1}";
type = Corner;
name = _corner.Serif;
},
{
origin = "{0, 3}";
scale = "{1.1, 1}";
type = Corner;
name = _corner.Serif;
options = 1;
}
);
layerId = "0C29AA02-E021-4BD1-A2C4-87F681D64C35";
paths = (
{
closed = 1;
nodes = (
"650 0 LINE",
"650 1500 LINE",
"230 1500 LINE",
"230 0 LINE"
);
},
{
closed = 1;
nodes = (
"1430 0 LINE",
"1430 204 LINE",
"650 204 LINE",
"650 0 LINE"
);
},
{
closed = 1;
nodes = (
"1077 332 LINE",
"1077 672 LINE",
"675 672 LINE",
"825 672 OFFCURVE",
"885 602 OFFCURVE",
"885 442 CURVE SMOOTH",
"885 332 LINE"
);
},
{
closed = 1;
nodes = (
"1077 672 LINE",
"1077 872 LINE",
"650 872 LINE",
"650 672 LINE"
);
},
{
closed = 1;
nodes = (
"1430 204 LINE",
"1430 580 LINE",
"1232 580 LINE",
"1232 444 LINE SMOOTH",
"1232 274 OFFCURVE",
"1172 204 OFFCURVE",
"1012 204 CURVE"
);
},
{
closed = 1;
nodes = (
"1077 872 LINE",
"1077 1176 LINE",
"885 1176 LINE",
"885 1102 LINE SMOOTH",
"885 942 OFFCURVE",
"825 872 OFFCURVE",
"675 872 CURVE"
);
},
{
closed = 1;
nodes = (
"1416 1300 LINE",
"1416 1500 LINE",
"650 1500 LINE",
"650 1300 LINE"
);
},
{
closed = 1;
nodes = (
"1416 940 LINE",
"1416 1300 LINE",
"998 1300 LINE",
"1158 1300 OFFCURVE",
"1218 1230 OFFCURVE",
"1218 1060 CURVE SMOOTH",
"1218 940 LINE"
);
}
);
width = 1558;
}
);
leftKerningGroup = I;
leftMetricsKey = H;
rightKerningGroup = E;
unicode = 0045;
},
{
color = 8;
glyphname = F;
lastChange = "2021-05-03 08:48:40 +0000";
layers = (
{
hints = (
{
origin = "{0, 3}";
scale = "{1.1, 1}";
type = Corner;
name = _corner.Serif;
options = 1;
},
{
origin = "{0, 0}";
scale = "{-1.6, 1}";
type = Corner;
name = _corner.Serif;
},
{
origin = "{0, 2}";
scale = "{-1.08, 1}";
type = Corner;
name = _corner.Serif;
}
);
layerId = "CA54B7DC-FBBB-40FE-ACF3-AABDD76D6A7B";
paths = (
{
closed = 1;
nodes = (
"358 0 LINE",
"358 1500 LINE",
"310 1500 LINE",
"310 0 LINE"
);
},
{
closed = 1;
nodes = (
"918 386 LINE",
"918 750 LINE",
"758 750 LINE",
"852 750 OFFCURVE",
"876 726 OFFCURVE",
"876 628 CURVE SMOOTH",
"876 386 LINE"
);
},
{
closed = 1;
nodes = (
"918 750 LINE",
"918 794 LINE",
"358 794 LINE",
"358 750 LINE"
);
},
{
closed = 1;
nodes = (
"918 794 LINE",
"918 1146 LINE",
"876 1146 LINE",
"876 916 LINE SMOOTH",
"876 818 OFFCURVE",
"852 794 OFFCURVE",
"758 794 CURVE"
);
},
{
closed = 1;
nodes = (
"1338 1456 LINE",
"1338 1500 LINE",
"358 1500 LINE",
"358 1456 LINE"
);
},
{
closed = 1;
nodes = (
"1338 1000 LINE",
"1338 1456 LINE",
"1168 1456 LINE",
"1268 1456 OFFCURVE",
"1294 1430 OFFCURVE",
"1294 1326 CURVE SMOOTH",
"1294 1000 LINE"
);
}
);
width = 1450;
},
{
hints = (
{
origin = "{0, 3}";
scale = "{1.1, 1}";
type = Corner;
name = _corner.Serif;
options = 1;
},
{
origin = "{0, 0}";
scale = "{-1.9, 1}";
type = Corner;
name = _corner.Serif;
},
{
origin = "{0, 2}";
scale = "{-1.08, 1}";
type = Corner;
name = _corner.Serif;
}
);
layerId = "1E61A082-F045-49A7-AB52-DD1B03FD9B54";
paths = (
{
closed = 1;
nodes = (
"347 0 LINE",
"347 1500 LINE",
"299 1500 LINE",
"299 0 LINE"
);
},
{
closed = 1;
nodes = (
"907 330 LINE",
"907 752 LINE",
"751 752 LINE",
"845 752 OFFCURVE",
"869 728 OFFCURVE",
"869 630 CURVE SMOOTH",
"869 330 LINE"
);
},
{
closed = 1;
nodes = (
"907 752 LINE",
"907 790 LINE",
"347 790 LINE",
"347 752 LINE"
);
},
{
closed = 1;
nodes = (
"907 790 LINE",
"907 1202 LINE",
"869 1202 LINE",
"869 912 LINE SMOOTH",
"869 814 OFFCURVE",
"845 790 OFFCURVE",
"751 790 CURVE"
);
},
{
closed = 1;
nodes = (
"1267 1462 LINE",
"1267 1500 LINE",
"347 1500 LINE",
"347 1462 LINE"
);
},
{
closed = 1;
nodes = (
"1267 940 LINE",
"1267 1462 LINE",
"1101 1462 LINE",
"1201 1462 OFFCURVE",
"1227 1436 OFFCURVE",
"1227 1332 CURVE SMOOTH",
"1227 940 LINE"
);
}
);
width = 1373;
},
{
hints = (
{
origin = "{0, 3}";
type = Corner;
name = _corner.Serif;
options = 1;
},
{
origin = "{0, 0}";
scale = "{-1.4, 1}";
type = Corner;
name = _corner.Serif;
},
{
origin = "{0, 2}";
scale = "{-0.96, 0.98467}";
type = Corner;
name = _corner.Serif;
}
);
layerId = "219068EA-2B9B-40DC-949E-B60449C01B8A";
paths = (
{
closed = 1;
nodes = (
"632 0 LINE",
"632 1500 LINE",
"212 1500 LINE",
"212 0 LINE"
);
},
{
closed = 1;
nodes = (
"1095 344 LINE",
"1095 652 LINE",
"661 652 LINE",
"811 652 OFFCURVE",
"871 582 OFFCURVE",
"871 422 CURVE SMOOTH",
"871 344 LINE"
);
},
{
closed = 1;
nodes = (
"1095 652 LINE",
"1095 872 LINE",
"632 872 LINE",
"632 652 LINE"
);
},
{
closed = 1;
nodes = (
"1095 872 LINE",
"1095 1136 LINE",
"871 1136 LINE",
"871 1102 LINE SMOOTH",
"871 942 OFFCURVE",
"811 872 OFFCURVE",
"661 872 CURVE"
);
},
{
closed = 1;
nodes = (
"1494 1276 LINE",
"1494 1500 LINE",
"632 1500 LINE",
"632 1276 LINE"
);
},
{
closed = 1;
nodes = (
"1494 940 LINE",
"1494 1276 LINE",
"1042 1276 LINE",
"1202 1276 OFFCURVE",
"1262 1206 OFFCURVE",
"1262 1036 CURVE SMOOTH",
"1262 940 LINE"
);
}
);
width = 1560;
},
{
hints = (
{
origin = "{0, 3}";
type = Corner;
name = _corner.Serif;
options = 1;
},
{
origin = "{0, 0}";
scale = "{-2, 1}";
type = Corner;
name = _corner.Serif;
},
{
origin = "{0, 2}";
scale = "{-0.96, 0.98467}";
type = Corner;
name = _corner.Serif;
}
);
layerId = "0C29AA02-E021-4BD1-A2C4-87F681D64C35";
paths = (
{
closed = 1;
nodes = (
"634 0 LINE",
"634 1500 LINE",
"214 1500 LINE",
"214 0 LINE"
);
},
{
closed = 1;
nodes = (
"1055 306 LINE",
"1055 662 LINE",
"653 662 LINE",
"803 662 OFFCURVE",
"863 592 OFFCURVE",
"863 432 CURVE SMOOTH",
"863 306 LINE"
);
},
{
closed = 1;
nodes = (
"1055 662 LINE",
"1055 862 LINE",
"634 862 LINE",
"634 662 LINE"
);
},
{
closed = 1;
nodes = (
"1055 862 LINE",
"1055 1178 LINE",
"863 1178 LINE",
"863 1092 LINE SMOOTH",
"863 932 OFFCURVE",
"803 862 OFFCURVE",
"653 862 CURVE"
);
},
{
closed = 1;
nodes = (
"1386 1300 LINE",
"1386 1500 LINE",
"634 1500 LINE",
"634 1300 LINE"
);
},
{
closed = 1;
nodes = (
"1386 920 LINE",
"1386 1300 LINE",
"968 1300 LINE",
"1128 1300 OFFCURVE",
"1188 1230 OFFCURVE",
"1188 1060 CURVE SMOOTH",
"1188 920 LINE"
);
}
);
width = 1470;
}
);
leftKerningGroup = I;
leftMetricsKey = H;
rightKerningGroup = F;
unicode = 0046;
},
{
color = 8;
glyphname = G;
lastChange = "2021-05-03 10:19:56 +0000";
layers = (
{
anchors = (
{
name = bottom;
position = "{901, 0}";
},
{
name = top;
position = "{901, 1500}";
}
);
layerId = "CA54B7DC-FBBB-40FE-ACF3-AABDD76D6A7B";
paths = (
{
closed = 1;
nodes = (
"1347 -24 OFFCURVE",
"1562 276 OFFCURVE",
"1558 678 CURVE",
"1524 678 LINE",
"1524 326 OFFCURVE",
"1319 20 OFFCURVE",
"902 20 CURVE SMOOTH",
"493 20 OFFCURVE",
"186 306 OFFCURVE",
"186 750 CURVE SMOOTH",
"186 1194 OFFCURVE",
"494 1480 OFFCURVE",
"896 1480 CURVE SMOOTH",
"1283 1480 OFFCURVE",
"1459 1277 OFFCURVE",
"1482 1020 CURVE",
"1513 1020 LINE",
"1505 1333 OFFCURVE",
"1277 1524 OFFCURVE",
"896 1524 CURVE SMOOTH",
"466 1524 OFFCURVE",
"138 1240 OFFCURVE",
"138 750 CURVE SMOOTH",
"138 260 OFFCURVE",
"467 -24 OFFCURVE",
"902 -24 CURVE SMOOTH"
);
},
{
closed = 1;
nodes = (
"1568 0 LINE",
"1568 678 LINE",
"1558 678 LINE",
"1524 493 LINE",
"1524 0 LINE"
);
},
{
closed = 1;
nodes = (
"1798 678 LINE",
"1798 722 LINE",
"898 722 LINE",
"898 678 LINE"
);
},
{
closed = 1;
nodes = (
"1526 1020 LINE",
"1526 1500 LINE",
"1482 1500 LINE",
"1482 1104 LINE",
"1513 1020 LINE"
);
}
);
width = 1802;
},
{
anchors = (
{
name = bottom;
position = "{858, 0}";
},
{
name = top;
position = "{848, 1500}";
}
);
layerId = "1E61A082-F045-49A7-AB52-DD1B03FD9B54";
paths = (
{
closed = 1;
nodes = (
"1252 -24 OFFCURVE",
"1451 269 OFFCURVE",
"1451 662 CURVE",
"1422 662 LINE",
"1422 311 OFFCURVE",
"1233 14 OFFCURVE",
"846 14 CURVE SMOOTH",
"465 14 OFFCURVE",
"180 302 OFFCURVE",
"180 750 CURVE SMOOTH",
"180 1198 OFFCURVE",
"463 1486 OFFCURVE",
"834 1486 CURVE SMOOTH",
"1199 1486 OFFCURVE",
"1365 1262 OFFCURVE",
"1386 980 CURVE",
"1414 980 LINE",
"1406 1318 OFFCURVE",
"1192 1524 OFFCURVE",
"834 1524 CURVE SMOOTH",
"435 1524 OFFCURVE",
"132 1240 OFFCURVE",
"132 750 CURVE SMOOTH",
"132 260 OFFCURVE",
"439 -24 OFFCURVE",
"846 -24 CURVE SMOOTH"
);
},
{
closed = 1;
nodes = (
"1462 0 LINE",
"1462 662 LINE",
"1451 662 LINE",
"1422 504 LINE",
"1422 0 LINE"
);
},
{
closed = 1;
nodes = (
"1692 662 LINE",
"1692 700 LINE",
"732 700 LINE",
"732 662 LINE"
);
},
{
closed = 1;
nodes = (
"1430 980 LINE",
"1430 1500 LINE",
"1390 1500 LINE",
"1390 1034 LINE",
"1414 980 LINE"
);
}
);
width = 1714;
},
{
anchors = (
{
name = bottom;
position = "{911, 0}";
},
{
name = top;
position = "{849, 1500}";
}
);
layerId = "219068EA-2B9B-40DC-949E-B60449C01B8A";
paths = (
{
closed = 1;
nodes = (
"1284 -32 OFFCURVE",
"1464 207 OFFCURVE",
"1470 553 CURVE",
"1372 553 LINE",
"1346 366 OFFCURVE",
"1233 222 OFFCURVE",
"975 222 CURVE SMOOTH",
"699 222 OFFCURVE",
"534 428 OFFCURVE",
"534 750 CURVE SMOOTH",
"534 1072 OFFCURVE",
"695 1278 OFFCURVE",
"967 1278 CURVE SMOOTH",
"1210 1278 OFFCURVE",
"1307 1130 OFFCURVE",
"1325 995 CURVE",
"1448 995 LINE",
"1422 1328 OFFCURVE",
"1227 1532 OFFCURVE",
"855 1532 CURVE SMOOTH",
"411 1532 OFFCURVE",
"64 1244 OFFCURVE",
"64 750 CURVE SMOOTH",
"64 256 OFFCURVE",
"411 -32 OFFCURVE",
"845 -32 CURVE SMOOTH"
);
},
{
closed = 1;
nodes = (
"1628 0 LINE",
"1628 553 LINE",
"1470 553 LINE",
"1386 380 LINE",
"1386 0 LINE"
);
},
{
closed = 1;
nodes = (
"1788 553 LINE",
"1788 785 LINE",
"997 785 LINE",
"997 553 LINE"
);
},
{
closed = 1;
nodes = (
"1575 995 LINE",
"1575 1500 LINE",
"1331 1500 LINE",
"1331 1164 LINE",
"1448 995 LINE"
);
}
);
width = 1826;
},
{
anchors = (
{
name = bottom;
position = "{875, 0}";
},
{
name = top;
position = "{847, 1500}";
}
);
layerId = "0C29AA02-E021-4BD1-A2C4-87F681D64C35";
paths = (
{
closed = 1;
nodes = (
"1276 -32 OFFCURVE",
"1429 238 OFFCURVE",
"1435 589 CURVE",
"1358 589 LINE",
"1342 371 OFFCURVE",
"1219 202 OFFCURVE",
"963 202 CURVE SMOOTH",
"700 202 OFFCURVE",
"542 416 OFFCURVE",
"542 750 CURVE SMOOTH",
"542 1090 OFFCURVE",
"697 1308 OFFCURVE",
"953 1308 CURVE SMOOTH",
"1194 1308 OFFCURVE",
"1292 1133 OFFCURVE",
"1305 935 CURVE",
"1386 935 LINE",
"1382 1307 OFFCURVE",
"1212 1532 OFFCURVE",
"815 1532 CURVE SMOOTH",
"401 1532 OFFCURVE",
"74 1244 OFFCURVE",
"74 750 CURVE SMOOTH",
"74 256 OFFCURVE",
"401 -32 OFFCURVE",
"833 -32 CURVE SMOOTH"
);
},
{
closed = 1;
nodes = (
"1568 0 LINE",
"1568 589 LINE",
"1435 589 LINE",
"1350 367 LINE",
"1350 0 LINE"
);
},
{
closed = 1;
nodes = (
"1744 589 LINE",
"1744 795 LINE",
"915 795 LINE",
"915 589 LINE"
);
},
{
closed = 1;
nodes = (
"1509 935 LINE",
"1509 1500 LINE",
"1293 1500 LINE",
"1293 1164 LINE",
"1386 935 LINE"
);
}
);
width = 1772;
}
);
leftKerningGroup = O;
leftMetricsKey = O;
rightKerningGroup = G;
unicode = 0047;
},
{
color = 8;
glyphname = H;
lastChange = "2021-05-03 08:48:52 +0000";
layers = (
{
anchors = (
{
name = bottom;
position = "{876, 0}";
},
{
name = center;
position = "{876, 750}";
},
{
name = top;
position = "{876, 1500}";
},
{
name = topleft;
position = "{20, 1500}";
}
);
hints = (
{
origin = "{0, 1}";
scale = "{1.18, 1}";
type = Corner;
name = _corner.Serif;
},
{
origin = "{0, 2}";
scale = "{-1.08, 1}";
type = Corner;
name = _corner.Serif;
},
{
origin = "{0, 3}";
scale = "{1.1, 1}";
type = Corner;
name = _corner.Serif;
options = 1;
},
{
origin = "{0, 0}";
scale = "{-1.2, 1}";
type = Corner;
name = _corner.Serif;
},
{
origin = "{1, 1}";
scale = "{1.08, 1}";
type = Corner;
name = _corner.Serif;
},
{
origin = "{1, 2}";
scale = "{-1.18, 1}";
type = Corner;
name = _corner.Serif;
},
{
origin = "{1, 3}";
scale = "{1.2, 1}";
type = Corner;
name = _corner.Serif;
options = 1;
},
{
origin = "{1, 0}";
scale = "{-1.1, 1}";
type = Corner;
name = _corner.Serif;
}
);
layerId = "CA54B7DC-FBBB-40FE-ACF3-AABDD76D6A7B";
paths = (
{
closed = 1;
nodes = (
"358 0 LINE",
"358 1500 LINE",
"310 1500 LINE",
"310 0 LINE"
);
},
{
closed = 1;
nodes = (
"1442 0 LINE",
"1442 1500 LINE",
"1394 1500 LINE",
"1394 0 LINE"
);
},
{
closed = 1;
nodes = (
"1394 738 LINE",
"1394 782 LINE",
"358 782 LINE",
"358 738 LINE"
);
}
);
width = 1752;
},
{
anchors = (
{
name = bottom;
position = "{840, 0}";
},
{
name = center;
position = "{840, 750}";
},
{
name = top;
position = "{840, 1500}";
},
{
name = topleft;
position = "{20, 1500}";
}
);
hints = (
{
origin = "{0, 1}";
scale = "{1.18, 1}";
type = Corner;
name = _corner.Serif;
},
{
origin = "{0, 2}";
scale = "{-1.08, 1}";
type = Corner;
name = _corner.Serif;
},
{
origin = "{0, 3}";
scale = "{1.1, 1}";
type = Corner;
name = _corner.Serif;
options = 1;
},
{
origin = "{0, 0}";
scale = "{-1.2, 1}";
type = Corner;
name = _corner.Serif;
},
{
origin = "{1, 1}";
scale = "{1.08, 1}";
type = Corner;
name = _corner.Serif;
},
{
origin = "{1, 2}";
scale = "{-1.18, 1}";
type = Corner;
name = _corner.Serif;
},
{
origin = "{1, 3}";
scale = "{1.2, 1}";
type = Corner;
name = _corner.Serif;
options = 1;
},
{
origin = "{1, 0}";
scale = "{-1.1, 1}";
type = Corner;
name = _corner.Serif;
}
);
layerId = "1E61A082-F045-49A7-AB52-DD1B03FD9B54";
paths = (
{
closed = 1;
nodes = (
"347 0 LINE",
"347 1500 LINE",
"299 1500 LINE",
"299 0 LINE"
);
},
{
closed = 1;
nodes = (
"1381 0 LINE",
"1381 1500 LINE",
"1333 1500 LINE",
"1333 0 LINE"
);
},
{
closed = 1;
nodes = (
"1333 742 LINE",
"1333 780 LINE",
"347 780 LINE",
"347 742 LINE"
);
}
);
width = 1680;
},
{
anchors = (
{
name = bottom;
position = "{919, 0}";
},
{
name = center;
position = "{919, 750}";
},
{
name = top;
position = "{919, 1500}";
},
{
name = topleft;
position = "{20, 1500}";
}
);
hints = (
{
origin = "{0, 1}";
scale = "{1.18, 1}";
type = Corner;
name = _corner.Serif;
},
{
origin = "{0, 2}";
scale = "{-1.08, 1}";
type = Corner;
name = _corner.Serif;
},
{
origin = "{0, 3}";
scale = "{1.1, 1}";
type = Corner;
name = _corner.Serif;
options = 1;
},
{
origin = "{0, 0}";
scale = "{-1.18, 1}";
type = Corner;
name = _corner.Serif;
},
{
origin = "{1, 1}";
scale = "{1.08, 1}";
type = Corner;
name = _corner.Serif;
},
{
origin = "{1, 2}";
scale = "{-1.18, 1}";
type = Corner;
name = _corner.Serif;
},
{
origin = "{1, 3}";
scale = "{1.18, 1}";
type = Corner;
name = _corner.Serif;
options = 1;
},
{
origin = "{1, 0}";
scale = "{-1.08, 1}";
type = Corner;
name = _corner.Serif;
}
);
layerId = "219068EA-2B9B-40DC-949E-B60449C01B8A";
paths = (
{
closed = 1;
nodes = (
"647 0 LINE",
"647 1500 LINE",
"227 1500 LINE",
"227 0 LINE"
);
},
{
closed = 1;
nodes = (
"1613 0 LINE",
"1613 1500 LINE",
"1193 1500 LINE",
"1193 0 LINE"
);
},
{
closed = 1;
nodes = (
"1193 639 LINE",
"1193 847 LINE",
"647 847 LINE",
"647 639 LINE"
);
}
);
width = 1837;
},
{
anchors = (
{
name = bottom;
position = "{887, 0}";
},
{
name = center;
position = "{887, 750}";
},
{
name = top;
position = "{887, 1500}";
},
{
name = topleft;
position = "{26, 1500}";
}
);
hints = (
{
origin = "{0, 1}";
scale = "{1.18, 1}";
type = Corner;
name = _corner.Serif;
},
{
origin = "{0, 2}";
scale = "{-1.08, 1}";
type = Corner;
name = _corner.Serif;
},
{
origin = "{0, 3}";
scale = "{1.1, 1}";
type = Corner;
name = _corner.Serif;
options = 1;
},
{
origin = "{0, 0}";
scale = "{-1.18, 1}";
type = Corner;
name = _corner.Serif;
},
{
origin = "{1, 1}";
scale = "{1.08, 1}";
type = Corner;
name = _corner.Serif;
},
{
origin = "{1, 2}";
scale = "{-1.18, 1}";
type = Corner;
name = _corner.Serif;
},
{
origin = "{1, 3}";
scale = "{1.18, 1}";
type = Corner;
name = _corner.Serif;
options = 1;
},
{
origin = "{1, 0}";
scale = "{-1.08, 1}";
type = Corner;
name = _corner.Serif;
}
);
layerId = "0C29AA02-E021-4BD1-A2C4-87F681D64C35";
paths = (
{
closed = 1;
nodes = (
"650 0 LINE",
"650 1500 LINE",
"230 1500 LINE",
"230 0 LINE"
);
},
{
closed = 1;
nodes = (
"1546 0 LINE",
"1546 1500 LINE",
"1126 1500 LINE",
"1126 0 LINE"
);
},
{
closed = 1;
nodes = (
"1126 639 LINE",
"1126 847 LINE",
"650 847 LINE",
"650 639 LINE"
);
}
);
width = 1773;
}
);
leftKerningGroup = I;
rightKerningGroup = I;
unicode = 0048;
},
{
color = 8;
glyphname = I;
lastChange = "2021-05-03 10:13:16 +0000";
layers = (
{
anchors = (
{
name = bottom;
position = "{351, 0}";
},
{
name = ogonek;
position = "{481, 0}";
},
{
name = top;
position = "{351, 1500}";
},
{
name = topleft;
position = "{20, 1500}";
}
);
hints = (
{
origin = "{0, 2}";
scale = "{-1.18, 1}";
type = Corner;
name = _corner.Serif;
},
{
origin = "{0, 3}";
scale = "{1.2, 1}";
type = Corner;
name = _corner.Serif;
options = 1;
},
{
origin = "{0, 0}";
scale = "{-1.2, 1}";
type = Corner;
name = _corner.Serif;
},
{
origin = "{0, 1}";
scale = "{1.18, 1}";
type = Corner;
name = _corner.Serif;
}
);
layerId = "CA54B7DC-FBBB-40FE-ACF3-AABDD76D6A7B";
paths = (
{
closed = 1;
nodes = (
"375 0 LINE",
"375 1500 LINE",
"327 1500 LINE",
"327 0 LINE"
);
}
);
width = 702;
},
{
anchors = (
{
name = bottom;
position = "{342, 0}";
},
{
name = ogonek;
position = "{471, 0}";
},
{
name = top;
position = "{342, 1500}";
},
{
name = topleft;
position = "{20, 1500}";
}
);
hints = (
{
origin = "{0, 2}";
scale = "{-1.18, 1}";
type = Corner;
name = _corner.Serif;
},
{
origin = "{0, 3}";
scale = "{1.2, 1}";
type = Corner;
name = _corner.Serif;
options = 1;
},
{
origin = "{0, 0}";
scale = "{-1.2, 1}";
type = Corner;
name = _corner.Serif;
},
{
origin = "{0, 1}";
scale = "{1.18, 1}";
type = Corner;
name = _corner.Serif;
}
);
layerId = "1E61A082-F045-49A7-AB52-DD1B03FD9B54";
paths = (
{
closed = 1;
nodes = (
"366 0 LINE",
"366 1500 LINE",
"318 1500 LINE",
"318 0 LINE"
);
}
);
width = 684;
},
{
anchors = (
{
name = bottom;
position = "{448, 0}";
},
{
name = ogonek;
position = "{658, 0}";
},
{
name = top;
position = "{448, 1500}";
},
{
name = topleft;
position = "{20, 1500}";
}
);
hints = (
{
origin = "{0, 2}";
scale = "{-1.18, 1}";
type = Corner;
name = _corner.Serif;
},
{
origin = "{0, 3}";
scale = "{1.2, 1}";
type = Corner;
name = _corner.Serif;
options = 1;
},
{
origin = "{0, 0}";
scale = "{-1.2, 1}";
type = Corner;
name = _corner.Serif;
},
{
origin = "{0, 1}";
scale = "{1.18, 1}";
type = Corner;
name = _corner.Serif;
}
);
layerId = "219068EA-2B9B-40DC-949E-B60449C01B8A";
paths = (
{
closed = 1;
nodes = (
"658 0 LINE",
"658 1500 LINE",
"238 1500 LINE",
"238 0 LINE"
);
}
);
width = 896;
},
{
anchors = (
{
name = bottom;
position = "{454, 0}";
},
{
name = ogonek;
position = "{664, 0}";
},
{
name = top;
position = "{454, 1500}";
},
{
name = topleft;
position = "{30, 1500}";
}
);
hints = (
{
origin = "{0, 2}";
scale = "{-1.18, 1}";
type = Corner;
name = _corner.Serif;
},
{
origin = "{0, 3}";
scale = "{1.2, 1}";
type = Corner;
name = _corner.Serif;
options = 1;
},
{
origin = "{0, 0}";
scale = "{-1.2, 1}";
type = Corner;
name = _corner.Serif;
},
{
origin = "{0, 1}";
scale = "{1.18, 1}";
type = Corner;
name = _corner.Serif;
}
);
layerId = "0C29AA02-E021-4BD1-A2C4-87F681D64C35";
paths = (
{
closed = 1;
nodes = (
"664 0 LINE",
"664 1500 LINE",
"244 1500 LINE",
"244 0 LINE"
);
}
);
width = 908;
}
);
leftKerningGroup = I;
rightKerningGroup = I;
unicode = 0049;
},
{
color = 8;
glyphname = J;
lastChange = "2021-05-03 08:45:35 +0000";
layers = (
{
anchors = (
{
name = bottom;
position = "{634, 0}";
},
{
name = top;
position = "{892, 1500}";
}
);
hints = (
{
origin = "{0, 4}";
scale = "{-1.58, 1}";
type = Corner;
name = _corner.Serif;
options = 1;
},
{
origin = "{0, 3}";
scale = "{1.08, 1}";
type = Corner;
name = _corner.Serif;
}
);
layerId = "CA54B7DC-FBBB-40FE-ACF3-AABDD76D6A7B";
paths = (
{
closed = 1;
nodes = (
"806 -16 OFFCURVE",
"978 132 OFFCURVE",
"978 460 CURVE SMOOTH",
"978 1500 LINE",
"930 1500 LINE",
"930 456 LINE SMOOTH",
"930 173 OFFCURVE",
"781 28 OFFCURVE",
"540 28 CURVE SMOOTH",
"299 28 OFFCURVE",
"150 173 OFFCURVE",
"150 456 CURVE SMOOTH",
"150 530 LINE",
"106 530 LINE",
"106 452 LINE SMOOTH",
"106 133 OFFCURVE",
"278 -16 OFFCURVE",
"542 -16 CURVE SMOOTH"
);
}
);
width = 1267;
},
{
anchors = (
{
name = bottom;
position = "{598, 0}";
},
{
name = top;
position = "{802, 1500}";
}
);
hints = (
{
origin = "{0, 3}";
scale = "{1.08, 1}";
type = Corner;
name = _corner.Serif;
},
{
origin = "{0, 4}";
scale = "{-1.88, 1}";
type = Corner;
name = _corner.Serif;
options = 1;
}
);
layerId = "1E61A082-F045-49A7-AB52-DD1B03FD9B54";
paths = (
{
closed = 1;
nodes = (
"758 -16 OFFCURVE",
"918 123 OFFCURVE",
"918 430 CURVE SMOOTH",
"918 1500 LINE",
"870 1500 LINE",
"870 426 LINE SMOOTH",
"870 159 OFFCURVE",
"732 22 OFFCURVE",
"508 22 CURVE SMOOTH",
"284 22 OFFCURVE",
"146 159 OFFCURVE",
"146 426 CURVE SMOOTH",
"146 590 LINE",
"106 590 LINE",
"106 422 LINE SMOOTH",
"106 124 OFFCURVE",
"266 -16 OFFCURVE",
"512 -16 CURVE SMOOTH"
);
}
);
width = 1196;
},
{
anchors = (
{
name = bottom;
position = "{673, 0}";
},
{
name = top;
position = "{887, 1500}";
}
);
hints = (
{
origin = "{0, 4}";
scale = "{-1.38, 1}";
type = Corner;
name = _corner.Serif;
options = 1;
},
{
origin = "{0, 3}";
scale = "{1.08, 1}";
type = Corner;
name = _corner.Serif;
}
);
layerId = "219068EA-2B9B-40DC-949E-B60449C01B8A";
paths = (
{
closed = 1;
nodes = (
"932 -32 OFFCURVE",
"1130 140 OFFCURVE",
"1130 458 CURVE SMOOTH",
"1130 1500 LINE",
"710 1500 LINE",
"710 494 LINE SMOOTH",
"710 366 OFFCURVE",
"646 274 OFFCURVE",
"496 274 CURVE SMOOTH",
"345 274 OFFCURVE",
"286 367 OFFCURVE",
"286 494 CURVE SMOOTH",
"286 597 LINE",
"54 597 LINE",
"54 458 LINE SMOOTH",
"54 139 OFFCURVE",
"272 -32 OFFCURVE",
"592 -32 CURVE SMOOTH"
);
}
);
width = 1344;
},
{
anchors = (
{
name = bottom;
position = "{611, 0}";
},
{
name = top;
position = "{731, 1500}";
}
);
hints = (
{
origin = "{0, 3}";
scale = "{1.08, 1}";
type = Corner;
name = _corner.Serif;
},
{
origin = "{0, 4}";
scale = "{-1.98, 1}";
type = Corner;
name = _corner.Serif;
options = 1;
}
);
layerId = "0C29AA02-E021-4BD1-A2C4-87F681D64C35";
paths = (
{
closed = 1;
nodes = (
"835 -32 OFFCURVE",
"1012 126 OFFCURVE",
"1012 418 CURVE SMOOTH",
"1012 1500 LINE",
"592 1500 LINE",
"592 418 LINE SMOOTH",
"592 313 OFFCURVE",
"540 238 OFFCURVE",
"418 238 CURVE SMOOTH",
"296 238 OFFCURVE",
"248 314 OFFCURVE",
"248 418 CURVE SMOOTH",
"248 597 LINE",
"50 597 LINE",
"50 418 LINE SMOOTH",
"50 126 OFFCURVE",
"227 -32 OFFCURVE",
"531 -32 CURVE SMOOTH"
);
}
);
width = 1233;
}
);
leftKerningGroup = J;
rightKerningGroup = U;
rightMetricsKey = U;
unicode = 004A;
},
{
color = 8;
glyphname = K;
lastChange = "2021-05-03 08:45:35 +0000";
layers = (
{
anchors = (
{
name = bottom;
position = "{820, 0}";
},
{
name = top;
position = "{820, 1500}";
}
);
hints = (
{
origin = "{1, 2}";
scale = "{-1.08, 1}";
type = Corner;
name = _corner.Serif;
},
{
origin = "{1, 3}";
scale = "{1.1, 1}";
type = Corner;
name = _corner.Serif;
options = 1;
},
{
origin = "{1, 0}";
scale = "{-1.2, 1}";
type = Corner;
name = _corner.Serif;
},
{
origin = "{1, 1}";
scale = "{1.18, 1}";
type = Corner;
name = _corner.Serif;
},
{
origin = "{0, 1}";
scale = "{-1.38, 1}";
type = Corner;
name = _corner.Serif;
options = 1;
},
{
origin = "{0, 0}";
scale = "{0.62, 1}";
type = Corner;
name = _corner.Serif;
},
{
origin = "{2, 3}";
scale = "{1.4, 1}";
type = Corner;
name = _corner.Serif;
},
{
origin = "{2, 0}";
scale = "{-0.66, 1}";
type = Corner;
name = _corner.Serif;
options = 1;
}
);
layerId = "CA54B7DC-FBBB-40FE-ACF3-AABDD76D6A7B";
paths = (
{
closed = 1;
nodes = (
"1406 1500 LINE",
"1340 1500 LINE",
"324 585 LINE",
"349 551 LINE"
);
},
{
closed = 1;
nodes = (
"358 0 LINE",
"358 1500 LINE",
"310 1500 LINE",
"310 0 LINE"
);
},
{
closed = 1;
nodes = (
"1466 0 LINE",
"637 835 LINE",
"604 806 LINE",
"1401 0 LINE"
);
}
);
width = 1639;
},
{
anchors = (
{
name = bottom;
position = "{815, 0}";
},
{
name = top;
position = "{815, 1500}";
}
);
hints = (
{
origin = "{1, 2}";
scale = "{-1.08, 1}";
type = Corner;
name = _corner.Serif;
},
{
origin = "{1, 3}";
scale = "{1.1, 1}";
type = Corner;
name = _corner.Serif;
options = 1;
},
{
origin = "{1, 0}";
scale = "{-1.2, 1}";
type = Corner;
name = _corner.Serif;
},
{
origin = "{1, 1}";
scale = "{1.18, 1}";
type = Corner;
name = _corner.Serif;
},
{
origin = "{0, 1}";
scale = "{-1.38, 1}";
type = Corner;
name = _corner.Serif;
options = 1;
},
{
origin = "{0, 0}";
scale = "{0.62, 1}";
type = Corner;
name = _corner.Serif;
},
{
origin = "{2, 3}";
scale = "{1.4, 1}";
type = Corner;
name = _corner.Serif;
},
{
origin = "{2, 0}";
scale = "{-0.66, 1}";
type = Corner;
name = _corner.Serif;
options = 1;
}
);
layerId = "1E61A082-F045-49A7-AB52-DD1B03FD9B54";
paths = (
{
closed = 1;
nodes = (
"1375 1500 LINE",
"1314 1500 LINE",
"313 613 LINE",
"338 584 LINE"
);
},
{
closed = 1;
nodes = (
"347 0 LINE",
"347 1500 LINE",
"299 1500 LINE",
"299 0 LINE"
);
},
{
closed = 1;
nodes = (
"1435 0 LINE",
"603 848 LINE",
"573 816 LINE",
"1370 0 LINE"
);
}
);
width = 1629;
},
{
anchors = (
{
name = bottom;
position = "{857, 0}";
},
{
name = top;
position = "{857, 1500}";
}
);
hints = (
{
origin = "{1, 2}";
scale = "{-1.08, 1}";
type = Corner;
name = _corner.Serif;
},
{
origin = "{1, 3}";
scale = "{1.1, 1}";
type = Corner;
name = _corner.Serif;
options = 1;
},
{
origin = "{1, 0}";
scale = "{-0.94, 1}";
type = Corner;
name = _corner.Serif;
},
{
origin = "{1, 1}";
scale = "{1.08, 1}";
type = Corner;
name = _corner.Serif;
},
{
origin = "{0, 1}";
scale = "{-2.14, 1}";
type = Corner;
name = _corner.Serif;
options = 1;
},
{
origin = "{0, 0}";
scale = "{0.02, 1}";
type = Corner;
name = _corner.Serif;
},
{
origin = "{2, 3}";
scale = "{1.54, 1}";
type = Corner;
name = _corner.Serif;
},
{
origin = "{2, 0}";
scale = "{-0.2, 1}";
type = Corner;
name = _corner.Serif;
options = 1;
}
);
layerId = "219068EA-2B9B-40DC-949E-B60449C01B8A";
paths = (
{
closed = 1;
nodes = (
"1750 1500 LINE",
"1388 1500 LINE",
"395 624 LINE",
"555 436 LINE"
);
},
{
closed = 1;
nodes = (
"647 0 LINE",
"647 1500 LINE",
"227 1500 LINE",
"227 0 LINE"
);
},
{
closed = 1;
nodes = (
"1724 0 LINE",
"999 942 LINE",
"708 676 LINE",
"1200 0 LINE"
);
}
);
width = 1730;
},
{
anchors = (
{
name = bottom;
position = "{864, 0}";
},
{
name = top;
position = "{864, 1500}";
}
);
hints = (
{
origin = "{1, 2}";
scale = "{-1.08, 1}";
type = Corner;
name = _corner.Serif;
},
{
origin = "{1, 3}";
scale = "{1.1, 1}";
type = Corner;
name = _corner.Serif;
options = 1;
},
{
origin = "{1, 0}";
scale = "{-0.92, 1}";
type = Corner;
name = _corner.Serif;
},
{
origin = "{1, 1}";
scale = "{1.08, 1}";
type = Corner;
name = _corner.Serif;
},
{
origin = "{0, 1}";
scale = "{-2.06, 1}";
type = Corner;
name = _corner.Serif;
options = 1;
},
{
origin = "{0, 0}";
scale = "{0.04, 1}";
type = Corner;
name = _corner.Serif;
},
{
origin = "{2, 3}";
scale = "{1.54, 1}";
type = Corner;
name = _corner.Serif;
},
{
origin = "{2, 0}";
scale = "{-0.15, 1}";
type = Corner;
name = _corner.Serif;
options = 1;
}
);
layerId = "0C29AA02-E021-4BD1-A2C4-87F681D64C35";
paths = (
{
closed = 1;
nodes = (
"1733 1500 LINE",
"1411 1500 LINE",
"428 605 LINE",
"568 446 LINE"
);
},
{
closed = 1;
nodes = (
"650 0 LINE",
"650 1500 LINE",
"230 1500 LINE",
"230 0 LINE"
);
},
{
closed = 1;
nodes = (
"1753 0 LINE",
"1020 923 LINE",
"735 676 LINE",
"1249 0 LINE"
);
}
);
width = 1755;
}
);
leftKerningGroup = I;
leftMetricsKey = H;
rightKerningGroup = K;
rightMetricsKey = X;
unicode = 004B;
},
{
color = 8;
glyphname = L;
lastChange = "2021-05-03 08:45:35 +0000";
layers = (
{
anchors = (
{
name = bottom;
position = "{730, 0}";
},
{
name = center;
position = "{334, 1220}";
},
{
name = top;
position = "{335, 1500}";
},
{
name = topright;
position = "{578, 1500}";
}
);
hints = (
{
origin = "{0, 1}";
scale = "{1.58, 1}";
type = Corner;
name = _corner.Serif;
},
{
origin = "{0, 2}";
scale = "{-1.08, 1}";
type = Corner;
name = _corner.Serif;
},
{
origin = "{0, 3}";
scale = "{1.1, 1}";
type = Corner;
name = _corner.Serif;
options = 1;
}
);
layerId = "CA54B7DC-FBBB-40FE-ACF3-AABDD76D6A7B";
paths = (
{
closed = 1;
nodes = (
"358 0 LINE",
"358 1500 LINE",
"310 1500 LINE",
"310 0 LINE"
);
},
{
closed = 1;
nodes = (
"1352 0 LINE",
"1352 44 LINE",
"358 44 LINE",
"358 0 LINE"
);
},
{
closed = 1;
nodes = (
"1352 44 LINE",
"1352 520 LINE",
"1308 520 LINE",
"1308 174 LINE SMOOTH",
"1308 70 OFFCURVE",
"1282 44 OFFCURVE",
"1182 44 CURVE"
);
}
);
width = 1460;
},
{
anchors = (
{
name = bottom;
position = "{697, 0}";
},
{
name = center;
position = "{323, 1200}";
},
{
name = top;
position = "{321, 1500}";
},
{
name = topright;
position = "{697, 1500}";
}
);
hints = (
{
origin = "{0, 1}";
scale = "{1.88, 1}";
type = Corner;
name = _corner.Serif;
},
{
origin = "{0, 2}";
scale = "{-1.08, 1}";
type = Corner;
name = _corner.Serif;
},
{
origin = "{0, 3}";
scale = "{1.1, 1}";
type = Corner;
name = _corner.Serif;
options = 1;
}
);
layerId = "1E61A082-F045-49A7-AB52-DD1B03FD9B54";
paths = (
{
closed = 1;
nodes = (
"347 0 LINE",
"347 1500 LINE",
"299 1500 LINE",
"299 0 LINE"
);
},
{
closed = 1;
nodes = (
"1281 0 LINE",
"1281 38 LINE",
"347 38 LINE",
"347 0 LINE"
);
},
{
closed = 1;
nodes = (
"1281 38 LINE",
"1281 580 LINE",
"1241 580 LINE",
"1241 168 LINE SMOOTH",
"1241 64 OFFCURVE",
"1215 38 OFFCURVE",
"1115 38 CURVE"
);
}
);
width = 1393;
},
{
anchors = (
{
name = bottom;
position = "{768, 0}";
},
{
name = center;
position = "{437, 1260}";
},
{
name = top;
position = "{437, 1500}";
},
{
name = topright;
position = "{835, 1500}";
}
);
hints = (
{
origin = "{0, 1}";
scale = "{1.38, 1}";
type = Corner;
name = _corner.Serif;
},
{
origin = "{0, 2}";
scale = "{-1.08, 1}";
type = Corner;
name = _corner.Serif;
},
{
origin = "{0, 3}";
scale = "{1.1, 1}";
type = Corner;
name = _corner.Serif;
options = 1;
}
);
layerId = "219068EA-2B9B-40DC-949E-B60449C01B8A";
paths = (
{
closed = 1;
nodes = (
"647 0 LINE",
"647 1500 LINE",
"227 1500 LINE",
"227 0 LINE"
);
},
{
closed = 1;
nodes = (
"1467 0 LINE",
"1467 224 LINE",
"647 224 LINE",
"647 0 LINE"
);
},
{
closed = 1;
nodes = (
"1467 224 LINE",
"1467 540 LINE",
"1235 540 LINE",
"1235 464 LINE SMOOTH",
"1235 294 OFFCURVE",
"1175 224 OFFCURVE",
"1015 224 CURVE"
);
}
);
width = 1535;
},
{
anchors = (
{
name = bottom;
position = "{729, 0}";
},
{
name = center;
position = "{440, 1240}";
},
{
name = top;
position = "{440, 1500}";
},
{
name = topright;
position = "{959, 1500}";
}
);
hints = (
{
origin = "{0, 1}";
scale = "{1.98, 1}";
type = Corner;
name = _corner.Serif;
},
{
origin = "{0, 2}";
scale = "{-1.08, 1}";
type = Corner;
name = _corner.Serif;
},
{
origin = "{0, 3}";
scale = "{1.1, 1}";
type = Corner;
name = _corner.Serif;
options = 1;
}
);
layerId = "0C29AA02-E021-4BD1-A2C4-87F681D64C35";
paths = (
{
closed = 1;
nodes = (
"650 0 LINE",
"650 1500 LINE",
"230 1500 LINE",
"230 0 LINE"
);
},
{
closed = 1;
nodes = (
"1400 0 LINE",
"1400 206 LINE",
"650 206 LINE",
"650 0 LINE"
);
},
{
closed = 1;
nodes = (
"1400 206 LINE",
"1400 560 LINE",
"1202 560 LINE",
"1202 446 LINE SMOOTH",
"1202 276 OFFCURVE",
"1142 206 OFFCURVE",
"982 206 CURVE"
);
}
);
width = 1484;
}
);
leftKerningGroup = I;
leftMetricsKey = H;
rightKerningGroup = L;
unicode = 004C;
},
{
color = 8;
glyphname = M;
lastChange = "2021-05-03 08:45:35 +0000";
layers = (
{
anchors = (
{
name = bottom;
position = "{1083, 0}";
},
{
name = top;
position = "{1085, 1500}";
}
);
hints = (
{
origin = "{1, 3}";
scale = "{-1.08, 1}";
type = Corner;
name = _corner.Serif;
},
{
origin = "{1, 4}";
scale = "{1.1, 1}";
type = Corner;
name = _corner.Serif;
options = 1;
},
{
origin = "{1, 0}";
scale = "{-1.2, 1}";
type = Corner;
name = _corner.Serif;
},
{
origin = "{2, 1}";
scale = "{1.08, 1}";
type = Corner;
name = _corner.Serif;
},
{
origin = "{2, 3}";
scale = "{1.2, 1}";
type = Corner;
name = _corner.Serif;
},
{
origin = "{2, 0}";
scale = "{-1.1, 1}";
type = Corner;
name = _corner.Serif;
options = 1;
}
);
layerId = "CA54B7DC-FBBB-40FE-ACF3-AABDD76D6A7B";
paths = (
{
closed = 1;
nodes = (
"1101 0 LINE",
"1812 1430 LINE",
"1812 1500 LINE",
"1798 1500 LINE",
"1078 52 LINE",
"1093 52 LINE",
"376 1500 LINE",
"354 1500 LINE",
"354 1437 LINE",
"1065 0 LINE"
);
},
{
closed = 1;
nodes = (
"354 0 LINE",
"354 1437 LINE",
"354 1500 LINE",
"310 1500 LINE",
"310 0 LINE"
);
},
{
closed = 1;
nodes = (
"1860 0 LINE",
"1860 1500 LINE",
"1812 1500 LINE",
"1812 0 LINE"
);
}
);
width = 2170;
},
{
anchors = (
{
name = bottom;
position = "{1020, 0}";
},
{
name = top;
position = "{1022, 1500}";
}
);
hints = (
{
origin = "{1, 3}";
scale = "{-1.08, 1}";
type = Corner;
name = _corner.Serif;
},
{
origin = "{1, 4}";
scale = "{1.1, 1}";
type = Corner;
name = _corner.Serif;
options = 1;
},
{
origin = "{1, 0}";
scale = "{-1.2, 1}";
type = Corner;
name = _corner.Serif;
},
{
origin = "{2, 1}";
scale = "{1.08, 1}";
type = Corner;
name = _corner.Serif;
},
{
origin = "{2, 3}";
scale = "{1.2, 1}";
type = Corner;
name = _corner.Serif;
},
{
origin = "{2, 0}";
scale = "{-1.1, 1}";
type = Corner;
name = _corner.Serif;
options = 1;
}
);
layerId = "1E61A082-F045-49A7-AB52-DD1B03FD9B54";
paths = (
{
closed = 1;
nodes = (
"1036 0 LINE",
"1697 1430 LINE",
"1697 1500 LINE",
"1685 1500 LINE",
"1016 52 LINE",
"1029 52 LINE",
"363 1500 LINE",
"339 1500 LINE",
"339 1438 LINE",
"1000 0 LINE"
);
},
{
closed = 1;
nodes = (
"339 0 LINE",
"339 1438 LINE",
"339 1500 LINE",
"299 1500 LINE",
"299 0 LINE"
);
},
{
closed = 1;
nodes = (
"1745 0 LINE",
"1745 1500 LINE",
"1697 1500 LINE",
"1697 0 LINE"
);
}
);
width = 2044;
},
{
anchors = (
{
name = bottom;
position = "{1078, 0}";
},
{
name = top;
position = "{1148, 1500}";
}
);
hints = (
{
origin = "{1, 3}";
scale = "{-1.08, 1}";
type = Corner;
name = _corner.Serif;
},
{
origin = "{1, 4}";
scale = "{1.1, 1}";
type = Corner;
name = _corner.Serif;
options = 1;
},
{
origin = "{1, 0}";
scale = "{-1.2, 1}";
type = Corner;
name = _corner.Serif;
},
{
origin = "{2, 1}";
scale = "{1.08, 1}";
type = Corner;
name = _corner.Serif;
},
{
origin = "{2, 3}";
scale = "{1.2, 1}";
type = Corner;
name = _corner.Serif;
},
{
origin = "{2, 0}";
scale = "{-1.1, 1}";
type = Corner;
name = _corner.Serif;
options = 1;
}
);
layerId = "219068EA-2B9B-40DC-949E-B60449C01B8A";
paths = (
{
closed = 1;
nodes = (
"1225 0 LINE",
"1652 971 LINE",
"1652 1500 LINE",
"1604 1500 LINE",
"1121 395 LINE",
"1184 395 LINE",
"667 1500 LINE",
"487 1500 LINE",
"487 911 LINE",
"914 0 LINE"
);
},
{
closed = 1;
nodes = (
"487 0 LINE",
"487 911 LINE",
"487 1500 LINE",
"227 1500 LINE",
"227 0 LINE"
);
},
{
closed = 1;
nodes = (
"2068 0 LINE",
"2068 1500 LINE",
"1652 1500 LINE",
"1652 0 LINE"
);
}
);
width = 2295;
},
{
anchors = (
{
name = bottom;
position = "{978, 0}";
},
{
name = top;
position = "{1069, 1500}";
}
);
hints = (
{
origin = "{1, 3}";
scale = "{-1.08, 1}";
type = Corner;
name = _corner.Serif;
},
{
origin = "{1, 4}";
scale = "{1.1, 1}";
type = Corner;
name = _corner.Serif;
options = 1;
},
{
origin = "{1, 0}";
scale = "{-1.2, 1}";
type = Corner;
name = _corner.Serif;
},
{
origin = "{2, 1}";
scale = "{1.08, 1}";
type = Corner;
name = _corner.Serif;
},
{
origin = "{2, 3}";
scale = "{1.2, 1}";
type = Corner;
name = _corner.Serif;
},
{
origin = "{2, 0}";
scale = "{-1.1, 1}";
type = Corner;
name = _corner.Serif;
options = 1;
}
);
layerId = "0C29AA02-E021-4BD1-A2C4-87F681D64C35";
paths = (
{
closed = 1;
nodes = (
"1108 0 LINE",
"1499 981 LINE",
"1499 1500 LINE",
"1484 1500 LINE",
"1043 395 LINE",
"1114 395 LINE",
"644 1500 LINE",
"450 1500 LINE",
"450 928 LINE",
"845 0 LINE"
);
},
{
closed = 1;
nodes = (
"450 0 LINE",
"450 928 LINE",
"450 1500 LINE",
"230 1500 LINE",
"230 0 LINE"
);
},
{
closed = 1;
nodes = (
"1911 0 LINE",
"1911 1500 LINE",
"1499 1500 LINE",
"1499 0 LINE"
);
}
);
width = 2141;
}
);
leftKerningGroup = I;
leftMetricsKey = H;
rightKerningGroup = I;
rightMetricsKey = H;
unicode = 004D;
},
{
color = 8;
glyphname = N;
lastChange = "2021-05-03 08:45:35 +0000";
layers = (
{
anchors = (
{
name = bottom;
position = "{902, 0}";
},
{
name = top;
position = "{912, 1500}";
}
);
hints = (
{
origin = "{1, 3}";
scale = "{-1.08, 1}";
type = Corner;
name = _corner.Serif;
},
{
origin = "{1, 4}";
scale = "{1.1, 1}";
type = Corner;
name = _corner.Serif;
options = 1;
},
{
origin = "{1, 0}";
scale = "{-1.2, 1}";
type = Corner;
name = _corner.Serif;
},
{
origin = "{2, 1}";
scale = "{1.08, 1}";
type = Corner;
name = _corner.Serif;
},
{
origin = "{2, 2}";
scale = "{-1.18, 1}";
type = Corner;
name = _corner.Serif;
options = 1;
}
);
layerId = "CA54B7DC-FBBB-40FE-ACF3-AABDD76D6A7B";
rightMetricsKey = "=H-16";
paths = (
{
closed = 1;
nodes = (
"1450 74 LINE",
"358 1500 LINE",
"354 1426 LINE",
"1446 0 LINE"
);
},
{
closed = 1;
nodes = (
"354 0 LINE",
"354 1426 LINE",
"358 1500 LINE",
"310 1500 LINE",
"310 0 LINE"
);
},
{
closed = 1;
nodes = (
"1494 0 LINE",
"1494 1500 LINE",
"1450 1500 LINE",
"1450 74 LINE",
"1440 74 LINE",
"1446 0 LINE"
);
}
);
width = 1783;
},
{
anchors = (
{
name = bottom;
position = "{852, 0}";
},
{
name = top;
position = "{868, 1500}";
}
);
hints = (
{
origin = "{1, 3}";
scale = "{-1.08, 1}";
type = Corner;
name = _corner.Serif;
},
{
origin = "{1, 4}";
scale = "{1.1, 1}";
type = Corner;
name = _corner.Serif;
options = 1;
},
{
origin = "{1, 0}";
scale = "{-1.2, 1}";
type = Corner;
name = _corner.Serif;
},
{
origin = "{2, 1}";
scale = "{1.08, 1}";
type = Corner;
name = _corner.Serif;
},
{
origin = "{2, 2}";
scale = "{-1.18, 1}";
type = Corner;
name = _corner.Serif;
options = 1;
}
);
layerId = "1E61A082-F045-49A7-AB52-DD1B03FD9B54";
rightMetricsKey = "=H-16";
paths = (
{
closed = 1;
nodes = (
"1385 76 LINE",
"343 1500 LINE",
"339 1424 LINE",
"1381 0 LINE"
);
},
{
closed = 1;
nodes = (
"339 0 LINE",
"339 1424 LINE",
"343 1500 LINE",
"299 1500 LINE",
"299 0 LINE"
);
},
{
closed = 1;
nodes = (
"1425 0 LINE",
"1425 1500 LINE",
"1385 1500 LINE",
"1385 76 LINE",
"1375 76 LINE",
"1381 0 LINE"
);
}
);
width = 1703;
},
{
anchors = (
{
name = bottom;
position = "{896, 0}";
},
{
name = top;
position = "{928, 1500}";
}
);
hints = (
{
origin = "{1, 3}";
scale = "{-1.08, 1}";
type = Corner;
name = _corner.Serif;
},
{
origin = "{1, 4}";
scale = "{1.1, 1}";
type = Corner;
name = _corner.Serif;
options = 1;
},
{
origin = "{1, 0}";
scale = "{-1.2, 1}";
type = Corner;
name = _corner.Serif;
},
{
origin = "{2, 1}";
scale = "{1.08, 1}";
type = Corner;
name = _corner.Serif;
},
{
origin = "{2, 2}";
scale = "{-1.18, 1}";
type = Corner;
name = _corner.Serif;
options = 1;
}
);
layerId = "219068EA-2B9B-40DC-949E-B60449C01B8A";
rightMetricsKey = "=H-10";
paths = (
{
closed = 1;
nodes = (
"1318 647 LINE",
"567 1500 LINE",
"487 944 LINE",
"1316 0 LINE"
);
},
{
closed = 1;
nodes = (
"487 0 LINE",
"487 944 LINE",
"567 1500 LINE",
"227 1500 LINE",
"227 0 LINE"
);
},
{
closed = 1;
nodes = (
"1578 0 LINE",
"1578 1500 LINE",
"1318 1500 LINE",
"1318 647 LINE",
"1308 647 LINE",
"1316 0 LINE"
);
}
);
width = 1792;
},
{
anchors = (
{
name = bottom;
position = "{859, 0}";
},
{
name = top;
position = "{885, 1500}";
}
);
hints = (
{
origin = "{1, 3}";
scale = "{-1.08, 1}";
type = Corner;
name = _corner.Serif;
},
{
origin = "{1, 4}";
scale = "{1.1, 1}";
type = Corner;
name = _corner.Serif;
options = 1;
},
{
origin = "{1, 0}";
scale = "{-1.2, 1}";
type = Corner;
name = _corner.Serif;
},
{
origin = "{2, 1}";
type = Corner;
name = _corner.Serif;
},
{
origin = "{2, 2}";
scale = "{-1.18, 1}";
type = Corner;
name = _corner.Serif;
options = 1;
}
);
layerId = "0C29AA02-E021-4BD1-A2C4-87F681D64C35";
rightMetricsKey = "=H-12";
paths = (
{
closed = 1;
nodes = (
"1283 636 LINE",
"524 1500 LINE",
"454 943 LINE",
"1283 0 LINE"
);
},
{
closed = 1;
nodes = (
"454 0 LINE",
"454 943 LINE",
"524 1500 LINE",
"230 1500 LINE",
"230 0 LINE"
);
},
{
closed = 1;
nodes = (
"1507 0 LINE",
"1507 1500 LINE",
"1283 1500 LINE",
"1283 636 LINE",
"1273 636 LINE",
"1283 0 LINE"
);
}
);
width = 1709;
}
);
leftKerningGroup = I;
leftMetricsKey = H;
rightKerningGroup = N;
rightMetricsKey = H;
unicode = 004E;
},
{
color = 8;
glyphname = Eng;
lastChange = "2021-05-03 08:49:19 +0000";
layers = (
{
hints = (
{
origin = "{0, 3}";
scale = "{-1.08, 1}";
type = Corner;
name = _corner.Serif;
},
{
origin = "{0, 4}";
scale = "{1.1, 1}";
type = Corner;
name = _corner.Serif;
options = 1;
},
{
origin = "{0, 0}";
scale = "{-1.2, 1}";
type = Corner;
name = _corner.Serif;
},
{
origin = "{2, 1}";
scale = "{1.08, 1}";
type = Corner;
name = _corner.Serif;
},
{
origin = "{2, 2}";
scale = "{-1.18, 1}";
type = Corner;
name = _corner.Serif;
options = 1;
}
);
layerId = "CA54B7DC-FBBB-40FE-ACF3-AABDD76D6A7B";
paths = (
{
closed = 1;
nodes = (
"354 0 LINE",
"354 1426 LINE",
"358 1500 LINE",
"310 1500 LINE",
"310 0 LINE"
);
},
{
closed = 1;
nodes = (
"1442 74 LINE",
"358 1500 LINE",
"354 1426 LINE",
"1465 -35 LINE"
);
},
{
closed = 1;
nodes = (
"1486 -140 LINE",
"1486 1500 LINE",
"1442 1500 LINE",
"1442 74 LINE",
"1442 -140 LINE"
);
},
{
closed = 1;
nodes = (
"1256 -376 LINE",
"1149 -376 OFFCURVE",
"1085 -319 OFFCURVE",
"1087 -226 CURVE",
"1068 -241 LINE",
"1123 -246 OFFCURVE",
"1168 -228 OFFCURVE",
"1168 -181 CURVE SMOOTH",
"1168 -149 OFFCURVE",
"1146 -129 OFFCURVE",
"1114 -129 CURVE SMOOTH",
"1071 -129 OFFCURVE",
"1038 -164 OFFCURVE",
"1038 -221 CURVE SMOOTH",
"1038 -354 OFFCURVE",
"1129 -420 OFFCURVE",
"1256 -420 CURVE"
);
},
{
closed = 1;
nodes = (
"1407 -420 OFFCURVE",
"1486 -324 OFFCURVE",
"1486 -140 CURVE",
"1442 -140 LINE",
"1442 -298 OFFCURVE",
"1375 -376 OFFCURVE",
"1256 -376 CURVE",
"1256 -420 LINE"
);
}
);
width = 1775;
},
{
hints = (
{
origin = "{0, 3}";
scale = "{-1.08, 1}";
type = Corner;
name = _corner.Serif;
},
{
origin = "{0, 4}";
scale = "{1.1, 1}";
type = Corner;
name = _corner.Serif;
options = 1;
},
{
origin = "{0, 0}";
scale = "{-1.2, 1}";
type = Corner;
name = _corner.Serif;
},
{
origin = "{2, 1}";
scale = "{1.08, 1}";
type = Corner;
name = _corner.Serif;
},
{
origin = "{2, 2}";
scale = "{-1.18, 1}";
type = Corner;
name = _corner.Serif;
options = 1;
}
);
layerId = "1E61A082-F045-49A7-AB52-DD1B03FD9B54";
paths = (
{
closed = 1;
nodes = (
"339 0 LINE",
"339 1423 LINE",
"343 1500 LINE",
"299 1500 LINE",
"299 0 LINE"
);
},
{
closed = 1;
nodes = (
"1377 77 LINE",
"343 1500 LINE",
"339 1423 LINE",
"1390 -23 LINE"
);
},
{
closed = 1;
nodes = (
"1417 -110 LINE",
"1417 1500 LINE",
"1377 1500 LINE",
"1377 77 LINE",
"1377 -110 LINE"
);
},
{
closed = 1;
nodes = (
"1167 -382 LINE",
"1055 -382 OFFCURVE",
"989 -318 OFFCURVE",
"990 -216 CURVE",
"971 -231 LINE",
"1029 -236 OFFCURVE",
"1075 -218 OFFCURVE",
"1075 -171 CURVE SMOOTH",
"1075 -139 OFFCURVE",
"1053 -119 OFFCURVE",
"1021 -119 CURVE SMOOTH",
"978 -119 OFFCURVE",
"945 -154 OFFCURVE",
"945 -211 CURVE SMOOTH",
"945 -351 OFFCURVE",
"1038 -420 OFFCURVE",
"1167 -420 CURVE"
);
},
{
closed = 1;
nodes = (
"1332 -420 OFFCURVE",
"1417 -314 OFFCURVE",
"1417 -110 CURVE",
"1377 -110 LINE",
"1377 -292 OFFCURVE",
"1302 -382 OFFCURVE",
"1167 -382 CURVE",
"1167 -420 LINE"
);
}
);
width = 1695;
},
{
hints = (
{
origin = "{0, 3}";
scale = "{-1.08, 1}";
type = Corner;
name = _corner.Serif;
},
{
origin = "{0, 4}";
scale = "{1.1, 1}";
type = Corner;
name = _corner.Serif;
options = 1;
},
{
origin = "{0, 0}";
scale = "{-1.2, 1}";
type = Corner;
name = _corner.Serif;
},
{
origin = "{2, 1}";
scale = "{1.08, 1}";
type = Corner;
name = _corner.Serif;
},
{
origin = "{2, 2}";
scale = "{-1.18, 1}";
type = Corner;
name = _corner.Serif;
options = 1;
}
);
layerId = "219068EA-2B9B-40DC-949E-B60449C01B8A";
paths = (
{
closed = 1;
nodes = (
"487 0 LINE",
"487 949 LINE",
"567 1500 LINE",
"227 1500 LINE",
"227 0 LINE"
);
},
{
closed = 1;
nodes = (
"1298 642 LINE",
"567 1500 LINE",
"487 949 LINE",
"1319 -27 LINE"
);
},
{
closed = 1;
nodes = (
"1558 -56 LINE",
"1558 1500 LINE",
"1298 1500 LINE",
"1298 642 LINE",
"1298 -115 LINE"
);
},
{
closed = 1;
nodes = (
"1144 -282 LINE",
"1092 -282 OFFCURVE",
"1054 -253 OFFCURVE",
"1033 -219 CURVE",
"1004 -320 LINE",
"1125 -320 OFFCURVE",
"1217 -296 OFFCURVE",
"1217 -180 CURVE SMOOTH",
"1217 -86 OFFCURVE",
"1132 -40 OFFCURVE",
"1032 -40 CURVE SMOOTH",
"894 -40 OFFCURVE",
"820 -122 OFFCURVE",
"820 -216 CURVE SMOOTH",
"820 -358 OFFCURVE",
"957 -452 OFFCURVE",
"1152 -452 CURVE"
);
},
{
closed = 1;
nodes = (
"1366 -452 OFFCURVE",
"1558 -362 OFFCURVE",
"1558 -56 CURVE",
"1298 -115 LINE",
"1298 -235 OFFCURVE",
"1240 -282 OFFCURVE",
"1144 -282 CURVE",
"1152 -452 LINE"
);
}
);
width = 1772;
},
{
hints = (
{
origin = "{0, 3}";
scale = "{-1.08, 1}";
type = Corner;
name = _corner.Serif;
},
{
origin = "{0, 4}";
scale = "{1.1, 1}";
type = Corner;
name = _corner.Serif;
options = 1;
},
{
origin = "{0, 0}";
scale = "{-1.2, 1}";
type = Corner;
name = _corner.Serif;
},
{
origin = "{2, 1}";
scale = "{1.08, 1}";
type = Corner;
name = _corner.Serif;
},
{
origin = "{2, 2}";
scale = "{-1.18, 1}";
type = Corner;
name = _corner.Serif;
options = 1;
}
);
layerId = "0C29AA02-E021-4BD1-A2C4-87F681D64C35";
paths = (
{
closed = 1;
nodes = (
"454 0 LINE",
"454 943 LINE",
"524 1500 LINE",
"230 1500 LINE",
"230 0 LINE"
);
},
{
closed = 1;
nodes = (
"1271 639 LINE",
"524 1500 LINE",
"454 943 LINE",
"1302 -36 LINE"
);
},
{
closed = 1;
nodes = (
"1495 -76 LINE",
"1495 1500 LINE",
"1271 1500 LINE",
"1271 639 LINE",
"1271 -125 LINE"
);
},
{
closed = 1;
nodes = (
"1117 -302 LINE",
"1060 -302 OFFCURVE",
"1019 -273 OFFCURVE",
"996 -239 CURVE",
"977 -300 LINE",
"1098 -300 OFFCURVE",
"1190 -278 OFFCURVE",
"1190 -170 CURVE SMOOTH",
"1190 -83 OFFCURVE",
"1105 -40 OFFCURVE",
"1005 -40 CURVE SMOOTH",
"867 -40 OFFCURVE",
"793 -122 OFFCURVE",
"793 -216 CURVE SMOOTH",
"793 -358 OFFCURVE",
"926 -452 OFFCURVE",
"1115 -452 CURVE"
);
},
{
closed = 1;
nodes = (
"1315 -452 OFFCURVE",
"1495 -356 OFFCURVE",
"1495 -76 CURVE",
"1271 -125 LINE",
"1271 -252 OFFCURVE",
"1213 -302 OFFCURVE",
"1117 -302 CURVE",
"1115 -452 LINE"
);
}
);
width = 1710;
}
);
leftKerningGroup = I;
leftMetricsKey = N;
rightKerningGroup = N;
rightMetricsKey = N;
unicode = 014A;
},
{
color = 8;
glyphname = O;
lastChange = "2021-04-29 12:19:53 +0000";
layers = (
{
anchors = (
{
name = bottom;
position = "{906, 0}";
},
{
name = ogonek;
position = "{1227, 0}";
},
{
name = top;
position = "{906, 1500}";
},
{
name = topleft;
position = "{20, 1500}";
},
{
name = topright;
position = "{1520, 1260}";
}
);
layerId = "CA54B7DC-FBBB-40FE-ACF3-AABDD76D6A7B";
paths = (
{
closed = 1;
nodes = (
"1350 -24 OFFCURVE",
"1674 260 OFFCURVE",
"1674 750 CURVE SMOOTH",
"1674 1240 OFFCURVE",
"1350 1524 OFFCURVE",
"906 1524 CURVE SMOOTH",
"462 1524 OFFCURVE",
"138 1240 OFFCURVE",
"138 750 CURVE SMOOTH",
"138 260 OFFCURVE",
"462 -24 OFFCURVE",
"906 -24 CURVE SMOOTH"
);
},
{
closed = 1;
nodes = (
"474 20 OFFCURVE",
"186 308 OFFCURVE",
"186 750 CURVE SMOOTH",
"186 1192 OFFCURVE",
"474 1480 OFFCURVE",
"906 1480 CURVE SMOOTH",
"1338 1480 OFFCURVE",
"1626 1192 OFFCURVE",
"1626 750 CURVE SMOOTH",
"1626 308 OFFCURVE",
"1338 20 OFFCURVE",
"906 20 CURVE SMOOTH"
);
}
);
width = 1812;
},
{
anchors = (
{
name = bottom;
position = "{860, 0}";
},
{
name = ogonek;
position = "{1168, 0}";
},
{
name = top;
position = "{860, 1500}";
},
{
name = topleft;
position = "{22, 1500}";
},
{
name = topright;
position = "{1441, 1260}";
}
);
layerId = "1E61A082-F045-49A7-AB52-DD1B03FD9B54";
paths = (
{
closed = 1;
nodes = (
"1280 -24 OFFCURVE",
"1588 260 OFFCURVE",
"1588 750 CURVE SMOOTH",
"1588 1240 OFFCURVE",
"1280 1524 OFFCURVE",
"860 1524 CURVE SMOOTH",
"440 1524 OFFCURVE",
"132 1240 OFFCURVE",
"132 750 CURVE SMOOTH",
"132 260 OFFCURVE",
"440 -24 OFFCURVE",
"860 -24 CURVE SMOOTH"
);
},
{
closed = 1;
nodes = (
"452 14 OFFCURVE",
"180 304 OFFCURVE",
"180 750 CURVE SMOOTH",
"180 1196 OFFCURVE",
"452 1486 OFFCURVE",
"860 1486 CURVE SMOOTH",
"1268 1486 OFFCURVE",
"1540 1196 OFFCURVE",
"1540 750 CURVE SMOOTH",
"1540 304 OFFCURVE",
"1268 14 OFFCURVE",
"860 14 CURVE SMOOTH"
);
}
);
width = 1720;
},
{
anchors = (
{
name = bottom;
position = "{948, 0}";
},
{
name = ogonek;
position = "{1311, 0}";
},
{
name = top;
position = "{948, 1500}";
},
{
name = topleft;
position = "{16, 1500}";
},
{
name = topright;
position = "{1680, 1270}";
}
);
layerId = "219068EA-2B9B-40DC-949E-B60449C01B8A";
paths = (
{
closed = 1;
nodes = (
"1472 -32 OFFCURVE",
"1832 256 OFFCURVE",
"1832 750 CURVE SMOOTH",
"1832 1244 OFFCURVE",
"1472 1532 OFFCURVE",
"948 1532 CURVE SMOOTH",
"424 1532 OFFCURVE",
"64 1244 OFFCURVE",
"64 750 CURVE SMOOTH",
"64 256 OFFCURVE",
"424 -32 OFFCURVE",
"948 -32 CURVE SMOOTH"
);
},
{
closed = 1;
nodes = (
"686 202 OFFCURVE",
"532 400 OFFCURVE",
"532 750 CURVE SMOOTH",
"532 1101 OFFCURVE",
"686 1298 OFFCURVE",
"948 1298 CURVE SMOOTH",
"1211 1298 OFFCURVE",
"1364 1101 OFFCURVE",
"1364 750 CURVE SMOOTH",
"1364 400 OFFCURVE",
"1211 202 OFFCURVE",
"948 202 CURVE SMOOTH"
);
}
);
width = 1896;
},
{
anchors = (
{
name = bottom;
position = "{918, 0}";
},
{
name = ogonek;
position = "{1265, 0}";
},
{
name = top;
position = "{918, 1500}";
},
{
name = topleft;
position = "{36, 1500}";
},
{
name = topright;
position = "{1601, 1270}";
}
);
layerId = "0C29AA02-E021-4BD1-A2C4-87F681D64C35";
paths = (
{
closed = 1;
nodes = (
"1418 -32 OFFCURVE",
"1762 256 OFFCURVE",
"1762 750 CURVE SMOOTH",
"1762 1244 OFFCURVE",
"1418 1532 OFFCURVE",
"918 1532 CURVE SMOOTH",
"418 1532 OFFCURVE",
"74 1244 OFFCURVE",
"74 750 CURVE SMOOTH",
"74 256 OFFCURVE",
"418 -32 OFFCURVE",
"918 -32 CURVE SMOOTH"
);
},
{
closed = 1;
nodes = (
"681 162 OFFCURVE",
"542 374 OFFCURVE",
"542 750 CURVE SMOOTH",
"542 1127 OFFCURVE",
"681 1338 OFFCURVE",
"918 1338 CURVE SMOOTH",
"1156 1338 OFFCURVE",
"1294 1127 OFFCURVE",
"1294 750 CURVE SMOOTH",
"1294 374 OFFCURVE",
"1156 162 OFFCURVE",
"918 162 CURVE SMOOTH"
);
}
);
width = 1836;
}
);
leftKerningGroup = O;
rightKerningGroup = O;
unicode = 004F;
},
{
color = 8;
glyphname = OE;
lastChange = "2021-05-03 08:50:16 +0000";
layers = (
{
layerId = "CA54B7DC-FBBB-40FE-ACF3-AABDD76D6A7B";
paths = (
{
closed = 1;
nodes = (
"1232 0 LINE",
"1232 44 LINE",
"924 44 LINE SMOOTH",
"478 44 OFFCURVE",
"186 319 OFFCURVE",
"186 750 CURVE SMOOTH",
"186 1181 OFFCURVE",
"478 1456 OFFCURVE",
"924 1456 CURVE SMOOTH",
"1232 1456 LINE",
"1232 1500 LINE",
"924 1500 LINE SMOOTH",
"450 1500 OFFCURVE",
"138 1225 OFFCURVE",
"138 750 CURVE SMOOTH",
"138 275 OFFCURVE",
"450 0 OFFCURVE",
"924 0 CURVE SMOOTH"
);
},
{
closed = 1;
nodes = (
"1280 0 LINE",
"1280 1500 LINE",
"1232 1500 LINE",
"1232 0 LINE"
);
},
{
closed = 1;
nodes = (
"2284 0 LINE",
"2284 44 LINE",
"1280 44 LINE",
"1280 0 LINE"
);
},
{
closed = 1;
nodes = (
"1830 364 LINE",
"1830 770 LINE",
"1670 770 LINE",
"1764 770 OFFCURVE",
"1788 746 OFFCURVE",
"1788 648 CURVE SMOOTH",
"1788 364 LINE"
);
},
{
closed = 1;
nodes = (
"1830 770 LINE",
"1830 814 LINE",
"1280 814 LINE",
"1280 770 LINE"
);
},
{
closed = 1;
nodes = (
"2284 44 LINE",
"2284 520 LINE",
"2240 520 LINE",
"2240 174 LINE SMOOTH",
"2240 70 OFFCURVE",
"2214 44 OFFCURVE",
"2114 44 CURVE"
);
},
{
closed = 1;
nodes = (
"1830 814 LINE",
"1830 1146 LINE",
"1788 1146 LINE",
"1788 936 LINE SMOOTH",
"1788 838 OFFCURVE",
"1764 814 OFFCURVE",
"1670 814 CURVE"
);
},
{
closed = 1;
nodes = (
"2266 1456 LINE",
"2266 1500 LINE",
"1280 1500 LINE",
"1280 1456 LINE"
);
},
{
closed = 1;
nodes = (
"2266 1000 LINE",
"2266 1456 LINE",
"2096 1456 LINE",
"2196 1456 OFFCURVE",
"2222 1430 OFFCURVE",
"2222 1326 CURVE SMOOTH",
"2222 1000 LINE"
);
}
);
width = 2422;
},
{
layerId = "1E61A082-F045-49A7-AB52-DD1B03FD9B54";
paths = (
{
closed = 1;
nodes = (
"1176 0 LINE",
"1176 38 LINE",
"898 38 LINE SMOOTH",
"464 38 OFFCURVE",
"180 315 OFFCURVE",
"180 750 CURVE SMOOTH",
"180 1185 OFFCURVE",
"464 1462 OFFCURVE",
"898 1462 CURVE SMOOTH",
"1176 1462 LINE",
"1176 1500 LINE",
"898 1500 LINE SMOOTH",
"436 1500 OFFCURVE",
"132 1225 OFFCURVE",
"132 750 CURVE SMOOTH",
"132 275 OFFCURVE",
"436 0 OFFCURVE",
"898 0 CURVE SMOOTH"
);
},
{
closed = 1;
nodes = (
"1224 0 LINE",
"1224 1500 LINE",
"1176 1500 LINE",
"1176 0 LINE"
);
},
{
closed = 1;
nodes = (
"2168 0 LINE",
"2168 38 LINE",
"1224 38 LINE",
"1224 0 LINE"
);
},
{
closed = 1;
nodes = (
"1764 308 LINE",
"1764 772 LINE",
"1608 772 LINE",
"1702 772 OFFCURVE",
"1726 748 OFFCURVE",
"1726 650 CURVE SMOOTH",
"1726 308 LINE"
);
},
{
closed = 1;
nodes = (
"1764 772 LINE",
"1764 810 LINE",
"1224 810 LINE",
"1224 772 LINE"
);
},
{
closed = 1;
nodes = (
"2168 38 LINE",
"2168 580 LINE",
"2128 580 LINE",
"2128 168 LINE SMOOTH",
"2128 64 OFFCURVE",
"2102 38 OFFCURVE",
"2002 38 CURVE"
);
},
{
closed = 1;
nodes = (
"1764 810 LINE",
"1764 1202 LINE",
"1726 1202 LINE",
"1726 932 LINE SMOOTH",
"1726 834 OFFCURVE",
"1702 810 OFFCURVE",
"1608 810 CURVE"
);
},
{
closed = 1;
nodes = (
"2150 1462 LINE",
"2150 1500 LINE",
"1224 1500 LINE",
"1224 1462 LINE"
);
},
{
closed = 1;
nodes = (
"2150 940 LINE",
"2150 1462 LINE",
"1984 1462 LINE",
"2084 1462 OFFCURVE",
"2110 1436 OFFCURVE",
"2110 1332 CURVE SMOOTH",
"2110 940 LINE"
);
}
);
width = 2326;
},
{
layerId = "219068EA-2B9B-40DC-949E-B60449C01B8A";
paths = (
{
closed = 1;
nodes = (
"1096 0 LINE",
"1096 224 LINE",
"962 224 LINE SMOOTH",
"699 224 OFFCURVE",
"526 426 OFFCURVE",
"526 750 CURVE SMOOTH",
"526 1074 OFFCURVE",
"699 1276 OFFCURVE",
"962 1276 CURVE SMOOTH",
"1096 1276 LINE",
"1096 1500 LINE",
"900 1500 LINE SMOOTH",
"398 1500 OFFCURVE",
"64 1230 OFFCURVE",
"64 750 CURVE SMOOTH",
"64 270 OFFCURVE",
"398 0 OFFCURVE",
"900 0 CURVE SMOOTH"
);
},
{
closed = 1;
nodes = (
"1516 0 LINE",
"1516 1500 LINE",
"1096 1500 LINE",
"1096 0 LINE"
);
},
{
closed = 1;
nodes = (
"2340 0 LINE",
"2340 224 LINE",
"1516 224 LINE",
"1516 0 LINE"
);
},
{
closed = 1;
nodes = (
"1921 364 LINE",
"1921 662 LINE",
"1525 662 LINE",
"1643 662 OFFCURVE",
"1697 592 OFFCURVE",
"1697 432 CURVE SMOOTH",
"1697 364 LINE"
);
},
{
closed = 1;
nodes = (
"1921 662 LINE",
"1921 882 LINE",
"1516 882 LINE",
"1516 662 LINE"
);
},
{
closed = 1;
nodes = (
"2340 224 LINE",
"2340 560 LINE",
"2108 560 LINE",
"2108 464 LINE SMOOTH",
"2108 294 OFFCURVE",
"2048 224 OFFCURVE",
"1888 224 CURVE"
);
},
{
closed = 1;
nodes = (
"1921 882 LINE",
"1921 1136 LINE",
"1697 1136 LINE",
"1697 1112 LINE SMOOTH",
"1697 952 OFFCURVE",
"1643 882 OFFCURVE",
"1525 882 CURVE"
);
},
{
closed = 1;
nodes = (
"2322 1276 LINE",
"2322 1500 LINE",
"1516 1500 LINE",
"1516 1276 LINE"
);
},
{
closed = 1;
nodes = (
"2322 960 LINE",
"2322 1276 LINE",
"1870 1276 LINE",
"2030 1276 OFFCURVE",
"2090 1206 OFFCURVE",
"2090 1036 CURVE SMOOTH",
"2090 960 LINE"
);
}
);
width = 2435;
},
{
layerId = "0C29AA02-E021-4BD1-A2C4-87F681D64C35";
paths = (
{
closed = 1;
nodes = (
"1046 0 LINE",
"1046 206 LINE",
"932 206 LINE SMOOTH",
"693 206 OFFCURVE",
"536 415 OFFCURVE",
"536 750 CURVE SMOOTH",
"536 1085 OFFCURVE",
"693 1294 OFFCURVE",
"932 1294 CURVE SMOOTH",
"1046 1294 LINE",
"1046 1500 LINE",
"870 1500 LINE SMOOTH",
"392 1500 OFFCURVE",
"74 1230 OFFCURVE",
"74 750 CURVE SMOOTH",
"74 270 OFFCURVE",
"392 0 OFFCURVE",
"870 0 CURVE SMOOTH"
);
},
{
closed = 1;
nodes = (
"1466 0 LINE",
"1466 1500 LINE",
"1046 1500 LINE",
"1046 0 LINE"
);
},
{
closed = 1;
nodes = (
"2216 0 LINE",
"2216 206 LINE",
"1466 206 LINE",
"1466 0 LINE"
);
},
{
closed = 1;
nodes = (
"1863 326 LINE",
"1863 670 LINE",
"1471 670 LINE",
"1614 670 OFFCURVE",
"1671 600 OFFCURVE",
"1671 440 CURVE SMOOTH",
"1671 326 LINE"
);
},
{
closed = 1;
nodes = (
"1863 670 LINE",
"1863 874 LINE",
"1466 874 LINE",
"1466 670 LINE"
);
},
{
closed = 1;
nodes = (
"2216 206 LINE",
"2216 580 LINE",
"2018 580 LINE",
"2018 446 LINE SMOOTH",
"2018 276 OFFCURVE",
"1958 206 OFFCURVE",
"1798 206 CURVE"
);
},
{
closed = 1;
nodes = (
"1863 874 LINE",
"1863 1174 LINE",
"1671 1174 LINE",
"1671 1104 LINE SMOOTH",
"1671 944 OFFCURVE",
"1614 874 OFFCURVE",
"1471 874 CURVE"
);
},
{
closed = 1;
nodes = (
"2202 1294 LINE",
"2202 1500 LINE",
"1466 1500 LINE",
"1466 1294 LINE"
);
},
{
closed = 1;
nodes = (
"2202 940 LINE",
"2202 1294 LINE",
"1784 1294 LINE",
"1944 1294 OFFCURVE",
"2004 1224 OFFCURVE",
"2004 1054 CURVE SMOOTH",
"2004 940 LINE"
);
}
);
width = 2344;
}
);
leftKerningGroup = O;
leftMetricsKey = O;
rightKerningGroup = E;
rightMetricsKey = E;
unicode = 0152;
},
{
color = 8;
glyphname = P;
lastChange = "2021-05-03 08:45:35 +0000";
layers = (
{
anchors = (
{
name = bottom;
position = "{745, 0}";
},
{
name = top;
position = "{745, 1500}";
}
);
hints = (
{
origin = "{0, 3}";
scale = "{1.1, 1}";
type = Corner;
name = _corner.Serif;
options = 1;
},
{
origin = "{0, 0}";
scale = "{-1.6, 1}";
type = Corner;
name = _corner.Serif;
},
{
origin = "{0, 2}";
scale = "{-1.08, 1}";
type = Corner;
name = _corner.Serif;
}
);
layerId = "CA54B7DC-FBBB-40FE-ACF3-AABDD76D6A7B";
paths = (
{
closed = 1;
nodes = (
"358 0 LINE",
"358 1500 LINE",
"310 1500 LINE",
"310 0 LINE"
);
},
{
closed = 1;
nodes = (
"910 662 LINE SMOOTH",
"1204 662 OFFCURVE",
"1400 803 OFFCURVE",
"1400 1081 CURVE SMOOTH",
"1400 1359 OFFCURVE",
"1204 1500 OFFCURVE",
"910 1500 CURVE SMOOTH",
"358 1500 LINE",
"358 1456 LINE",
"898 1456 LINE SMOOTH",
"1176 1456 OFFCURVE",
"1352 1330 OFFCURVE",
"1352 1081 CURVE SMOOTH",
"1352 832 OFFCURVE",
"1176 706 OFFCURVE",
"898 706 CURVE SMOOTH",
"358 706 LINE",
"358 662 LINE"
);
}
);
width = 1490;
},
{
anchors = (
{
name = bottom;
position = "{717, 0}";
},
{
name = top;
position = "{717, 1500}";
}
);
hints = (
{
origin = "{0, 3}";
scale = "{1.1, 1}";
type = Corner;
name = _corner.Serif;
options = 1;
},
{
origin = "{0, 0}";
scale = "{-1.9, 1}";
type = Corner;
name = _corner.Serif;
},
{
origin = "{0, 2}";
scale = "{-1.08, 1}";
type = Corner;
name = _corner.Serif;
}
);
layerId = "1E61A082-F045-49A7-AB52-DD1B03FD9B54";
paths = (
{
closed = 1;
nodes = (
"347 0 LINE",
"347 1500 LINE",
"299 1500 LINE",
"299 0 LINE"
);
},
{
closed = 1;
nodes = (
"865 682 LINE SMOOTH",
"1147 682 OFFCURVE",
"1335 820 OFFCURVE",
"1335 1091 CURVE SMOOTH",
"1335 1362 OFFCURVE",
"1147 1500 OFFCURVE",
"865 1500 CURVE SMOOTH",
"347 1500 LINE",
"347 1462 LINE",
"853 1462 LINE SMOOTH",
"1119 1462 OFFCURVE",
"1287 1337 OFFCURVE",
"1287 1091 CURVE SMOOTH",
"1287 845 OFFCURVE",
"1119 720 OFFCURVE",
"853 720 CURVE SMOOTH",
"347 720 LINE",
"347 682 LINE"
);
}
);
width = 1433;
},
{
anchors = (
{
name = bottom;
position = "{807, 0}";
},
{
name = top;
position = "{807, 1500}";
}
);
hints = (
{
origin = "{0, 3}";
scale = "{1.1, 1}";
type = Corner;
name = _corner.Serif;
options = 1;
},
{
origin = "{0, 0}";
scale = "{-1.8, 1}";
type = Corner;
name = _corner.Serif;
},
{
origin = "{0, 2}";
scale = "{-1.08, 1}";
type = Corner;
name = _corner.Serif;
}
);
layerId = "219068EA-2B9B-40DC-949E-B60449C01B8A";
paths = (
{
closed = 1;
nodes = (
"647 0 LINE",
"647 1500 LINE",
"227 1500 LINE",
"227 0 LINE"
);
},
{
closed = 1;
nodes = (
"1029 598 LINE SMOOTH",
"1362 598 OFFCURVE",
"1582 749 OFFCURVE",
"1582 1049 CURVE SMOOTH",
"1582 1349 OFFCURVE",
"1362 1500 OFFCURVE",
"1029 1500 CURVE SMOOTH",
"647 1500 LINE",
"647 1276 LINE",
"893 1276 LINE SMOOTH",
"1054 1276 OFFCURVE",
"1152 1203 OFFCURVE",
"1152 1049 CURVE SMOOTH",
"1152 895 OFFCURVE",
"1054 822 OFFCURVE",
"893 822 CURVE SMOOTH",
"647 822 LINE",
"647 598 LINE"
);
}
);
width = 1614;
},
{
anchors = (
{
name = bottom;
position = "{756, 0}";
},
{
name = top;
position = "{756, 1500}";
}
);
hints = (
{
origin = "{0, 3}";
scale = "{1.1, 1}";
type = Corner;
name = _corner.Serif;
options = 1;
},
{
origin = "{0, 0}";
scale = "{-2.2, 1}";
type = Corner;
name = _corner.Serif;
},
{
origin = "{0, 2}";
scale = "{-1.08, 1}";
type = Corner;
name = _corner.Serif;
}
);
layerId = "0C29AA02-E021-4BD1-A2C4-87F681D64C35";
paths = (
{
closed = 1;
nodes = (
"650 0 LINE",
"650 1500 LINE",
"230 1500 LINE",
"230 0 LINE"
);
},
{
closed = 1;
nodes = (
"946 638 LINE SMOOTH",
"1267 638 OFFCURVE",
"1479 783 OFFCURVE",
"1479 1069 CURVE SMOOTH",
"1479 1355 OFFCURVE",
"1267 1500 OFFCURVE",
"946 1500 CURVE SMOOTH",
"650 1500 LINE",
"650 1300 LINE",
"792 1300 LINE SMOOTH",
"951 1300 OFFCURVE",
"1049 1223 OFFCURVE",
"1049 1069 CURVE SMOOTH",
"1049 915 OFFCURVE",
"951 838 OFFCURVE",
"792 838 CURVE SMOOTH",
"650 838 LINE",
"650 638 LINE"
);
}
);
width = 1511;
}
);
leftKerningGroup = I;
leftMetricsKey = H;
rightKerningGroup = P;
unicode = 0050;
},
{
color = 8;
glyphname = Thorn;
lastChange = "2021-05-03 10:13:20 +0000";
layers = (
{
hints = (
{
origin = "{0, 2}";
scale = "{-1.18, 1}";
type = Corner;
name = _corner.Serif;
},
{
origin = "{0, 3}";
scale = "{1.2, 1}";
type = Corner;
name = _corner.Serif;
options = 1;
},
{
origin = "{0, 0}";
scale = "{-1.2, 1}";
type = Corner;
name = _corner.Serif;
},
{
origin = "{0, 1}";
scale = "{1.18, 1}";
type = Corner;
name = _corner.Serif;
}
);
layerId = "CA54B7DC-FBBB-40FE-ACF3-AABDD76D6A7B";
paths = (
{
closed = 1;
nodes = (
"375 0 LINE",
"375 1500 LINE",
"327 1500 LINE",
"327 0 LINE"
);
},
{
closed = 1;
nodes = (
"927 354 LINE SMOOTH",
"1221 354 OFFCURVE",
"1417 495 OFFCURVE",
"1417 773 CURVE SMOOTH",
"1417 1051 OFFCURVE",
"1221 1192 OFFCURVE",
"927 1192 CURVE SMOOTH",
"375 1192 LINE",
"375 1148 LINE",
"915 1148 LINE SMOOTH",
"1193 1148 OFFCURVE",
"1369 1022 OFFCURVE",
"1369 773 CURVE SMOOTH",
"1369 524 OFFCURVE",
"1193 398 OFFCURVE",
"915 398 CURVE SMOOTH",
"375 398 LINE",
"375 354 LINE"
);
}
);
width = 1507;
},
{
hints = (
{
origin = "{0, 2}";
scale = "{-1.18, 1}";
type = Corner;
name = _corner.Serif;
},
{
origin = "{0, 3}";
scale = "{1.2, 1}";
type = Corner;
name = _corner.Serif;
options = 1;
},
{
origin = "{0, 0}";
scale = "{-1.2, 1}";
type = Corner;
name = _corner.Serif;
},
{
origin = "{0, 1}";
scale = "{1.18, 1}";
type = Corner;
name = _corner.Serif;
}
);
layerId = "1E61A082-F045-49A7-AB52-DD1B03FD9B54";
paths = (
{
closed = 1;
nodes = (
"366 0 LINE",
"366 1500 LINE",
"318 1500 LINE",
"318 0 LINE"
);
},
{
closed = 1;
nodes = (
"884 364 LINE SMOOTH",
"1166 364 OFFCURVE",
"1354 502 OFFCURVE",
"1354 773 CURVE SMOOTH",
"1354 1044 OFFCURVE",
"1166 1182 OFFCURVE",
"884 1182 CURVE SMOOTH",
"366 1182 LINE",
"366 1144 LINE",
"872 1144 LINE SMOOTH",
"1138 1144 OFFCURVE",
"1306 1019 OFFCURVE",
"1306 773 CURVE SMOOTH",
"1306 527 OFFCURVE",
"1138 402 OFFCURVE",
"872 402 CURVE SMOOTH",
"366 402 LINE",
"366 364 LINE"
);
}
);
width = 1452;
},
{
hints = (
{
origin = "{0, 2}";
scale = "{-1.18, 1}";
type = Corner;
name = _corner.Serif;
},
{
origin = "{0, 3}";
scale = "{1.2, 1}";
type = Corner;
name = _corner.Serif;
options = 1;
},
{
origin = "{0, 0}";
scale = "{-1.2, 1}";
type = Corner;
name = _corner.Serif;
},
{
origin = "{0, 1}";
scale = "{1.18, 1}";
type = Corner;
name = _corner.Serif;
}
);
layerId = "219068EA-2B9B-40DC-949E-B60449C01B8A";
paths = (
{
closed = 1;
nodes = (
"658 0 LINE",
"658 1500 LINE",
"238 1500 LINE",
"238 0 LINE"
);
},
{
closed = 1;
nodes = (
"1040 341 LINE SMOOTH",
"1349 341 OFFCURVE",
"1553 479 OFFCURVE",
"1553 752 CURVE SMOOTH",
"1553 1025 OFFCURVE",
"1349 1163 OFFCURVE",
"1040 1163 CURVE SMOOTH",
"658 1163 LINE",
"658 939 LINE",
"904 939 LINE SMOOTH",
"1040 939 OFFCURVE",
"1123 879 OFFCURVE",
"1123 752 CURVE SMOOTH",
"1123 625 OFFCURVE",
"1040 565 OFFCURVE",
"904 565 CURVE SMOOTH",
"658 565 LINE",
"658 341 LINE"
);
}
);
width = 1585;
},
{
hints = (
{
origin = "{0, 2}";
scale = "{-1.18, 1}";
type = Corner;
name = _corner.Serif;
},
{
origin = "{0, 3}";
scale = "{1.2, 1}";
type = Corner;
name = _corner.Serif;
options = 1;
},
{
origin = "{0, 0}";
scale = "{-1.2, 1}";
type = Corner;
name = _corner.Serif;
},
{
origin = "{0, 1}";
scale = "{1.18, 1}";
type = Corner;
name = _corner.Serif;
}
);
layerId = "0C29AA02-E021-4BD1-A2C4-87F681D64C35";
paths = (
{
closed = 1;
nodes = (
"664 0 LINE",
"664 1500 LINE",
"244 1500 LINE",
"244 0 LINE"
);
},
{
closed = 1;
nodes = (
"960 352 LINE SMOOTH",
"1263 352 OFFCURVE",
"1463 487 OFFCURVE",
"1463 753 CURVE SMOOTH",
"1463 1019 OFFCURVE",
"1263 1154 OFFCURVE",
"960 1154 CURVE SMOOTH",
"664 1154 LINE",
"664 948 LINE",
"810 948 LINE SMOOTH",
"948 948 OFFCURVE",
"1033 885 OFFCURVE",
"1033 753 CURVE SMOOTH",
"1033 621 OFFCURVE",
"948 558 OFFCURVE",
"810 558 CURVE SMOOTH",
"664 558 LINE",
"664 352 LINE"
);
}
);
width = 1495;
}
);
leftKerningGroup = I;
leftMetricsKey = I;
rightMetricsKey = P;
unicode = 00DE;
},
{
color = 8;
glyphname = Q;
lastChange = "2021-05-03 08:51:33 +0000";
layers = (
{
anchors = (
{
name = bottom;
position = "{886, 0}";
},
{
name = top;
position = "{886, 1500}";
}
);
layerId = "CA54B7DC-FBBB-40FE-ACF3-AABDD76D6A7B";
paths = (
{
closed = 1;
nodes = (
"1318 -24 OFFCURVE",
"1634 260 OFFCURVE",
"1634 750 CURVE SMOOTH",
"1634 1240 OFFCURVE",
"1318 1524 OFFCURVE",
"886 1524 CURVE SMOOTH",
"454 1524 OFFCURVE",
"138 1240 OFFCURVE",
"138 750 CURVE SMOOTH",
"138 260 OFFCURVE",
"454 -24 OFFCURVE",
"886 -24 CURVE SMOOTH"
);
},
{
closed = 1;
nodes = (
"466 20 OFFCURVE",
"186 308 OFFCURVE",
"186 750 CURVE SMOOTH",
"186 1192 OFFCURVE",
"466 1480 OFFCURVE",
"886 1480 CURVE SMOOTH",
"1306 1480 OFFCURVE",
"1586 1192 OFFCURVE",
"1586 750 CURVE SMOOTH",
"1586 308 OFFCURVE",
"1306 20 OFFCURVE",
"886 20 CURVE SMOOTH"
);
},
{
closed = 1;
nodes = (
"792 0 LINE",
"792 196 LINE SMOOTH",
"792 317 OFFCURVE",
"845 378 OFFCURVE",
"940 378 CURVE SMOOTH",
"1034 378 OFFCURVE",
"1086 317 OFFCURVE",
"1086 196 CURVE SMOOTH",
"1086 0 LINE",
"1130 0 LINE",
"1130 196 LINE SMOOTH",
"1130 345 OFFCURVE",
"1054 420 OFFCURVE",
"942 420 CURVE SMOOTH",
"829 420 OFFCURVE",
"748 345 OFFCURVE",
"748 196 CURVE SMOOTH",
"748 0 LINE"
);
},
{
closed = 1;
nodes = (
"1395 -340 OFFCURVE",
"1472 -265 OFFCURVE",
"1472 -116 CURVE SMOOTH",
"1472 0 LINE",
"1428 0 LINE",
"1428 -116 LINE SMOOTH",
"1428 -237 OFFCURVE",
"1374 -298 OFFCURVE",
"1278 -298 CURVE SMOOTH",
"1183 -298 OFFCURVE",
"1130 -237 OFFCURVE",
"1130 -116 CURVE SMOOTH",
"1130 0 LINE",
"1086 0 LINE",
"1086 -116 LINE SMOOTH",
"1086 -265 OFFCURVE",
"1168 -340 OFFCURVE",
"1282 -340 CURVE SMOOTH"
);
}
);
width = 1772;
},
{
anchors = (
{
name = bottom;
position = "{860, 0}";
},
{
name = top;
position = "{860, 1500}";
}
);
layerId = "1E61A082-F045-49A7-AB52-DD1B03FD9B54";
paths = (
{
closed = 1;
nodes = (
"1280 -24 OFFCURVE",
"1588 260 OFFCURVE",
"1588 750 CURVE SMOOTH",
"1588 1240 OFFCURVE",
"1280 1524 OFFCURVE",
"860 1524 CURVE SMOOTH",
"440 1524 OFFCURVE",
"132 1240 OFFCURVE",
"132 750 CURVE SMOOTH",
"132 260 OFFCURVE",
"440 -24 OFFCURVE",
"860 -24 CURVE SMOOTH"
);
},
{
closed = 1;
nodes = (
"452 14 OFFCURVE",
"180 304 OFFCURVE",
"180 750 CURVE SMOOTH",
"180 1196 OFFCURVE",
"452 1486 OFFCURVE",
"860 1486 CURVE SMOOTH",
"1268 1486 OFFCURVE",
"1540 1196 OFFCURVE",
"1540 750 CURVE SMOOTH",
"1540 304 OFFCURVE",
"1268 14 OFFCURVE",
"860 14 CURVE SMOOTH"
);
},
{
closed = 1;
nodes = (
"762 0 LINE",
"762 196 LINE SMOOTH",
"762 320 OFFCURVE",
"816 382 OFFCURVE",
"912 382 CURVE SMOOTH",
"1007 382 OFFCURVE",
"1060 320 OFFCURVE",
"1060 196 CURVE SMOOTH",
"1060 0 LINE",
"1104 0 LINE",
"1104 196 LINE SMOOTH",
"1104 345 OFFCURVE",
"1028 420 OFFCURVE",
"916 420 CURVE SMOOTH",
"803 420 OFFCURVE",
"722 345 OFFCURVE",
"722 196 CURVE SMOOTH",
"722 0 LINE"
);
},
{
closed = 1;
nodes = (
"1369 -340 OFFCURVE",
"1446 -265 OFFCURVE",
"1446 -116 CURVE SMOOTH",
"1446 0 LINE",
"1406 0 LINE",
"1406 -116 LINE SMOOTH",
"1406 -240 OFFCURVE",
"1351 -302 OFFCURVE",
"1254 -302 CURVE SMOOTH",
"1158 -302 OFFCURVE",
"1104 -240 OFFCURVE",
"1104 -116 CURVE SMOOTH",
"1104 0 LINE",
"1060 0 LINE",
"1060 -116 LINE SMOOTH",
"1060 -265 OFFCURVE",
"1142 -340 OFFCURVE",
"1256 -340 CURVE SMOOTH"
);
}
);
width = 1720;
},
{
anchors = (
{
name = bottom;
position = "{948, 0}";
},
{
name = top;
position = "{948, 1500}";
}
);
layerId = "219068EA-2B9B-40DC-949E-B60449C01B8A";
paths = (
{
closed = 1;
nodes = (
"1472 -32 OFFCURVE",
"1832 256 OFFCURVE",
"1832 750 CURVE SMOOTH",
"1832 1244 OFFCURVE",
"1472 1532 OFFCURVE",
"948 1532 CURVE SMOOTH",
"424 1532 OFFCURVE",
"64 1244 OFFCURVE",
"64 750 CURVE SMOOTH",
"64 256 OFFCURVE",
"424 -32 OFFCURVE",
"948 -32 CURVE SMOOTH"
);
},
{
closed = 1;
nodes = (
"680 162 OFFCURVE",
"522 374 OFFCURVE",
"522 750 CURVE SMOOTH",
"522 1127 OFFCURVE",
"680 1338 OFFCURVE",
"948 1338 CURVE SMOOTH",
"1217 1338 OFFCURVE",
"1374 1127 OFFCURVE",
"1374 750 CURVE SMOOTH",
"1374 353 OFFCURVE",
"1217 162 OFFCURVE",
"948 162 CURVE SMOOTH"
);
},
{
closed = 1;
nodes = (
"862 67 LINE",
"862 419 LINE SMOOTH",
"862 452 OFFCURVE",
"877 471 OFFCURVE",
"906 471 CURVE SMOOTH",
"935 471 OFFCURVE",
"950 452 OFFCURVE",
"950 419 CURVE SMOOTH",
"950 0 LINE",
"1224 0 LINE",
"1224 385 LINE SMOOTH",
"1224 578 OFFCURVE",
"1120 677 OFFCURVE",
"952 677 CURVE SMOOTH",
"784 677 OFFCURVE",
"680 578 OFFCURVE",
"680 385 CURVE SMOOTH",
"680 67 LINE"
);
},
{
closed = 1;
nodes = (
"1380 -380 OFFCURVE",
"1482 -285 OFFCURVE",
"1482 -98 CURVE SMOOTH",
"1482 -40 LINE",
"1312 -40 LINE",
"1312 -132 LINE SMOOTH",
"1312 -165 OFFCURVE",
"1297 -184 OFFCURVE",
"1268 -184 CURVE SMOOTH",
"1239 -184 OFFCURVE",
"1224 -165 OFFCURVE",
"1224 -132 CURVE SMOOTH",
"1224 0 LINE",
"950 0 LINE",
"950 -98 LINE SMOOTH",
"950 -285 OFFCURVE",
"1052 -380 OFFCURVE",
"1216 -380 CURVE SMOOTH"
);
}
);
width = 1896;
},
{
anchors = (
{
name = bottom;
position = "{918, 0}";
},
{
name = top;
position = "{918, 1500}";
}
);
layerId = "0C29AA02-E021-4BD1-A2C4-87F681D64C35";
paths = (
{
closed = 1;
nodes = (
"1418 -32 OFFCURVE",
"1762 256 OFFCURVE",
"1762 750 CURVE SMOOTH",
"1762 1244 OFFCURVE",
"1418 1532 OFFCURVE",
"918 1532 CURVE SMOOTH",
"418 1532 OFFCURVE",
"74 1244 OFFCURVE",
"74 750 CURVE SMOOTH",
"74 256 OFFCURVE",
"418 -32 OFFCURVE",
"918 -32 CURVE SMOOTH"
);
},
{
closed = 1;
nodes = (
"675 162 OFFCURVE",
"532 374 OFFCURVE",
"532 750 CURVE SMOOTH",
"532 1127 OFFCURVE",
"675 1338 OFFCURVE",
"918 1338 CURVE SMOOTH",
"1162 1338 OFFCURVE",
"1304 1127 OFFCURVE",
"1304 750 CURVE SMOOTH",
"1304 353 OFFCURVE",
"1162 162 OFFCURVE",
"918 162 CURVE SMOOTH"
);
},
{
closed = 1;
nodes = (
"832 67 LINE",
"832 419 LINE SMOOTH",
"832 452 OFFCURVE",
"847 471 OFFCURVE",
"876 471 CURVE SMOOTH",
"905 471 OFFCURVE",
"920 452 OFFCURVE",
"920 419 CURVE SMOOTH",
"920 0 LINE",
"1194 0 LINE",
"1194 385 LINE SMOOTH",
"1194 578 OFFCURVE",
"1090 677 OFFCURVE",
"922 677 CURVE SMOOTH",
"754 677 OFFCURVE",
"650 578 OFFCURVE",
"650 385 CURVE SMOOTH",
"650 67 LINE"
);
},
{
closed = 1;
nodes = (
"1350 -380 OFFCURVE",
"1452 -285 OFFCURVE",
"1452 -98 CURVE SMOOTH",
"1452 -40 LINE",
"1282 -40 LINE",
"1282 -132 LINE SMOOTH",
"1282 -165 OFFCURVE",
"1267 -184 OFFCURVE",
"1238 -184 CURVE SMOOTH",
"1209 -184 OFFCURVE",
"1194 -165 OFFCURVE",
"1194 -132 CURVE SMOOTH",
"1194 0 LINE",
"920 0 LINE",
"920 -98 LINE SMOOTH",
"920 -285 OFFCURVE",
"1022 -380 OFFCURVE",
"1186 -380 CURVE SMOOTH"
);
}
);
width = 1836;
}
);
leftKerningGroup = O;
leftMetricsKey = O;
rightKerningGroup = O;
rightMetricsKey = O;
unicode = 0051;
},
{
color = 8;
glyphname = R;
lastChange = "2021-05-03 08:45:35 +0000";
layers = (
{
anchors = (
{
name = bottom;
position = "{802, 0}";
},
{
name = top;
position = "{800, 1500}";
}
);
hints = (
{
origin = "{0, 3}";
scale = "{1.1, 1}";
type = Corner;
name = _corner.Serif;
options = 1;
},
{
origin = "{0, 0}";
scale = "{-1.4, 1}";
type = Corner;
name = _corner.Serif;
},
{
origin = "{0, 2}";
scale = "{-1.08, 1}";
type = Corner;
name = _corner.Serif;
}
);
layerId = "CA54B7DC-FBBB-40FE-ACF3-AABDD76D6A7B";
paths = (
{
closed = 1;
nodes = (
"358 0 LINE",
"358 1500 LINE",
"310 1500 LINE",
"310 0 LINE"
);
},
{
closed = 1;
nodes = (
"1410 -20 OFFCURVE",
"1478 74 OFFCURVE",
"1478 220 CURVE SMOOTH",
"1478 540 LINE",
"1434 540 LINE",
"1434 220 LINE SMOOTH",
"1434 109 OFFCURVE",
"1384 22 OFFCURVE",
"1264 22 CURVE SMOOTH",
"1142 22 OFFCURVE",
"1094 109 OFFCURVE",
"1094 220 CURVE SMOOTH",
"1094 338 LINE SMOOTH",
"1094 592 OFFCURVE",
"982 720 OFFCURVE",
"722 720 CURVE SMOOTH",
"338 720 LINE",
"338 698 LINE",
"704 698 LINE SMOOTH",
"908 698 OFFCURVE",
"1046 571 OFFCURVE",
"1046 346 CURVE SMOOTH",
"1046 220 LINE SMOOTH",
"1046 74 OFFCURVE",
"1114 -20 OFFCURVE",
"1262 -20 CURVE SMOOTH"
);
},
{
closed = 1;
nodes = (
"834 698 LINE",
"840 702 LINE",
"966 702 LINE SMOOTH",
"1252 702 OFFCURVE",
"1450 833 OFFCURVE",
"1450 1099 CURVE SMOOTH",
"1450 1365 OFFCURVE",
"1254 1500 OFFCURVE",
"970 1500 CURVE SMOOTH",
"358 1500 LINE",
"358 1456 LINE",
"958 1456 LINE SMOOTH",
"1230 1456 OFFCURVE",
"1402 1336 OFFCURVE",
"1402 1099 CURVE SMOOTH",
"1402 862 OFFCURVE",
"1230 742 OFFCURVE",
"958 742 CURVE SMOOTH",
"358 742 LINE",
"358 698 LINE"
);
}
);
width = 1604;
},
{
anchors = (
{
name = bottom;
position = "{767, 0}";
},
{
name = top;
position = "{767, 1500}";
}
);
hints = (
{
origin = "{0, 3}";
scale = "{1.1, 1}";
type = Corner;
name = _corner.Serif;
options = 1;
},
{
origin = "{0, 0}";
scale = "{-1.4, 1}";
type = Corner;
name = _corner.Serif;
},
{
origin = "{0, 2}";
scale = "{-1.08, 1}";
type = Corner;
name = _corner.Serif;
}
);
layerId = "1E61A082-F045-49A7-AB52-DD1B03FD9B54";
paths = (
{
closed = 1;
nodes = (
"347 0 LINE",
"347 1500 LINE",
"299 1500 LINE",
"299 0 LINE"
);
},
{
closed = 1;
nodes = (
"1328 -20 OFFCURVE",
"1387 62 OFFCURVE",
"1387 190 CURVE SMOOTH",
"1387 584 LINE",
"1347 584 LINE",
"1347 190 LINE SMOOTH",
"1347 94 OFFCURVE",
"1305 18 OFFCURVE",
"1205 18 CURVE SMOOTH",
"1103 18 OFFCURVE",
"1063 94 OFFCURVE",
"1063 190 CURVE SMOOTH",
"1063 372 LINE SMOOTH",
"1063 611 OFFCURVE",
"955 741 OFFCURVE",
"691 741 CURVE SMOOTH",
"347 741 LINE",
"347 722 LINE",
"673 722 LINE SMOOTH",
"893 722 OFFCURVE",
"1015 599 OFFCURVE",
"1015 380 CURVE SMOOTH",
"1015 190 LINE SMOOTH",
"1015 62 OFFCURVE",
"1074 -20 OFFCURVE",
"1201 -20 CURVE SMOOTH"
);
},
{
closed = 1;
nodes = (
"783 722 LINE",
"795 726 LINE",
"919 726 LINE SMOOTH",
"1191 726 OFFCURVE",
"1379 853 OFFCURVE",
"1379 1111 CURVE SMOOTH",
"1379 1369 OFFCURVE",
"1191 1500 OFFCURVE",
"919 1500 CURVE SMOOTH",
"347 1500 LINE",
"347 1462 LINE",
"907 1462 LINE SMOOTH",
"1167 1462 OFFCURVE",
"1331 1344 OFFCURVE",
"1331 1111 CURVE SMOOTH",
"1331 878 OFFCURVE",
"1167 760 OFFCURVE",
"907 760 CURVE SMOOTH",
"347 760 LINE",
"347 722 LINE"
);
}
);
width = 1533;
},
{
anchors = (
{
name = bottom;
position = "{868, 0}";
},
{
name = top;
position = "{856, 1500}";
}
);
hints = (
{
origin = "{0, 3}";
scale = "{1.1, 1}";
type = Corner;
name = _corner.Serif;
options = 1;
},
{
origin = "{0, 0}";
scale = "{-1, 1}";
type = Corner;
name = _corner.Serif;
},
{
origin = "{0, 2}";
scale = "{-1.08, 1}";
type = Corner;
name = _corner.Serif;
}
);
layerId = "219068EA-2B9B-40DC-949E-B60449C01B8A";
paths = (
{
closed = 1;
nodes = (
"647 0 LINE",
"647 1508 LINE",
"227 1508 LINE",
"227 0 LINE"
);
},
{
closed = 1;
nodes = (
"1572 -22 OFFCURVE",
"1685 133 OFFCURVE",
"1685 362 CURVE SMOOTH",
"1685 607 LINE",
"1453 607 LINE",
"1453 318 LINE SMOOTH",
"1453 263 OFFCURVE",
"1433 230 OFFCURVE",
"1379 230 CURVE SMOOTH",
"1325 230 OFFCURVE",
"1305 263 OFFCURVE",
"1305 318 CURVE SMOOTH",
"1305 371 LINE SMOOTH",
"1305 582 OFFCURVE",
"1221 706 OFFCURVE",
"987 706 CURVE SMOOTH",
"647 706 LINE",
"647 650 LINE",
"704 650 LINE SMOOTH",
"830 650 OFFCURVE",
"895 611 OFFCURVE",
"895 463 CURVE SMOOTH",
"895 370 LINE SMOOTH",
"895 133 OFFCURVE",
"1029 -22 OFFCURVE",
"1303 -22 CURVE SMOOTH"
);
},
{
closed = 1;
nodes = (
"906 650 LINE",
"960 690 LINE",
"1099 690 LINE SMOOTH",
"1418 690 OFFCURVE",
"1630 827 OFFCURVE",
"1630 1096 CURVE SMOOTH",
"1630 1369 OFFCURVE",
"1414 1508 OFFCURVE",
"1089 1508 CURVE SMOOTH",
"647 1508 LINE",
"647 1284 LINE",
"949 1284 LINE SMOOTH",
"1104 1284 OFFCURVE",
"1200 1217 OFFCURVE",
"1200 1079 CURVE SMOOTH",
"1200 941 OFFCURVE",
"1104 874 OFFCURVE",
"949 874 CURVE SMOOTH",
"647 874 LINE",
"647 650 LINE"
);
}
);
width = 1737;
},
{
anchors = (
{
name = bottom;
position = "{836, 0}";
},
{
name = top;
position = "{812, 1500}";
}
);
hints = (
{
origin = "{0, 3}";
scale = "{1.1, 1}";
type = Corner;
name = _corner.Serif;
options = 1;
},
{
origin = "{0, 0}";
scale = "{-0.96, 1}";
type = Corner;
name = _corner.Serif;
},
{
origin = "{0, 2}";
scale = "{-1.08, 1}";
type = Corner;
name = _corner.Serif;
}
);
layerId = "0C29AA02-E021-4BD1-A2C4-87F681D64C35";
paths = (
{
closed = 1;
nodes = (
"650 0 LINE",
"650 1500 LINE",
"230 1500 LINE",
"230 0 LINE"
);
},
{
closed = 1;
nodes = (
"1510 -26 OFFCURVE",
"1596 121 OFFCURVE",
"1596 342 CURVE SMOOTH",
"1596 673 LINE",
"1392 673 LINE",
"1392 336 LINE SMOOTH",
"1392 275 OFFCURVE",
"1366 248 OFFCURVE",
"1322 248 CURVE SMOOTH",
"1281 248 OFFCURVE",
"1252 275 OFFCURVE",
"1252 336 CURVE SMOOTH",
"1252 367 LINE SMOOTH",
"1252 620 OFFCURVE",
"1131 710 OFFCURVE",
"888 710 CURVE SMOOTH",
"650 710 LINE",
"650 658 LINE",
"677 658 LINE SMOOTH",
"801 658 OFFCURVE",
"861 609 OFFCURVE",
"872 473 CURVE SMOOTH",
"880 370 LINE SMOOTH",
"898 136 OFFCURVE",
"1013 -26 OFFCURVE",
"1253 -26 CURVE SMOOTH"
);
},
{
closed = 1;
nodes = (
"817 658 LINE",
"874 708 LINE",
"1042 708 LINE SMOOTH",
"1361 708 OFFCURVE",
"1573 839 OFFCURVE",
"1573 1096 CURVE SMOOTH",
"1573 1364 OFFCURVE",
"1361 1500 OFFCURVE",
"1042 1500 CURVE SMOOTH",
"650 1500 LINE",
"650 1300 LINE",
"888 1300 LINE SMOOTH",
"1045 1300 OFFCURVE",
"1143 1227 OFFCURVE",
"1143 1079 CURVE SMOOTH",
"1143 931 OFFCURVE",
"1045 858 OFFCURVE",
"888 858 CURVE SMOOTH",
"650 858 LINE",
"650 658 LINE"
);
}
);
width = 1680;
}
);
leftKerningGroup = I;
leftMetricsKey = H;
rightKerningGroup = R;
unicode = 0052;
},
{
color = 8;
glyphname = S;
lastChange = "2021-05-03 10:13:30 +0000";
layers = (
{
anchors = (
{
name = bottom;
position = "{809, 0}";
},
{
name = top;
position = "{736, 1500}";
}
);
layerId = "CA54B7DC-FBBB-40FE-ACF3-AABDD76D6A7B";
paths = (
{
closed = 1;
nodes = (
"1179 -24 OFFCURVE",
"1368 106 OFFCURVE",
"1368 371 CURVE SMOOTH",
"1368 638 OFFCURVE",
"1160 742 OFFCURVE",
"874 779 CURVE SMOOTH",
"658 807 LINE SMOOTH",
"407 840 OFFCURVE",
"224 922 OFFCURVE",
"224 1149 CURVE SMOOTH",
"224 1367 OFFCURVE",
"380 1480 OFFCURVE",
"668 1480 CURVE SMOOTH",
"943 1480 OFFCURVE",
"1179 1351 OFFCURVE",
"1280 1050 CURVE",
"1315 1050 LINE",
"1237 1391 OFFCURVE",
"959 1524 OFFCURVE",
"668 1524 CURVE SMOOTH",
"366 1524 OFFCURVE",
"176 1406 OFFCURVE",
"176 1149 CURVE SMOOTH",
"176 890 OFFCURVE",
"381 795 OFFCURVE",
"650 760 CURVE SMOOTH",
"866 732 LINE SMOOTH",
"1118 699 OFFCURVE",
"1320 614 OFFCURVE",
"1320 371 CURVE SMOOTH",
"1320 145 OFFCURVE",
"1161 20 OFFCURVE",
"870 20 CURVE SMOOTH",
"580 20 OFFCURVE",
"323 162 OFFCURVE",
"210 470 CURVE",
"172 470 LINE",
"271 124 OFFCURVE",
"560 -24 OFFCURVE",
"870 -24 CURVE SMOOTH"
);
},
{
closed = 1;
nodes = (
"208 0 LINE",
"208 392 LINE",
"172 470 LINE",
"164 470 LINE",
"164 0 LINE"
);
},
{
closed = 1;
nodes = (
"1326 1050 LINE",
"1326 1500 LINE",
"1282 1500 LINE",
"1282 1124 LINE",
"1315 1050 LINE"
);
}
);
width = 1516;
},
{
anchors = (
{
name = bottom;
position = "{798, 0}";
},
{
name = top;
position = "{722, 1500}";
}
);
layerId = "1E61A082-F045-49A7-AB52-DD1B03FD9B54";
paths = (
{
closed = 1;
nodes = (
"1137 -24 OFFCURVE",
"1320 106 OFFCURVE",
"1320 371 CURVE SMOOTH",
"1320 638 OFFCURVE",
"1126 724 OFFCURVE",
"862 772 CURVE SMOOTH",
"654 810 LINE SMOOTH",
"425 852 OFFCURVE",
"256 922 OFFCURVE",
"256 1149 CURVE SMOOTH",
"256 1370 OFFCURVE",
"408 1484 OFFCURVE",
"670 1484 CURVE SMOOTH",
"926 1484 OFFCURVE",
"1140 1336 OFFCURVE",
"1234 990 CURVE",
"1267 990 LINE",
"1190 1374 OFFCURVE",
"942 1524 OFFCURVE",
"670 1524 CURVE SMOOTH",
"392 1524 OFFCURVE",
"208 1406 OFFCURVE",
"208 1149 CURVE SMOOTH",
"208 890 OFFCURVE",
"399 812 OFFCURVE",
"646 767 CURVE SMOOTH",
"854 729 LINE SMOOTH",
"1084 687 OFFCURVE",
"1272 614 OFFCURVE",
"1272 371 CURVE SMOOTH",
"1272 142 OFFCURVE",
"1117 16 OFFCURVE",
"852 16 CURVE SMOOTH",
"580 16 OFFCURVE",
"347 178 OFFCURVE",
"240 530 CURVE",
"206 530 LINE",
"300 139 OFFCURVE",
"560 -24 OFFCURVE",
"852 -24 CURVE SMOOTH"
);
},
{
closed = 1;
nodes = (
"236 0 LINE",
"236 452 LINE",
"206 530 LINE",
"196 530 LINE",
"196 0 LINE"
);
},
{
closed = 1;
nodes = (
"1278 990 LINE",
"1278 1500 LINE",
"1238 1500 LINE",
"1238 1064 LINE",
"1267 990 LINE"
);
}
);
width = 1494;
},
{
anchors = (
{
name = bottom;
position = "{835, 0}";
},
{
name = top;
position = "{757, 1500}";
}
);
layerId = "219068EA-2B9B-40DC-949E-B60449C01B8A";
paths = (
{
closed = 1;
nodes = (
"1271 -32 OFFCURVE",
"1504 131 OFFCURVE",
"1504 451 CURVE SMOOTH",
"1504 774 OFFCURVE",
"1222 896 OFFCURVE",
"844 955 CURVE SMOOTH",
"704 977 LINE SMOOTH",
"580 996 OFFCURVE",
"484 1041 OFFCURVE",
"484 1141 CURVE SMOOTH",
"484 1243 OFFCURVE",
"568 1292 OFFCURVE",
"711 1292 CURVE SMOOTH",
"912 1292 OFFCURVE",
"1100 1205 OFFCURVE",
"1178 1041 CURVE",
"1309 1041 LINE",
"1214 1406 OFFCURVE",
"964 1532 OFFCURVE",
"652 1532 CURVE SMOOTH",
"336 1532 OFFCURVE",
"86 1387 OFFCURVE",
"86 1071 CURVE SMOOTH",
"86 755 OFFCURVE",
"363 609 OFFCURVE",
"726 552 CURVE SMOOTH",
"866 530 LINE SMOOTH",
"994 510 OFFCURVE",
"1100 478 OFFCURVE",
"1100 367 CURVE SMOOTH",
"1100 256 OFFCURVE",
"1019 208 OFFCURVE",
"875 208 CURVE SMOOTH",
"644 208 OFFCURVE",
"447 302 OFFCURVE",
"364 480 CURVE",
"215 480 LINE",
"307 109 OFFCURVE",
"584 -32 OFFCURVE",
"931 -32 CURVE SMOOTH"
);
},
{
closed = 1;
nodes = (
"360 0 LINE",
"360 287 LINE",
"215 480 LINE",
"116 480 LINE",
"116 0 LINE"
);
},
{
closed = 1;
nodes = (
"1426 1041 LINE",
"1426 1500 LINE",
"1182 1500 LINE",
"1182 1275 LINE",
"1309 1041 LINE"
);
}
);
width = 1566;
},
{
anchors = (
{
name = bottom;
position = "{807, 0}";
},
{
name = top;
position = "{691, 1500}";
}
);
layerId = "0C29AA02-E021-4BD1-A2C4-87F681D64C35";
paths = (
{
closed = 1;
nodes = (
"1204 -32 OFFCURVE",
"1416 131 OFFCURVE",
"1416 451 CURVE SMOOTH",
"1416 774 OFFCURVE",
"1154 899 OFFCURVE",
"800 955 CURVE SMOOTH",
"660 977 LINE SMOOTH",
"540 996 OFFCURVE",
"450 1055 OFFCURVE",
"450 1163 CURVE SMOOTH",
"450 1272 OFFCURVE",
"530 1334 OFFCURVE",
"667 1334 CURVE SMOOTH",
"870 1334 OFFCURVE",
"1059 1202 OFFCURVE",
"1138 981 CURVE",
"1223 981 LINE",
"1165 1379 OFFCURVE",
"908 1532 OFFCURVE",
"608 1532 CURVE SMOOTH",
"306 1532 OFFCURVE",
"86 1387 OFFCURVE",
"86 1071 CURVE SMOOTH",
"86 755 OFFCURVE",
"344 605 OFFCURVE",
"682 552 CURVE SMOOTH",
"822 530 LINE SMOOTH",
"945 511 OFFCURVE",
"1046 463 OFFCURVE",
"1046 347 CURVE SMOOTH",
"1046 233 OFFCURVE",
"969 170 OFFCURVE",
"831 170 CURVE SMOOTH",
"598 170 OFFCURVE",
"400 307 OFFCURVE",
"316 540 CURVE",
"229 540 LINE",
"273 125 OFFCURVE",
"552 -32 OFFCURVE",
"879 -32 CURVE SMOOTH"
);
},
{
closed = 1;
nodes = (
"334 0 LINE",
"334 387 LINE",
"229 540 LINE",
"118 540 LINE",
"118 0 LINE"
);
},
{
closed = 1;
nodes = (
"1336 981 LINE",
"1336 1500 LINE",
"1120 1500 LINE",
"1120 1115 LINE",
"1223 981 LINE"
);
}
);
width = 1480;
}
);
leftKerningGroup = S;
rightKerningGroup = S;
unicode = 0053;
},
{
color = 8;
glyphname = T;
lastChange = "2021-05-03 08:45:35 +0000";
layers = (
{
anchors = (
{
name = bottom;
position = "{826, 0}";
},
{
name = center;
position = "{826, 730}";
},
{
name = top;
position = "{826, 1500}";
}
);
hints = (
{
origin = "{0, 3}";
scale = "{1.4, 1}";
type = Corner;
name = _corner.Serif;
},
{
origin = "{0, 0}";
scale = "{-1.4, 1}";
type = Corner;
name = _corner.Serif;
options = 1;
}
);
layerId = "CA54B7DC-FBBB-40FE-ACF3-AABDD76D6A7B";
paths = (
{
closed = 1;
nodes = (
"850 0 LINE",
"850 1500 LINE",
"802 1500 LINE",
"802 0 LINE"
);
},
{
closed = 1;
nodes = (
"156 1040 LINE",
"156 1326 LINE SMOOTH",
"156 1430 OFFCURVE",
"182 1456 OFFCURVE",
"282 1456 CURVE",
"112 1456 LINE",
"112 1040 LINE"
);
},
{
closed = 1;
nodes = (
"1540 1456 LINE",
"1540 1500 LINE",
"112 1500 LINE",
"112 1456 LINE"
);
},
{
closed = 1;
nodes = (
"1540 1040 LINE",
"1540 1456 LINE",
"1370 1456 LINE",
"1470 1456 OFFCURVE",
"1496 1430 OFFCURVE",
"1496 1326 CURVE SMOOTH",
"1496 1040 LINE"
);
}
);
width = 1652;
},
{
anchors = (
{
name = bottom;
position = "{800, 0}";
},
{
name = center;
position = "{800, 730}";
},
{
name = top;
position = "{800, 1500}";
}
);
hints = (
{
origin = "{0, 3}";
scale = "{1.6, 1}";
type = Corner;
name = _corner.Serif;
},
{
origin = "{0, 0}";
scale = "{-1.6, 1}";
type = Corner;
name = _corner.Serif;
options = 1;
}
);
layerId = "1E61A082-F045-49A7-AB52-DD1B03FD9B54";
paths = (
{
closed = 1;
nodes = (
"824 0 LINE",
"824 1500 LINE",
"776 1500 LINE",
"776 0 LINE"
);
},
{
closed = 1;
nodes = (
"156 980 LINE",
"156 1332 LINE SMOOTH",
"156 1436 OFFCURVE",
"182 1462 OFFCURVE",
"282 1462 CURVE",
"116 1462 LINE",
"116 980 LINE"
);
},
{
closed = 1;
nodes = (
"1484 1462 LINE",
"1484 1500 LINE",
"116 1500 LINE",
"116 1462 LINE"
);
},
{
closed = 1;
nodes = (
"1484 980 LINE",
"1484 1462 LINE",
"1318 1462 LINE",
"1418 1462 OFFCURVE",
"1444 1436 OFFCURVE",
"1444 1332 CURVE SMOOTH",
"1444 980 LINE"
);
}
);
width = 1600;
},
{
anchors = (
{
name = bottom;
position = "{872, 0}";
},
{
name = center;
position = "{872, 710}";
},
{
name = top;
position = "{872, 1500}";
}
);
hints = (
{
origin = "{0, 3}";
scale = "{1.4, 1}";
type = Corner;
name = _corner.Serif;
},
{
origin = "{0, 0}";
scale = "{-1.4, 1}";
type = Corner;
name = _corner.Serif;
options = 1;
}
);
layerId = "219068EA-2B9B-40DC-949E-B60449C01B8A";
paths = (
{
closed = 1;
nodes = (
"1082 0 LINE",
"1082 1500 LINE",
"662 1500 LINE",
"662 0 LINE"
);
},
{
closed = 1;
nodes = (
"300 940 LINE",
"300 1044 LINE SMOOTH",
"300 1214 OFFCURVE",
"360 1284 OFFCURVE",
"520 1284 CURVE",
"68 1284 LINE",
"68 940 LINE"
);
},
{
closed = 1;
nodes = (
"1676 1284 LINE",
"1676 1500 LINE",
"68 1500 LINE",
"68 1284 LINE"
);
},
{
closed = 1;
nodes = (
"1676 940 LINE",
"1676 1284 LINE",
"1224 1284 LINE",
"1384 1284 OFFCURVE",
"1444 1214 OFFCURVE",
"1444 1044 CURVE SMOOTH",
"1444 940 LINE"
);
}
);
width = 1744;
},
{
anchors = (
{
name = bottom;
position = "{822, 0}";
},
{
name = center;
position = "{822, 710}";
},
{
name = top;
position = "{822, 1500}";
}
);
hints = (
{
origin = "{0, 3}";
scale = "{1.8, 1}";
type = Corner;
name = _corner.Serif;
},
{
origin = "{0, 0}";
scale = "{-1.8, 1}";
type = Corner;
name = _corner.Serif;
options = 1;
}
);
layerId = "0C29AA02-E021-4BD1-A2C4-87F681D64C35";
paths = (
{
closed = 1;
nodes = (
"1032 0 LINE",
"1032 1500 LINE",
"612 1500 LINE",
"612 0 LINE"
);
},
{
closed = 1;
nodes = (
"280 920 LINE",
"280 1062 LINE SMOOTH",
"280 1232 OFFCURVE",
"340 1302 OFFCURVE",
"500 1302 CURVE",
"82 1302 LINE",
"82 920 LINE"
);
},
{
closed = 1;
nodes = (
"1562 1302 LINE",
"1562 1500 LINE",
"82 1500 LINE",
"82 1302 LINE"
);
},
{
closed = 1;
nodes = (
"1562 920 LINE",
"1562 1302 LINE",
"1144 1302 LINE",
"1304 1302 OFFCURVE",
"1364 1232 OFFCURVE",
"1364 1062 CURVE SMOOTH",
"1364 920 LINE"
);
}
);
width = 1644;
}
);
leftKerningGroup = T;
rightKerningGroup = T;
unicode = 0054;
},
{
color = 8;
glyphname = U;
lastChange = "2021-05-03 08:45:35 +0000";
layers = (
{
anchors = (
{
name = bottom;
position = "{901, 0}";
},
{
name = ogonek;
position = "{1214, 0}";
},
{
name = top;
position = "{912, 1500}";
},
{
name = topright;
position = "{1513, 1500}";
}
);
hints = (
{
origin = "{0, 3}";
scale = "{1.08, 1}";
type = Corner;
name = _corner.Serif;
},
{
origin = "{0, 4}";
scale = "{-1.18, 1}";
type = Corner;
name = _corner.Serif;
options = 1;
},
{
origin = "{0, 12}";
scale = "{1.18, 1}";
type = Corner;
name = _corner.Serif;
options = 1;
},
{
origin = "{0, 13}";
scale = "{-1.08, 1}";
type = Corner;
name = _corner.Serif;
}
);
layerId = "CA54B7DC-FBBB-40FE-ACF3-AABDD76D6A7B";
leftMetricsKey = "=H-16";
rightMetricsKey = "=H-16";
paths = (
{
closed = 1;
nodes = (
"1307 -24 OFFCURVE",
"1513 207 OFFCURVE",
"1513 614 CURVE SMOOTH",
"1513 1500 LINE",
"1469 1500 LINE",
"1469 614 LINE SMOOTH",
"1469 250 OFFCURVE",
"1289 20 OFFCURVE",
"903 20 CURVE SMOOTH",
"517 20 OFFCURVE",
"337 250 OFFCURVE",
"337 614 CURVE SMOOTH",
"337 1500 LINE",
"289 1500 LINE",
"289 614 LINE SMOOTH",
"289 207 OFFCURVE",
"495 -24 OFFCURVE",
"901 -24 CURVE SMOOTH"
);
}
);
width = 1802;
},
{
anchors = (
{
name = bottom;
position = "{854, 0}";
},
{
name = ogonek;
position = "{1158, 0}";
},
{
name = top;
position = "{860, 1500}";
},
{
name = topright;
position = "{1430, 1500}";
}
);
hints = (
{
origin = "{0, 3}";
scale = "{1.08, 1}";
type = Corner;
name = _corner.Serif;
},
{
origin = "{0, 4}";
scale = "{-1.18, 1}";
type = Corner;
name = _corner.Serif;
options = 1;
},
{
origin = "{0, 12}";
scale = "{1.18, 1}";
type = Corner;
name = _corner.Serif;
options = 1;
},
{
origin = "{0, 13}";
scale = "{-1.08, 1}";
type = Corner;
name = _corner.Serif;
}
);
layerId = "1E61A082-F045-49A7-AB52-DD1B03FD9B54";
leftMetricsKey = "=H-16";
rightMetricsKey = "=H-16";
paths = (
{
closed = 1;
nodes = (
"1236 -24 OFFCURVE",
"1430 192 OFFCURVE",
"1430 574 CURVE SMOOTH",
"1430 1500 LINE",
"1390 1500 LINE",
"1390 574 LINE SMOOTH",
"1390 230 OFFCURVE",
"1221 14 OFFCURVE",
"858 14 CURVE SMOOTH",
"495 14 OFFCURVE",
"326 230 OFFCURVE",
"326 574 CURVE SMOOTH",
"326 1500 LINE",
"278 1500 LINE",
"278 574 LINE SMOOTH",
"278 192 OFFCURVE",
"472 -24 OFFCURVE",
"854 -24 CURVE SMOOTH"
);
}
);
width = 1708;
},
{
anchors = (
{
name = bottom;
position = "{918, 0}";
},
{
name = ogonek;
position = "{1264, 0}";
},
{
name = top;
position = "{975, 1500}";
},
{
name = topright;
position = "{1622, 1500}";
}
);
hints = (
{
origin = "{0, 3}";
scale = "{1.08, 1}";
type = Corner;
name = _corner.Serif;
},
{
origin = "{0, 4}";
scale = "{-1.18, 1}";
type = Corner;
name = _corner.Serif;
options = 1;
},
{
origin = "{0, 12}";
scale = "{1.18, 1}";
type = Corner;
name = _corner.Serif;
options = 1;
},
{
origin = "{0, 13}";
scale = "{-1.08, 1}";
type = Corner;
name = _corner.Serif;
}
);
layerId = "219068EA-2B9B-40DC-949E-B60449C01B8A";
leftMetricsKey = "=H-10";
rightMetricsKey = "=H-10";
paths = (
{
closed = 1;
nodes = (
"1381 -22 OFFCURVE",
"1622 214 OFFCURVE",
"1622 628 CURVE SMOOTH",
"1622 1500 LINE",
"1302 1500 LINE",
"1302 586 LINE SMOOTH",
"1302 363 OFFCURVE",
"1202 229 OFFCURVE",
"972 229 CURVE SMOOTH",
"742 229 OFFCURVE",
"642 363 OFFCURVE",
"642 586 CURVE SMOOTH",
"642 1500 LINE",
"214 1500 LINE",
"214 628 LINE SMOOTH",
"214 214 OFFCURVE",
"455 -22 OFFCURVE",
"918 -22 CURVE SMOOTH"
);
}
);
width = 1836;
},
{
anchors = (
{
name = bottom;
position = "{872, 0}";
},
{
name = ogonek;
position = "{1207, 0}";
},
{
name = top;
position = "{937, 1500}";
},
{
name = topright;
position = "{1526, 1501}";
}
);
hints = (
{
origin = "{0, 3}";
type = Corner;
name = _corner.Serif;
},
{
origin = "{0, 4}";
scale = "{-1.18, 1}";
type = Corner;
name = _corner.Serif;
options = 1;
},
{
origin = "{0, 12}";
scale = "{1.18, 1}";
type = Corner;
name = _corner.Serif;
options = 1;
},
{
origin = "{0, 13}";
scale = "{-1, 1}";
type = Corner;
name = _corner.Serif;
}
);
layerId = "0C29AA02-E021-4BD1-A2C4-87F681D64C35";
leftMetricsKey = "=H-6";
rightMetricsKey = "=H-6";
paths = (
{
closed = 1;
nodes = (
"1309 -22 OFFCURVE",
"1536 196 OFFCURVE",
"1536 578 CURVE SMOOTH",
"1536 1500 LINE",
"1264 1500 LINE",
"1264 498 LINE SMOOTH",
"1264 300 OFFCURVE",
"1162 181 OFFCURVE",
"949 181 CURVE SMOOTH",
"736 181 OFFCURVE",
"634 300 OFFCURVE",
"634 498 CURVE SMOOTH",
"634 1500 LINE",
"208 1500 LINE",
"208 578 LINE SMOOTH",
"208 196 OFFCURVE",
"435 -22 OFFCURVE",
"872 -22 CURVE SMOOTH"
);
}
);
width = 1744;
}
);
leftKerningGroup = U;
leftMetricsKey = H;
rightKerningGroup = U;
rightMetricsKey = H;
unicode = 0055;
},
{
color = 8;
glyphname = V;
lastChange = "2021-05-03 08:45:35 +0000";
layers = (
{
anchors = (
{
name = bottom;
position = "{841, 0}";
},
{
name = top;
position = "{841, 1500}";
}
);
hints = (
{
origin = "{0, 2}";
scale = "{-1.28, 1}";
type = Corner;
name = _corner.Serif;
options = 1;
},
{
origin = "{0, 5}";
scale = "{1.28, 1}";
type = Corner;
name = _corner.Serif;
},
{
origin = "{0, 6}";
scale = "{-0.74, 1}";
type = Corner;
name = _corner.Serif;
options = 1;
},
{
origin = "{0, 1}";
scale = "{0.74, 1}";
type = Corner;
name = _corner.Serif;
}
);
layerId = "CA54B7DC-FBBB-40FE-ACF3-AABDD76D6A7B";
paths = (
{
closed = 1;
nodes = (
"860 0 LINE",
"1502 1500 LINE",
"1454 1500 LINE",
"835 47 LINE",
"852 47 LINE",
"232 1500 LINE",
"180 1500 LINE",
"822 0 LINE"
);
}
);
width = 1682;
},
{
anchors = (
{
name = bottom;
position = "{823, 0}";
},
{
name = top;
position = "{823, 1500}";
}
);
hints = (
{
origin = "{0, 2}";
scale = "{-1.28, 1}";
type = Corner;
name = _corner.Serif;
options = 1;
},
{
origin = "{0, 5}";
scale = "{1.28, 1}";
type = Corner;
name = _corner.Serif;
},
{
origin = "{0, 6}";
scale = "{-0.74, 1}";
type = Corner;
name = _corner.Serif;
options = 1;
},
{
origin = "{0, 1}";
scale = "{0.74, 1}";
type = Corner;
name = _corner.Serif;
}
);
layerId = "1E61A082-F045-49A7-AB52-DD1B03FD9B54";
paths = (
{
closed = 1;
nodes = (
"841 0 LINE",
"1453 1500 LINE",
"1410 1500 LINE",
"819 47 LINE",
"836 47 LINE",
"245 1500 LINE",
"193 1500 LINE",
"805 0 LINE"
);
}
);
width = 1646;
},
{
anchors = (
{
name = bottom;
position = "{912, 0}";
},
{
name = top;
position = "{912, 1500}";
}
);
hints = (
{
origin = "{0, 2}";
scale = "{-1.7, 1}";
type = Corner;
name = _corner.Serif;
options = 1;
},
{
origin = "{0, 5}";
scale = "{1.7, 1}";
type = Corner;
name = _corner.Serif;
},
{
origin = "{0, 6}";
scale = "{-0.6, 1}";
type = Corner;
name = _corner.Serif;
options = 1;
},
{
origin = "{0, 1}";
scale = "{0.6, 1}";
type = Corner;
name = _corner.Serif;
}
);
layerId = "219068EA-2B9B-40DC-949E-B60449C01B8A";
paths = (
{
closed = 1;
nodes = (
"1106 0 LINE",
"1742 1500 LINE",
"1460 1500 LINE",
"929 231 LINE",
"1060 230 LINE",
"543 1500 LINE",
"82 1500 LINE",
"718 0 LINE"
);
}
);
width = 1824;
},
{
anchors = (
{
name = bottom;
position = "{903, 0}";
},
{
name = top;
position = "{903, 1500}";
}
);
hints = (
{
origin = "{0, 2}";
scale = "{-1.7, 1}";
type = Corner;
name = _corner.Serif;
options = 1;
},
{
origin = "{0, 5}";
scale = "{1.7, 1}";
type = Corner;
name = _corner.Serif;
},
{
origin = "{0, 6}";
scale = "{-0.6, 1}";
type = Corner;
name = _corner.Serif;
options = 1;
},
{
origin = "{0, 1}";
scale = "{0.6, 1}";
type = Corner;
name = _corner.Serif;
}
);
layerId = "0C29AA02-E021-4BD1-A2C4-87F681D64C35";
paths = (
{
closed = 1;
nodes = (
"1077 -6 LINE",
"1693 1500 LINE",
"1451 1500 LINE",
"935 225 LINE",
"1074 224 LINE",
"568 1500 LINE",
"112 1500 LINE",
"728 -6 LINE"
);
}
);
width = 1805;
}
);
leftKerningGroup = V;
leftMetricsKey = A;
rightKerningGroup = V;
rightMetricsKey = A;
unicode = 0056;
},
{
color = 8;
glyphname = W;
lastChange = "2021-05-03 08:45:35 +0000";
layers = (
{
anchors = (
{
name = bottom;
position = "{1103, 0}";
},
{
name = top;
position = "{1103, 1500}";
}
);
hints = (
{
origin = "{0, 2}";
scale = "{-1.28, 1}";
type = Corner;
name = _corner.Serif;
options = 1;
},
{
origin = "{0, 5}";
scale = "{1.28, 1}";
type = Corner;
name = _corner.Serif;
},
{
origin = "{0, 6}";
scale = "{-0.74, 1}";
type = Corner;
name = _corner.Serif;
options = 1;
},
{
origin = "{0, 1}";
scale = "{0.74, 1}";
type = Corner;
name = _corner.Serif;
},
{
origin = "{1, 5}";
scale = "{1.28, 1}";
type = Corner;
name = _corner.Serif;
},
{
origin = "{1, 6}";
scale = "{-0.74, 1}";
type = Corner;
name = _corner.Serif;
options = 1;
}
);
layerId = "CA54B7DC-FBBB-40FE-ACF3-AABDD76D6A7B";
paths = (
{
closed = 1;
nodes = (
"1528 0 LINE",
"2028 1500 LINE",
"1982 1500 LINE",
"1500 47 LINE",
"1519 47 LINE",
"1037 1500 LINE",
"986 1500 LINE",
"1486 0 LINE"
);
},
{
closed = 1;
nodes = (
"724 0 LINE",
"1120 1187 LINE",
"1096 1252 LINE",
"696 47 LINE",
"715 47 LINE",
"233 1500 LINE",
"182 1500 LINE",
"682 0 LINE"
);
}
);
width = 2210;
},
{
anchors = (
{
name = bottom;
position = "{1115, 0}";
},
{
name = top;
position = "{1115, 1500}";
}
);
hints = (
{
origin = "{0, 2}";
scale = "{-1.28, 1}";
type = Corner;
name = _corner.Serif;
options = 1;
},
{
origin = "{0, 5}";
scale = "{1.28, 1}";
type = Corner;
name = _corner.Serif;
},
{
origin = "{0, 6}";
scale = "{-0.74, 1}";
type = Corner;
name = _corner.Serif;
options = 1;
},
{
origin = "{0, 1}";
scale = "{0.74, 1}";
type = Corner;
name = _corner.Serif;
},
{
origin = "{1, 5}";
scale = "{1.28, 1}";
type = Corner;
name = _corner.Serif;
},
{
origin = "{1, 6}";
scale = "{-0.74, 1}";
type = Corner;
name = _corner.Serif;
options = 1;
}
);
layerId = "1E61A082-F045-49A7-AB52-DD1B03FD9B54";
paths = (
{
closed = 1;
nodes = (
"1536 0 LINE",
"2036 1500 LINE",
"1994 1500 LINE",
"1512 47 LINE",
"1531 47 LINE",
"1049 1500 LINE",
"998 1500 LINE",
"1498 0 LINE"
);
},
{
closed = 1;
nodes = (
"732 0 LINE",
"1128 1187 LINE",
"1108 1252 LINE",
"708 47 LINE",
"727 47 LINE",
"245 1500 LINE",
"194 1500 LINE",
"694 0 LINE"
);
}
);
width = 2230;
},
{
anchors = (
{
name = bottom;
position = "{1271, 0}";
},
{
name = top;
position = "{1306, 1500}";
}
);
hints = (
{
origin = "{0, 2}";
scale = "{-1.66, 1}";
type = Corner;
name = _corner.Serif;
options = 1;
},
{
origin = "{0, 5}";
scale = "{1.66, 1}";
type = Corner;
name = _corner.Serif;
},
{
origin = "{0, 6}";
scale = "{-0.64, 1}";
type = Corner;
name = _corner.Serif;
options = 1;
},
{
origin = "{0, 1}";
scale = "{0.6, 1}";
type = Corner;
name = _corner.Serif;
},
{
origin = "{1, 5}";
scale = "{1.26, 1}";
type = Corner;
name = _corner.Serif;
},
{
origin = "{1, 6}";
scale = "{-0.5, 1}";
type = Corner;
name = _corner.Serif;
options = 1;
}
);
layerId = "219068EA-2B9B-40DC-949E-B60449C01B8A";
paths = (
{
closed = 1;
nodes = (
"1908 0 LINE",
"2454 1500 LINE",
"2182 1500 LINE",
"1722 231 LINE",
"1862 230 LINE",
"1408 1500 LINE",
"990 1500 LINE",
"1536 0 LINE"
);
},
{
closed = 1;
nodes = (
"1004 0 LINE",
"1330 895 LINE",
"1202 1257 LINE",
"830 231 LINE",
"970 230 LINE",
"516 1500 LINE",
"73 1500 LINE",
"619 0 LINE"
);
}
);
width = 2542;
},
{
anchors = (
{
name = bottom;
position = "{1182, 0}";
},
{
name = top;
position = "{1234, 1500}";
}
);
hints = (
{
origin = "{0, 2}";
scale = "{-1.66, 1}";
type = Corner;
name = _corner.Serif;
options = 1;
},
{
origin = "{0, 5}";
scale = "{1.66, 1}";
type = Corner;
name = _corner.Serif;
},
{
origin = "{0, 6}";
scale = "{-0.5, 1}";
type = Corner;
name = _corner.Serif;
options = 1;
},
{
origin = "{0, 1}";
scale = "{0.6, 1}";
type = Corner;
name = _corner.Serif;
},
{
origin = "{1, 5}";
type = Corner;
name = _corner.Serif;
},
{
origin = "{1, 6}";
scale = "{-0.6, 1}";
type = Corner;
name = _corner.Serif;
options = 1;
}
);
layerId = "0C29AA02-E021-4BD1-A2C4-87F681D64C35";
paths = (
{
closed = 1;
nodes = (
"1741 0 LINE",
"2247 1500 LINE",
"2013 1500 LINE",
"1590 231 LINE",
"1742 230 LINE",
"1329 1500 LINE",
"905 1500 LINE",
"1411 0 LINE"
);
},
{
closed = 1;
nodes = (
"953 0 LINE",
"1233 831 LINE",
"1124 1140 LINE",
"821 231 LINE",
"973 230 LINE",
"560 1500 LINE",
"117 1500 LINE",
"623 0 LINE"
);
}
);
width = 2364;
}
);
leftKerningGroup = W;
leftMetricsKey = V;
rightKerningGroup = W;
rightMetricsKey = V;
unicode = 0057;
},
{
color = 8;
glyphname = X;
lastChange = "2021-05-03 08:45:35 +0000";
layers = (
{
anchors = (
{
name = bottom;
position = "{839, 0}";
},
{
name = top;
position = "{839, 1500}";
}
);
hints = (
{
origin = "{1, 1}";
scale = "{0.64, 1}";
type = Corner;
name = _corner.Serif;
},
{
origin = "{1, 2}";
scale = "{-1.38, 1}";
type = Corner;
name = _corner.Serif;
options = 1;
},
{
origin = "{1, 5}";
scale = "{1.38, 1}";
type = Corner;
name = _corner.Serif;
},
{
origin = "{1, 6}";
scale = "{-0.64, 1}";
type = Corner;
name = _corner.Serif;
options = 1;
},
{
origin = "{0, 7}";
scale = "{0.66, 1}";
type = Corner;
name = _corner.Serif;
},
{
origin = "{0, 0}";
scale = "{-1.4, 1}";
type = Corner;
name = _corner.Serif;
options = 1;
},
{
origin = "{0, 3}";
scale = "{1.4, 1}";
type = Corner;
name = _corner.Serif;
},
{
origin = "{0, 4}";
scale = "{-0.66, 1}";
type = Corner;
name = _corner.Serif;
options = 1;
}
);
layerId = "CA54B7DC-FBBB-40FE-ACF3-AABDD76D6A7B";
paths = (
{
closed = 1;
nodes = (
"233 0 LINE",
"853 755 LINE",
"819 755 LINE",
"1439 0 LINE",
"1501 0 LINE",
"849 794 LINE",
"828 794 LINE",
"176 0 LINE"
);
},
{
closed = 1;
nodes = (
"850 738 LINE",
"1476 1500 LINE",
"1419 1500 LINE",
"825 777 LINE",
"859 777 LINE",
"265 1500 LINE",
"203 1500 LINE",
"829 738 LINE"
);
}
);
width = 1677;
},
{
anchors = (
{
name = bottom;
position = "{829, 0}";
},
{
name = top;
position = "{829, 1500}";
}
);
hints = (
{
origin = "{1, 1}";
scale = "{0.64, 1}";
type = Corner;
name = _corner.Serif;
},
{
origin = "{1, 2}";
scale = "{-1.38, 1}";
type = Corner;
name = _corner.Serif;
options = 1;
},
{
origin = "{1, 5}";
scale = "{1.38, 1}";
type = Corner;
name = _corner.Serif;
},
{
origin = "{1, 6}";
scale = "{-0.64, 1}";
type = Corner;
name = _corner.Serif;
options = 1;
},
{
origin = "{0, 0}";
scale = "{-1.4, 1}";
type = Corner;
name = _corner.Serif;
options = 1;
},
{
origin = "{0, 3}";
scale = "{1.4, 1}";
type = Corner;
name = _corner.Serif;
},
{
origin = "{0, 4}";
scale = "{-0.66, 1}";
type = Corner;
name = _corner.Serif;
options = 1;
},
{
origin = "{0, 7}";
scale = "{0.66, 1}";
type = Corner;
name = _corner.Serif;
}
);
layerId = "1E61A082-F045-49A7-AB52-DD1B03FD9B54";
paths = (
{
closed = 1;
nodes = (
"250 0 LINE",
"842 755 LINE",
"808 755 LINE",
"1399 0 LINE",
"1460 0 LINE",
"838 794 LINE",
"819 794 LINE",
"197 0 LINE"
);
},
{
closed = 1;
nodes = (
"838 738 LINE",
"1435 1500 LINE",
"1382 1500 LINE",
"815 777 LINE",
"849 777 LINE",
"283 1500 LINE",
"222 1500 LINE",
"819 738 LINE"
);
}
);
width = 1657;
},
{
anchors = (
{
name = bottom;
position = "{894, 0}";
},
{
name = top;
position = "{894, 1500}";
}
);
hints = (
{
origin = "{1, 1}";
scale = "{0.28, 1}";
type = Corner;
name = _corner.Serif;
},
{
origin = "{1, 2}";
scale = "{-1.72, 1}";
type = Corner;
name = _corner.Serif;
options = 1;
},
{
origin = "{1, 5}";
scale = "{1.72, 1}";
type = Corner;
name = _corner.Serif;
},
{
origin = "{1, 6}";
scale = "{-0.28, 1}";
type = Corner;
name = _corner.Serif;
options = 1;
},
{
origin = "{0, 7}";
scale = "{0.3, 1}";
type = Corner;
name = _corner.Serif;
},
{
origin = "{0, 0}";
scale = "{-1.8, 1}";
type = Corner;
name = _corner.Serif;
options = 1;
},
{
origin = "{0, 3}";
scale = "{1.8, 1}";
type = Corner;
name = _corner.Serif;
},
{
origin = "{0, 4}";
scale = "{-0.3, 1}";
type = Corner;
name = _corner.Serif;
options = 1;
}
);
layerId = "219068EA-2B9B-40DC-949E-B60449C01B8A";
paths = (
{
closed = 1;
nodes = (
"364 0 LINE",
"886 630 LINE",
"746 630 LINE",
"1237 0 LINE",
"1770 0 LINE",
"1086 853 LINE",
"742 853 LINE",
"31 0 LINE"
);
},
{
closed = 1;
nodes = (
"1034 677 LINE",
"1720 1500 LINE",
"1388 1500 LINE",
"890 900 LINE",
"1030 900 LINE",
"562 1500 LINE",
"30 1500 LINE",
"690 677 LINE"
);
}
);
width = 1787;
},
{
anchors = (
{
name = bottom;
position = "{850, 0}";
},
{
name = top;
position = "{850, 1500}";
}
);
hints = (
{
origin = "{1, 1}";
scale = "{0.28, 1}";
type = Corner;
name = _corner.Serif;
},
{
origin = "{1, 2}";
scale = "{-1.72, 1}";
type = Corner;
name = _corner.Serif;
options = 1;
},
{
origin = "{1, 5}";
scale = "{1.72, 1}";
type = Corner;
name = _corner.Serif;
},
{
origin = "{1, 6}";
scale = "{-0.28, 1}";
type = Corner;
name = _corner.Serif;
options = 1;
},
{
origin = "{0, 0}";
scale = "{-1.8, 1}";
type = Corner;
name = _corner.Serif;
options = 1;
},
{
origin = "{0, 3}";
scale = "{1.8, 1}";
type = Corner;
name = _corner.Serif;
},
{
origin = "{0, 4}";
scale = "{-0.3, 1}";
type = Corner;
name = _corner.Serif;
options = 1;
},
{
origin = "{0, 7}";
scale = "{0.3, 1}";
type = Corner;
name = _corner.Serif;
}
);
layerId = "0C29AA02-E021-4BD1-A2C4-87F681D64C35";
paths = (
{
closed = 1;
nodes = (
"315 0 LINE",
"831 630 LINE",
"697 630 LINE",
"1148 0 LINE",
"1671 0 LINE",
"1031 853 LINE",
"733 853 LINE",
"27 0 LINE"
);
},
{
closed = 1;
nodes = (
"945 677 LINE",
"1626 1500 LINE",
"1339 1500 LINE",
"847 900 LINE",
"982 900 LINE",
"552 1500 LINE",
"30 1500 LINE",
"647 677 LINE"
);
}
);
width = 1700;
}
);
leftKerningGroup = X;
rightKerningGroup = X;
unicode = 0058;
},
{
color = 8;
glyphname = Y;
lastChange = "2021-05-03 08:45:35 +0000";
layers = (
{
anchors = (
{
name = bottom;
position = "{806, 0}";
},
{
name = top;
position = "{806, 1500}";
},
{
name = topleft;
position = "{20, 1500}";
}
);
hints = (
{
origin = "{1, 3}";
scale = "{1.4, 1}";
type = Corner;
name = _corner.Serif;
},
{
origin = "{1, 0}";
scale = "{-1.4, 1}";
type = Corner;
name = _corner.Serif;
options = 1;
},
{
origin = "{0, 2}";
scale = "{-1.38, 1}";
type = Corner;
name = _corner.Serif;
options = 1;
},
{
origin = "{0, 5}";
scale = "{1.38, 1}";
type = Corner;
name = _corner.Serif;
},
{
origin = "{0, 6}";
scale = "{-0.64, 1}";
type = Corner;
name = _corner.Serif;
options = 1;
},
{
origin = "{0, 1}";
scale = "{0.64, 1}";
type = Corner;
name = _corner.Serif;
}
);
layerId = "CA54B7DC-FBBB-40FE-ACF3-AABDD76D6A7B";
leftMetricsKey = "=V-24";
rightMetricsKey = "=V-24";
paths = (
{
closed = 1;
nodes = (
"827 597 LINE",
"1483 1500 LINE",
"1429 1500 LINE",
"802 633 LINE",
"818 633 LINE",
"188 1500 LINE",
"129 1500 LINE",
"785 597 LINE"
);
},
{
closed = 1;
nodes = (
"830 0 LINE",
"830 630 LINE",
"782 630 LINE",
"782 0 LINE"
);
}
);
width = 1612;
},
{
anchors = (
{
name = bottom;
position = "{816, 0}";
},
{
name = top;
position = "{816, 1500}";
},
{
name = topleft;
position = "{20, 1500}";
}
);
hints = (
{
origin = "{1, 3}";
scale = "{1.6, 1}";
type = Corner;
name = _corner.Serif;
},
{
origin = "{1, 0}";
scale = "{-1.6, 1}";
type = Corner;
name = _corner.Serif;
options = 1;
},
{
origin = "{0, 2}";
scale = "{-1.38, 1}";
type = Corner;
name = _corner.Serif;
options = 1;
},
{
origin = "{0, 5}";
scale = "{1.38, 1}";
type = Corner;
name = _corner.Serif;
},
{
origin = "{0, 6}";
scale = "{-0.64, 1}";
type = Corner;
name = _corner.Serif;
options = 1;
},
{
origin = "{0, 1}";
scale = "{0.64, 1}";
type = Corner;
name = _corner.Serif;
}
);
layerId = "1E61A082-F045-49A7-AB52-DD1B03FD9B54";
paths = (
{
closed = 1;
nodes = (
"837 607 LINE",
"1467 1500 LINE",
"1416 1500 LINE",
"813 643 LINE",
"828 643 LINE",
"224 1500 LINE",
"165 1500 LINE",
"795 607 LINE"
);
},
{
closed = 1;
nodes = (
"840 0 LINE",
"840 640 LINE",
"792 640 LINE",
"792 0 LINE"
);
}
);
width = 1632;
},
{
anchors = (
{
name = bottom;
position = "{876, 0}";
},
{
name = top;
position = "{952, 1500}";
},
{
name = topleft;
position = "{21, 1500}";
}
);
hints = (
{
origin = "{1, 3}";
scale = "{1.4, 1}";
type = Corner;
name = _corner.Serif;
},
{
origin = "{1, 0}";
scale = "{-1.4, 1}";
type = Corner;
name = _corner.Serif;
options = 1;
},
{
origin = "{0, 2}";
scale = "{-1.7, 1}";
type = Corner;
name = _corner.Serif;
options = 1;
},
{
origin = "{0, 5}";
scale = "{1.7, 1}";
type = Corner;
name = _corner.Serif;
},
{
origin = "{0, 6}";
scale = "{-0.36, 1}";
type = Corner;
name = _corner.Serif;
options = 1;
},
{
origin = "{0, 1}";
scale = "{0.36, 1}";
type = Corner;
name = _corner.Serif;
}
);
layerId = "219068EA-2B9B-40DC-949E-B60449C01B8A";
paths = (
{
closed = 1;
nodes = (
"1071 528 LINE",
"1731 1500 LINE",
"1426 1500 LINE",
"924 751 LINE",
"1025 751 LINE",
"526 1500 LINE",
"21 1500 LINE",
"681 528 LINE"
);
},
{
closed = 1;
nodes = (
"1086 0 LINE",
"1086 772 LINE",
"666 772 LINE",
"666 0 LINE"
);
}
);
width = 1752;
},
{
anchors = (
{
name = bottom;
position = "{852, 0}";
},
{
name = top;
position = "{942, 1500}";
},
{
name = topleft;
position = "{41, 1500}";
}
);
hints = (
{
origin = "{1, 3}";
scale = "{1.8, 1}";
type = Corner;
name = _corner.Serif;
},
{
origin = "{1, 0}";
scale = "{-1.8, 1}";
type = Corner;
name = _corner.Serif;
options = 1;
},
{
origin = "{0, 2}";
scale = "{-1.7, 1}";
type = Corner;
name = _corner.Serif;
options = 1;
},
{
origin = "{0, 5}";
scale = "{1.7, 1}";
type = Corner;
name = _corner.Serif;
},
{
origin = "{0, 6}";
scale = "{-0.36, 1}";
type = Corner;
name = _corner.Serif;
options = 1;
},
{
origin = "{0, 1}";
scale = "{0.36, 1}";
type = Corner;
name = _corner.Serif;
}
);
layerId = "0C29AA02-E021-4BD1-A2C4-87F681D64C35";
paths = (
{
closed = 1;
nodes = (
"1047 548 LINE",
"1647 1500 LINE",
"1382 1500 LINE",
"931 771 LINE",
"998 771 LINE",
"551 1500 LINE",
"57 1500 LINE",
"657 548 LINE"
);
},
{
closed = 1;
nodes = (
"1062 0 LINE",
"1062 792 LINE",
"642 792 LINE",
"642 0 LINE"
);
}
);
width = 1704;
}
);
leftKerningGroup = Y;
leftMetricsKey = V;
rightKerningGroup = Y;
rightMetricsKey = V;
unicode = 0059;
},
{
color = 8;
glyphname = Z;
lastChange = "2021-05-03 08:45:35 +0000";
layers = (
{
anchors = (
{
name = bottom;
position = "{751, 0}";
},
{
name = center;
position = "{751, 750}";
},
{
name = top;
position = "{751, 1500}";
}
);
layerId = "CA54B7DC-FBBB-40FE-ACF3-AABDD76D6A7B";
paths = (
{
closed = 1;
nodes = (
"197 44 LINE",
"1360 1460 LINE",
"1295 1456 LINE",
"132 40 LINE"
);
},
{
closed = 1;
nodes = (
"1352 0 LINE",
"1352 44 LINE",
"197 44 LINE",
"132 40 LINE",
"132 0 LINE"
);
},
{
closed = 1;
nodes = (
"220 1020 LINE",
"220 1326 LINE SMOOTH",
"220 1430 OFFCURVE",
"246 1456 OFFCURVE",
"346 1456 CURVE",
"176 1456 LINE",
"176 1020 LINE"
);
},
{
closed = 1;
nodes = (
"1352 44 LINE",
"1352 500 LINE",
"1308 500 LINE",
"1308 174 LINE SMOOTH",
"1308 70 OFFCURVE",
"1282 44 OFFCURVE",
"1182 44 CURVE"
);
},
{
closed = 1;
nodes = (
"1295 1456 LINE",
"1360 1460 LINE",
"1360 1500 LINE",
"176 1500 LINE",
"176 1456 LINE"
);
}
);
width = 1502;
},
{
anchors = (
{
name = bottom;
position = "{736, 0}";
},
{
name = center;
position = "{736, 750}";
},
{
name = top;
position = "{736, 1500}";
}
);
layerId = "1E61A082-F045-49A7-AB52-DD1B03FD9B54";
paths = (
{
closed = 1;
nodes = (
"216 38 LINE",
"1320 1466 LINE",
"1256 1462 LINE",
"152 34 LINE"
);
},
{
closed = 1;
nodes = (
"1312 0 LINE",
"1312 38 LINE",
"216 38 LINE",
"152 34 LINE",
"152 0 LINE"
);
},
{
closed = 1;
nodes = (
"236 960 LINE",
"236 1332 LINE SMOOTH",
"236 1436 OFFCURVE",
"262 1462 OFFCURVE",
"362 1462 CURVE",
"196 1462 LINE",
"196 960 LINE"
);
},
{
closed = 1;
nodes = (
"1312 38 LINE",
"1312 560 LINE",
"1272 560 LINE",
"1272 168 LINE SMOOTH",
"1272 64 OFFCURVE",
"1246 38 OFFCURVE",
"1146 38 CURVE"
);
},
{
closed = 1;
nodes = (
"1256 1462 LINE",
"1320 1466 LINE",
"1320 1500 LINE",
"196 1500 LINE",
"196 1462 LINE"
);
}
);
width = 1472;
},
{
anchors = (
{
name = bottom;
position = "{788, 0}";
},
{
name = center;
position = "{788, 750}";
},
{
name = top;
position = "{802, 1500}";
}
);
layerId = "219068EA-2B9B-40DC-949E-B60449C01B8A";
paths = (
{
closed = 1;
nodes = (
"626 218 LINE",
"1491 1296 LINE",
"945 1282 LINE",
"80 204 LINE"
);
},
{
closed = 1;
nodes = (
"1481 0 LINE",
"1481 218 LINE",
"626 218 LINE",
"80 204 LINE",
"80 0 LINE"
);
},
{
closed = 1;
nodes = (
"362 920 LINE",
"362 1042 LINE SMOOTH",
"362 1212 OFFCURVE",
"422 1282 OFFCURVE",
"582 1282 CURVE",
"130 1282 LINE",
"130 920 LINE"
);
},
{
closed = 1;
nodes = (
"1481 218 LINE",
"1481 600 LINE",
"1249 600 LINE",
"1249 458 LINE SMOOTH",
"1249 288 OFFCURVE",
"1189 218 OFFCURVE",
"1029 218 CURVE"
);
},
{
closed = 1;
nodes = (
"945 1282 LINE",
"1491 1296 LINE",
"1491 1500 LINE",
"130 1500 LINE",
"130 1282 LINE"
);
}
);
width = 1575;
},
{
anchors = (
{
name = bottom;
position = "{748, 0}";
},
{
name = center;
position = "{748, 750}";
},
{
name = top;
position = "{766, 1500}";
}
);
layerId = "0C29AA02-E021-4BD1-A2C4-87F681D64C35";
paths = (
{
closed = 1;
nodes = (
"610 200 LINE",
"1399 1314 LINE",
"879 1300 LINE",
"90 186 LINE"
);
},
{
closed = 1;
nodes = (
"1389 0 LINE",
"1389 200 LINE",
"610 200 LINE",
"90 186 LINE",
"90 0 LINE"
);
},
{
closed = 1;
nodes = (
"338 900 LINE",
"338 1060 LINE SMOOTH",
"338 1230 OFFCURVE",
"398 1300 OFFCURVE",
"558 1300 CURVE",
"140 1300 LINE",
"140 900 LINE"
);
},
{
closed = 1;
nodes = (
"1389 200 LINE",
"1389 620 LINE",
"1191 620 LINE",
"1191 440 LINE SMOOTH",
"1191 270 OFFCURVE",
"1131 200 OFFCURVE",
"971 200 CURVE"
);
},
{
closed = 1;
nodes = (
"879 1300 LINE",
"1399 1314 LINE",
"1399 1500 LINE",
"140 1500 LINE",
"140 1300 LINE"
);
}
);
width = 1493;
}
);
leftKerningGroup = Z;
rightKerningGroup = Z;
unicode = 005A;
},
{
color = 8;
glyphname = a;
lastChange = "2021-05-03 10:23:12 +0000";
layers = (
{
anchors = (
{
name = bottom;
position = "{694, 0}";
},
{
name = ogonek;
position = "{1293, 0}";
},
{
name = top;
position = "{618, 1100}";
}
);
layerId = "CA54B7DC-FBBB-40FE-ACF3-AABDD76D6A7B";
paths = (
{
closed = 1;
nodes = (
"319 750 OFFCURVE",
"340 771 OFFCURVE",
"340 805 CURVE SMOOTH",
"340 849 OFFCURVE",
"288 874 OFFCURVE",
"237 867 CURVE",
"254 854 LINE",
"250 1004 OFFCURVE",
"429 1072 OFFCURVE",
"623 1072 CURVE SMOOTH",
"846 1072 OFFCURVE",
"946 984 OFFCURVE",
"946 848 CURVE",
"994 830 LINE",
"994 1024 OFFCURVE",
"859 1116 OFFCURVE",
"625 1116 CURVE SMOOTH",
"406 1116 OFFCURVE",
"205 1030 OFFCURVE",
"205 852 CURVE SMOOTH",
"205 787 OFFCURVE",
"240 750 OFFCURVE",
"284 750 CURVE SMOOTH"
);
},
{
closed = 1;
nodes = (
"1259 -16 OFFCURVE",
"1330 62 OFFCURVE",
"1330 198 CURVE SMOOTH",
"1330 580 LINE",
"1286 580 LINE",
"1286 198 LINE SMOOTH",
"1286 95 OFFCURVE",
"1238 24 OFFCURVE",
"1141 24 CURVE SMOOTH",
"1043 24 OFFCURVE",
"994 95 OFFCURVE",
"994 198 CURVE SMOOTH",
"994 830 LINE",
"946 848 LINE",
"946 779 LINE",
"936 706 LINE",
"946 706 LINE",
"946 330 LINE",
"950 330 LINE",
"950 198 LINE SMOOTH",
"950 62 OFFCURVE",
"1023 -16 OFFCURVE",
"1141 -16 CURVE SMOOTH"
);
},
{
closed = 1;
nodes = (
"776 -16 OFFCURVE",
"987 143 OFFCURVE",
"985 546 CURVE",
"946 546 LINE",
"946 169 OFFCURVE",
"745 28 OFFCURVE",
"505 28 CURVE SMOOTH",
"322 28 OFFCURVE",
"188 110 OFFCURVE",
"188 257 CURVE SMOOTH",
"188 436 OFFCURVE",
"328 494 OFFCURVE",
"501 529 CURVE SMOOTH",
"677 565 LINE SMOOTH",
"823 595 OFFCURVE",
"907 627 OFFCURVE",
"946 706 CURVE",
"956 706 LINE",
"946 840 LINE",
"946 684 OFFCURVE",
"832 642 OFFCURVE",
"668 608 CURVE SMOOTH",
"484 570 LINE SMOOTH",
"286 529 OFFCURVE",
"140 451 OFFCURVE",
"140 257 CURVE SMOOTH",
"140 85 OFFCURVE",
"287 -16 OFFCURVE",
"499 -16 CURVE SMOOTH"
);
}
);
width = 1402;
},
{
anchors = (
{
name = bottom;
position = "{646, 0}";
},
{
name = ogonek;
position = "{1171, 0}";
},
{
name = top;
position = "{566, 1080}";
}
);
layerId = "1E61A082-F045-49A7-AB52-DD1B03FD9B54";
paths = (
{
closed = 1;
nodes = (
"301 710 OFFCURVE",
"321 731 OFFCURVE",
"321 765 CURVE SMOOTH",
"321 809 OFFCURVE",
"269 834 OFFCURVE",
"218 827 CURVE",
"235 811 LINE",
"229 993 OFFCURVE",
"393 1058 OFFCURVE",
"570 1058 CURVE SMOOTH",
"781 1058 OFFCURVE",
"872 967 OFFCURVE",
"872 818 CURVE",
"920 800 LINE",
"920 1005 OFFCURVE",
"794 1096 OFFCURVE",
"572 1096 CURVE SMOOTH",
"372 1096 OFFCURVE",
"190 1013 OFFCURVE",
"190 812 CURVE SMOOTH",
"190 747 OFFCURVE",
"223 710 OFFCURVE",
"267 710 CURVE SMOOTH"
);
},
{
closed = 1;
nodes = (
"1142 -16 OFFCURVE",
"1204 50 OFFCURVE",
"1204 166 CURVE SMOOTH",
"1204 660 LINE",
"1160 660 LINE",
"1160 166 LINE SMOOTH",
"1160 82 OFFCURVE",
"1119 24 OFFCURVE",
"1040 24 CURVE SMOOTH",
"961 24 OFFCURVE",
"920 82 OFFCURVE",
"920 166 CURVE SMOOTH",
"920 800 LINE",
"872 818 LINE",
"872 761 LINE",
"862 704 LINE",
"872 704 LINE",
"872 380 LINE",
"876 380 LINE",
"876 166 LINE SMOOTH",
"876 50 OFFCURVE",
"938 -16 OFFCURVE",
"1040 -16 CURVE SMOOTH"
);
},
{
closed = 1;
nodes = (
"711 -16 OFFCURVE",
"901 140 OFFCURVE",
"899 536 CURVE",
"872 536 LINE",
"872 162 OFFCURVE",
"680 22 OFFCURVE",
"452 22 CURVE SMOOTH",
"284 22 OFFCURVE",
"164 107 OFFCURVE",
"164 255 CURVE SMOOTH",
"164 415 OFFCURVE",
"269 486 OFFCURVE",
"458 528 CURVE SMOOTH",
"612 562 LINE SMOOTH",
"767 596 OFFCURVE",
"835 628 OFFCURVE",
"872 704 CURVE",
"882 704 LINE",
"872 810 LINE",
"872 666 OFFCURVE",
"761 634 OFFCURVE",
"604 599 CURVE SMOOTH",
"442 563 LINE SMOOTH",
"249 520 OFFCURVE",
"116 443 OFFCURVE",
"116 255 CURVE SMOOTH",
"116 86 OFFCURVE",
"250 -16 OFFCURVE",
"446 -16 CURVE SMOOTH"
);
}
);
width = 1294;
},
{
anchors = (
{
name = bottom;
position = "{791, 0}";
},
{
name = ogonek;
position = "{1446, 0}";
},
{
name = top;
position = "{691, 1160}";
}
);
layerId = "219068EA-2B9B-40DC-949E-B60449C01B8A";
paths = (
{
closed = 1;
nodes = (
"527 736 OFFCURVE",
"597 802 OFFCURVE",
"599 894 CURVE SMOOTH",
"601 991 OFFCURVE",
"523 1033 OFFCURVE",
"397 1040 CURVE",
"387 857 LINE",
"410 967 OFFCURVE",
"515 1006 OFFCURVE",
"622 1006 CURVE SMOOTH",
"724 1006 OFFCURVE",
"800 957 OFFCURVE",
"800 853 CURVE",
"1172 759 LINE",
"1175 1044 OFFCURVE",
"1004 1188 OFFCURVE",
"691 1188 CURVE SMOOTH",
"429 1188 OFFCURVE",
"184 1094 OFFCURVE",
"184 922 CURVE SMOOTH",
"184 794 OFFCURVE",
"288 736 OFFCURVE",
"407 736 CURVE SMOOTH"
);
},
{
closed = 1;
nodes = (
"1462 -26 OFFCURVE",
"1582 117 OFFCURVE",
"1582 347 CURVE SMOOTH",
"1582 618 LINE",
"1332 618 LINE",
"1332 328 LINE SMOOTH",
"1332 275 OFFCURVE",
"1304 238 OFFCURVE",
"1251 238 CURVE SMOOTH",
"1201 238 OFFCURVE",
"1172 275 OFFCURVE",
"1172 328 CURVE SMOOTH",
"1172 759 LINE",
"800 853 LINE",
"800 752 LINE",
"786 651 LINE",
"796 651 LINE",
"796 378 LINE",
"841 378 LINE",
"841 344 LINE SMOOTH",
"841 108 OFFCURVE",
"968 -26 OFFCURVE",
"1216 -26 CURVE SMOOTH"
);
},
{
closed = 1;
nodes = (
"682 -26 OFFCURVE",
"870 107 OFFCURVE",
"870 456 CURVE",
"796 463 LINE",
"796 309 OFFCURVE",
"708 258 OFFCURVE",
"626 258 CURVE SMOOTH",
"548 258 OFFCURVE",
"488 299 OFFCURVE",
"488 376 CURVE SMOOTH",
"488 453 OFFCURVE",
"537 490 OFFCURVE",
"636 531 CURVE SMOOTH",
"672 546 LINE SMOOTH",
"735 572 OFFCURVE",
"774 606 OFFCURVE",
"796 651 CURVE",
"806 651 LINE",
"800 853 LINE",
"800 759 OFFCURVE",
"740 721 OFFCURVE",
"627 693 CURVE SMOOTH",
"423 642 LINE SMOOTH",
"215 590 OFFCURVE",
"78 497 OFFCURVE",
"78 290 CURVE SMOOTH",
"78 96 OFFCURVE",
"236 -26 OFFCURVE",
"462 -26 CURVE SMOOTH"
);
}
);
width = 1610;
},
{
anchors = (
{
name = bottom;
position = "{731, 0}";
},
{
name = ogonek;
position = "{1314, 0}";
},
{
name = top;
position = "{651, 1140}";
}
);
layerId = "0C29AA02-E021-4BD1-A2C4-87F681D64C35";
paths = (
{
closed = 1;
nodes = (
"482 682 OFFCURVE",
"555 751 OFFCURVE",
"555 846 CURVE SMOOTH",
"555 951 OFFCURVE",
"471 988 OFFCURVE",
"339 988 CURVE",
"349 865 LINE",
"374 948 OFFCURVE",
"457 1010 OFFCURVE",
"560 1010 CURVE SMOOTH",
"667 1010 OFFCURVE",
"730 955 OFFCURVE",
"730 831 CURVE",
"1102 759 LINE",
"1105 1033 OFFCURVE",
"941 1170 OFFCURVE",
"647 1170 CURVE SMOOTH",
"390 1170 OFFCURVE",
"158 1066 OFFCURVE",
"158 872 CURVE SMOOTH",
"158 742 OFFCURVE",
"253 682 OFFCURVE",
"359 682 CURVE SMOOTH"
);
},
{
closed = 1;
nodes = (
"1331 -26 OFFCURVE",
"1432 109 OFFCURVE",
"1432 327 CURVE SMOOTH",
"1432 740 LINE",
"1234 740 LINE",
"1234 314 LINE SMOOTH",
"1234 267 OFFCURVE",
"1209 238 OFFCURVE",
"1165 238 CURVE SMOOTH",
"1127 238 OFFCURVE",
"1102 267 OFFCURVE",
"1102 314 CURVE SMOOTH",
"1102 759 LINE",
"730 831 LINE",
"730 731 LINE",
"716 631 LINE",
"726 631 LINE",
"726 356 LINE",
"773 356 LINE",
"773 324 LINE SMOOTH",
"773 100 OFFCURVE",
"881 -26 OFFCURVE",
"1098 -26 CURVE SMOOTH"
);
},
{
closed = 1;
nodes = (
"656 -26 OFFCURVE",
"789 111 OFFCURVE",
"791 410 CURVE",
"726 433 LINE",
"726 296 OFFCURVE",
"660 242 OFFCURVE",
"580 242 CURVE SMOOTH",
"512 242 OFFCURVE",
"462 288 OFFCURVE",
"462 365 CURVE SMOOTH",
"462 439 OFFCURVE",
"512 479 OFFCURVE",
"593 517 CURVE SMOOTH",
"625 532 LINE SMOOTH",
"678 557 OFFCURVE",
"711 589 OFFCURVE",
"726 631 CURVE",
"736 631 LINE",
"730 832 LINE",
"730 743 OFFCURVE",
"678 700 OFFCURVE",
"577 671 CURVE SMOOTH",
"395 618 LINE SMOOTH",
"200 561 OFFCURVE",
"58 473 OFFCURVE",
"58 276 CURVE SMOOTH",
"58 98 OFFCURVE",
"193 -26 OFFCURVE",
"422 -26 CURVE SMOOTH"
);
}
);
width = 1472;
}
);
leftKerningGroup = a;
rightKerningGroup = a;
unicode = 0061;
},
{
color = 8;
glyphname = ae;
lastChange = "2021-05-03 08:52:52 +0000";
layers = (
{
anchors = (
{
name = top;
position = "{996, 1100}";
}
);
layerId = "CA54B7DC-FBBB-40FE-ACF3-AABDD76D6A7B";
paths = (
{
closed = 1;
nodes = (
"307 750 OFFCURVE",
"328 771 OFFCURVE",
"328 805 CURVE SMOOTH",
"328 849 OFFCURVE",
"276 874 OFFCURVE",
"225 867 CURVE",
"242 854 LINE",
"239 1000 OFFCURVE",
"412 1074 OFFCURVE",
"607 1074 CURVE SMOOTH",
"832 1074 OFFCURVE",
"946 984 OFFCURVE",
"946 848 CURVE",
"992 832 LINE",
"992 1031 OFFCURVE",
"839 1116 OFFCURVE",
"609 1116 CURVE SMOOTH",
"393 1116 OFFCURVE",
"193 1030 OFFCURVE",
"193 852 CURVE SMOOTH",
"193 787 OFFCURVE",
"228 750 OFFCURVE",
"272 750 CURVE SMOOTH"
);
},
{
closed = 1;
nodes = (
"992 832 LINE",
"946 848 LINE",
"946 777 LINE",
"936 706 LINE",
"946 706 LINE",
"946 439 LINE",
"964 442 LINE",
"992 442 LINE"
);
},
{
closed = 1;
nodes = (
"779 -16 OFFCURVE",
"980 144 OFFCURVE",
"983 516 CURVE",
"946 546 LINE",
"946 169 OFFCURVE",
"745 28 OFFCURVE",
"505 28 CURVE SMOOTH",
"322 28 OFFCURVE",
"188 110 OFFCURVE",
"188 257 CURVE SMOOTH",
"188 436 OFFCURVE",
"328 494 OFFCURVE",
"501 529 CURVE SMOOTH",
"677 565 LINE SMOOTH",
"823 595 OFFCURVE",
"907 627 OFFCURVE",
"946 706 CURVE",
"956 706 LINE",
"946 840 LINE",
"946 684 OFFCURVE",
"832 642 OFFCURVE",
"668 608 CURVE SMOOTH",
"484 570 LINE SMOOTH",
"286 529 OFFCURVE",
"140 451 OFFCURVE",
"140 257 CURVE SMOOTH",
"140 85 OFFCURVE",
"288 -16 OFFCURVE",
"501 -16 CURVE SMOOTH"
);
},
{
closed = 1;
nodes = (
"1729 -16 OFFCURVE",
"1846 185 OFFCURVE",
"1872 324 CURVE",
"1827 324 LINE",
"1801 208 OFFCURVE",
"1701 28 OFFCURVE",
"1432 28 CURVE SMOOTH",
"1162 28 OFFCURVE",
"994 223 OFFCURVE",
"994 550 CURVE SMOOTH",
"994 876 OFFCURVE",
"1164 1072 OFFCURVE",
"1434 1072 CURVE",
"1434 1116 LINE",
"1140 1116 OFFCURVE",
"950 910 OFFCURVE",
"950 550 CURVE SMOOTH",
"950 190 OFFCURVE",
"1138 -16 OFFCURVE",
"1432 -16 CURVE SMOOTH"
);
},
{
closed = 1;
nodes = (
"1890 592 LINE",
"1890 612 LINE",
"1846 636 LINE",
"978 636 LINE",
"978 592 LINE"
);
},
{
closed = 1;
nodes = (
"1890 908 OFFCURVE",
"1728 1116 OFFCURVE",
"1434 1116 CURVE",
"1434 1072 LINE",
"1706 1072 OFFCURVE",
"1834 878 OFFCURVE",
"1846 636 CURVE",
"1890 612 LINE"
);
}
);
width = 2024;
},
{
anchors = (
{
name = top;
position = "{928, 1080}";
}
);
layerId = "1E61A082-F045-49A7-AB52-DD1B03FD9B54";
paths = (
{
closed = 1;
nodes = (
"287 710 OFFCURVE",
"307 731 OFFCURVE",
"307 765 CURVE SMOOTH",
"307 809 OFFCURVE",
"255 834 OFFCURVE",
"204 827 CURVE",
"221 811 LINE",
"215 993 OFFCURVE",
"374 1058 OFFCURVE",
"554 1058 CURVE SMOOTH",
"771 1058 OFFCURVE",
"872 967 OFFCURVE",
"872 818 CURVE",
"918 800 LINE",
"918 1005 OFFCURVE",
"781 1096 OFFCURVE",
"556 1096 CURVE SMOOTH",
"353 1096 OFFCURVE",
"176 1013 OFFCURVE",
"176 812 CURVE SMOOTH",
"176 747 OFFCURVE",
"209 710 OFFCURVE",
"253 710 CURVE SMOOTH"
);
},
{
closed = 1;
nodes = (
"918 800 LINE",
"872 818 LINE",
"872 761 LINE",
"862 704 LINE",
"872 704 LINE",
"872 412 LINE",
"890 417 LINE",
"918 417 LINE"
);
},
{
closed = 1;
nodes = (
"708 -16 OFFCURVE",
"902 141 OFFCURVE",
"904 496 CURVE",
"872 536 LINE",
"872 162 OFFCURVE",
"680 22 OFFCURVE",
"452 22 CURVE SMOOTH",
"284 22 OFFCURVE",
"164 107 OFFCURVE",
"164 255 CURVE SMOOTH",
"164 415 OFFCURVE",
"269 486 OFFCURVE",
"458 528 CURVE SMOOTH",
"612 562 LINE SMOOTH",
"767 596 OFFCURVE",
"835 628 OFFCURVE",
"872 704 CURVE",
"882 704 LINE",
"872 810 LINE",
"872 666 OFFCURVE",
"761 634 OFFCURVE",
"604 599 CURVE SMOOTH",
"442 563 LINE SMOOTH",
"249 520 OFFCURVE",
"116 443 OFFCURVE",
"116 255 CURVE SMOOTH",
"116 86 OFFCURVE",
"252 -16 OFFCURVE",
"448 -16 CURVE SMOOTH"
);
},
{
closed = 1;
nodes = (
"1628 -16 OFFCURVE",
"1749 214 OFFCURVE",
"1763 380 CURVE",
"1723 380 LINE",
"1710 235 OFFCURVE",
"1605 24 OFFCURVE",
"1336 24 CURVE SMOOTH",
"1087 24 OFFCURVE",
"920 217 OFFCURVE",
"920 540 CURVE SMOOTH",
"920 863 OFFCURVE",
"1085 1058 OFFCURVE",
"1336 1058 CURVE",
"1336 1096 LINE",
"1062 1096 OFFCURVE",
"876 894 OFFCURVE",
"876 540 CURVE SMOOTH",
"876 186 OFFCURVE",
"1064 -16 OFFCURVE",
"1336 -16 CURVE SMOOTH"
);
},
{
closed = 1;
nodes = (
"1772 586 LINE",
"1772 600 LINE",
"1728 624 LINE",
"904 624 LINE",
"904 586 LINE"
);
},
{
closed = 1;
nodes = (
"1772 892 OFFCURVE",
"1619 1096 OFFCURVE",
"1336 1096 CURVE",
"1336 1058 LINE",
"1595 1058 OFFCURVE",
"1719 864 OFFCURVE",
"1728 624 CURVE",
"1772 600 LINE"
);
}
);
width = 1882;
},
{
anchors = (
{
name = top;
position = "{998, 1160}";
}
);
layerId = "219068EA-2B9B-40DC-949E-B60449C01B8A";
paths = (
{
closed = 1;
nodes = (
"484 726 OFFCURVE",
"555 792 OFFCURVE",
"557 884 CURVE SMOOTH",
"559 981 OFFCURVE",
"480 1023 OFFCURVE",
"351 1030 CURVE",
"341 847 LINE",
"388 939 OFFCURVE",
"483 1006 OFFCURVE",
"602 1006 CURVE SMOOTH",
"710 1006 OFFCURVE",
"790 957 OFFCURVE",
"790 853 CURVE",
"1092 759 LINE",
"1095 1043 OFFCURVE",
"934 1186 OFFCURVE",
"625 1186 CURVE SMOOTH",
"371 1186 OFFCURVE",
"130 1091 OFFCURVE",
"130 914 CURVE SMOOTH",
"130 786 OFFCURVE",
"240 726 OFFCURVE",
"361 726 CURVE SMOOTH"
);
},
{
closed = 1;
nodes = (
"1092 759 LINE",
"790 853 LINE",
"790 752 LINE",
"776 651 LINE",
"786 651 LINE",
"786 378 LINE",
"851 378 LINE",
"1092 332 LINE"
);
},
{
closed = 1;
nodes = (
"727 -26 OFFCURVE",
"884 109 OFFCURVE",
"894 353 CURVE",
"786 463 LINE",
"786 309 OFFCURVE",
"698 258 OFFCURVE",
"616 258 CURVE SMOOTH",
"544 258 OFFCURVE",
"488 299 OFFCURVE",
"488 376 CURVE SMOOTH",
"488 453 OFFCURVE",
"533 492 OFFCURVE",
"626 531 CURVE SMOOTH",
"662 546 LINE SMOOTH",
"725 572 OFFCURVE",
"764 606 OFFCURVE",
"786 651 CURVE",
"796 651 LINE",
"790 854 LINE",
"790 760 OFFCURVE",
"730 724 OFFCURVE",
"617 693 CURVE SMOOTH",
"423 640 LINE SMOOTH",
"216 583 OFFCURVE",
"78 495 OFFCURVE",
"78 290 CURVE SMOOTH",
"78 106 OFFCURVE",
"227 -26 OFFCURVE",
"474 -26 CURVE SMOOTH"
);
},
{
closed = 1;
nodes = (
"1730 -26 OFFCURVE",
"1894 205 OFFCURVE",
"1908 440 CURVE",
"1656 440 LINE",
"1627 341 OFFCURVE",
"1562 267 OFFCURVE",
"1433 267 CURVE SMOOTH",
"1276 267 OFFCURVE",
"1178 399 OFFCURVE",
"1178 610 CURVE SMOOTH",
"1178 873 OFFCURVE",
"1247 970 OFFCURVE",
"1369 970 CURVE",
"1377 1186 LINE",
"1057 1186 OFFCURVE",
"826 970 OFFCURVE",
"826 580 CURVE SMOOTH",
"826 189 OFFCURVE",
"1065 -26 OFFCURVE",
"1403 -26 CURVE SMOOTH"
);
},
{
closed = 1;
nodes = (
"1922 560 LINE",
"1922 637 LINE",
"1528 758 LINE",
"966 758 LINE",
"966 560 LINE"
);
},
{
closed = 1;
nodes = (
"1922 964 OFFCURVE",
"1721 1186 OFFCURVE",
"1377 1186 CURVE",
"1369 970 LINE",
"1473 970 OFFCURVE",
"1525 873 OFFCURVE",
"1528 758 CURVE",
"1922 637 LINE"
);
}
);
width = 2012;
},
{
anchors = (
{
name = top;
position = "{918, 1140}";
}
);
layerId = "0C29AA02-E021-4BD1-A2C4-87F681D64C35";
paths = (
{
closed = 1;
nodes = (
"468 682 OFFCURVE",
"545 751 OFFCURVE",
"545 846 CURVE SMOOTH",
"545 951 OFFCURVE",
"457 988 OFFCURVE",
"319 988 CURVE",
"319 865 LINE",
"362 946 OFFCURVE",
"439 1006 OFFCURVE",
"554 1006 CURVE SMOOTH",
"665 1006 OFFCURVE",
"730 952 OFFCURVE",
"730 831 CURVE",
"1032 759 LINE",
"1035 1030 OFFCURVE",
"891 1166 OFFCURVE",
"601 1166 CURVE SMOOTH",
"347 1166 OFFCURVE",
"118 1060 OFFCURVE",
"118 862 CURVE SMOOTH",
"118 739 OFFCURVE",
"223 682 OFFCURVE",
"339 682 CURVE SMOOTH"
);
},
{
closed = 1;
nodes = (
"1032 759 LINE",
"730 831 LINE",
"730 731 LINE",
"716 631 LINE",
"726 631 LINE",
"726 360 LINE",
"819 365 LINE",
"1032 318 LINE"
);
},
{
closed = 1;
nodes = (
"684 -26 OFFCURVE",
"823 150 OFFCURVE",
"819 365 CURVE",
"726 433 LINE",
"726 296 OFFCURVE",
"660 242 OFFCURVE",
"580 242 CURVE SMOOTH",
"512 242 OFFCURVE",
"462 288 OFFCURVE",
"462 365 CURVE SMOOTH",
"462 439 OFFCURVE",
"512 479 OFFCURVE",
"593 517 CURVE SMOOTH",
"625 532 LINE SMOOTH",
"678 557 OFFCURVE",
"711 589 OFFCURVE",
"726 631 CURVE",
"736 631 LINE",
"730 832 LINE",
"730 743 OFFCURVE",
"678 700 OFFCURVE",
"577 671 CURVE SMOOTH",
"395 618 LINE SMOOTH",
"200 561 OFFCURVE",
"58 469 OFFCURVE",
"58 278 CURVE SMOOTH",
"58 98 OFFCURVE",
"197 -26 OFFCURVE",
"432 -26 CURVE SMOOTH"
);
},
{
closed = 1;
nodes = (
"1626 -26 OFFCURVE",
"1798 210 OFFCURVE",
"1804 490 CURVE",
"1628 490 LINE",
"1611 362 OFFCURVE",
"1538 249 OFFCURVE",
"1391 249 CURVE SMOOTH",
"1218 249 OFFCURVE",
"1124 386 OFFCURVE",
"1124 628 CURVE SMOOTH",
"1124 908 OFFCURVE",
"1187 992 OFFCURVE",
"1283 992 CURVE",
"1295 1166 LINE",
"982 1166 OFFCURVE",
"756 939 OFFCURVE",
"756 558 CURVE SMOOTH",
"756 191 OFFCURVE",
"980 -26 OFFCURVE",
"1299 -26 CURVE SMOOTH"
);
},
{
closed = 1;
nodes = (
"1816 570 LINE",
"1816 631 LINE",
"1412 748 LINE",
"924 748 LINE",
"924 570 LINE"
);
},
{
closed = 1;
nodes = (
"1816 941 OFFCURVE",
"1633 1166 OFFCURVE",
"1295 1166 CURVE",
"1283 992 LINE",
"1365 992 OFFCURVE",
"1410 899 OFFCURVE",
"1412 748 CURVE",
"1816 631 LINE"
);
}
);
width = 1876;
}
);
leftKerningGroup = a;
leftMetricsKey = a;
rightKerningGroup = o;
rightMetricsKey = e;
unicode = 00E6;
},
{
color = 8;
glyphname = b;
lastChange = "2021-05-03 10:23:46 +0000";
layers = (
{
anchors = (
{
name = bottom;
position = "{713, 0}";
},
{
name = top;
position = "{713, 1560}";
}
);
hints = (
{
origin = "{2, 5}";
scale = "{-0.9, 1}";
type = Corner;
name = _corner.Serif;
}
);
layerId = "CA54B7DC-FBBB-40FE-ACF3-AABDD76D6A7B";
paths = (
{
closed = 1;
nodes = (
"1081 -16 OFFCURVE",
"1294 198 OFFCURVE",
"1294 550 CURVE SMOOTH",
"1294 902 OFFCURVE",
"1081 1116 OFFCURVE",
"784 1116 CURVE SMOOTH",
"467 1116 OFFCURVE",
"274 902 OFFCURVE",
"274 551 CURVE",
"274 549 LINE",
"274 198 OFFCURVE",
"467 -16 OFFCURVE",
"784 -16 CURVE SMOOTH"
);
},
{
closed = 1;
nodes = (
"509 28 OFFCURVE",
"314 223 OFFCURVE",
"314 550 CURVE SMOOTH",
"314 877 OFFCURVE",
"509 1072 OFFCURVE",
"784 1072 CURVE SMOOTH",
"1055 1072 OFFCURVE",
"1246 877 OFFCURVE",
"1246 550 CURVE SMOOTH",
"1246 223 OFFCURVE",
"1055 28 OFFCURVE",
"784 28 CURVE SMOOTH"
);
},
{
closed = 1;
nodes = (
"314 0 LINE",
"314 334 LINE",
"288 550 LINE",
"318 746 LINE",
"318 1560 LINE",
"270 1560 LINE",
"270 0 LINE"
);
}
);
width = 1428;
},
{
anchors = (
{
name = bottom;
position = "{645, 0}";
},
{
name = top;
position = "{645, 1500}";
}
);
hints = (
{
origin = "{2, 5}";
scale = "{-0.9, 1}";
type = Corner;
name = _corner.Serif;
}
);
layerId = "1E61A082-F045-49A7-AB52-DD1B03FD9B54";
paths = (
{
closed = 1;
nodes = (
"971 -16 OFFCURVE",
"1169 194 OFFCURVE",
"1169 540 CURVE SMOOTH",
"1169 886 OFFCURVE",
"971 1096 OFFCURVE",
"697 1096 CURVE SMOOTH",
"404 1096 OFFCURVE",
"239 887 OFFCURVE",
"239 541 CURVE",
"239 539 LINE",
"239 193 OFFCURVE",
"403 -16 OFFCURVE",
"697 -16 CURVE SMOOTH"
);
},
{
closed = 1;
nodes = (
"445 22 OFFCURVE",
"265 215 OFFCURVE",
"265 540 CURVE SMOOTH",
"265 865 OFFCURVE",
"445 1058 OFFCURVE",
"697 1058 CURVE SMOOTH",
"945 1058 OFFCURVE",
"1121 865 OFFCURVE",
"1121 540 CURVE SMOOTH",
"1121 215 OFFCURVE",
"945 22 OFFCURVE",
"697 22 CURVE SMOOTH"
);
},
{
closed = 1;
nodes = (
"265 0 LINE",
"265 324 LINE",
"249 540 LINE",
"269 736 LINE",
"269 1500 LINE",
"221 1500 LINE",
"221 0 LINE"
);
}
);
width = 1279;
},
{
anchors = (
{
name = bottom;
position = "{777, 0}";
},
{
name = top;
position = "{777, 1580}";
}
);
hints = (
{
origin = "{2, 5}";
scale = "{-0.9, 0.96933}";
type = Corner;
name = _corner.Serif;
}
);
layerId = "219068EA-2B9B-40DC-949E-B60449C01B8A";
paths = (
{
closed = 1;
nodes = (
"1250 -22 OFFCURVE",
"1475 194 OFFCURVE",
"1475 580 CURVE SMOOTH",
"1475 966 OFFCURVE",
"1250 1182 OFFCURVE",
"940 1182 CURVE SMOOTH",
"614 1182 OFFCURVE",
"500 956 OFFCURVE",
"500 580 CURVE",
"472 580 LINE",
"472 214 OFFCURVE",
"614 -22 OFFCURVE",
"936 -22 CURVE SMOOTH"
);
},
{
closed = 1;
nodes = (
"639 230 OFFCURVE",
"549 350 OFFCURVE",
"549 580 CURVE SMOOTH",
"549 810 OFFCURVE",
"639 930 OFFCURVE",
"793 930 CURVE SMOOTH",
"945 930 OFFCURVE",
"1035 810 OFFCURVE",
"1035 580 CURVE SMOOTH",
"1035 350 OFFCURVE",
"945 230 OFFCURVE",
"793 230 CURVE SMOOTH"
);
},
{
closed = 1;
nodes = (
"539 0 LINE",
"539 262 LINE",
"508 581 LINE",
"569 838 LINE",
"569 1580 LINE",
"169 1580 LINE",
"169 0 LINE"
);
}
);
width = 1567;
},
{
anchors = (
{
name = bottom;
position = "{708, 0}";
},
{
name = top;
position = "{708, 1500}";
}
);
hints = (
{
origin = "{2, 5}";
scale = "{-0.9, 0.96933}";
type = Corner;
name = _corner.Serif;
}
);
layerId = "0C29AA02-E021-4BD1-A2C4-87F681D64C35";
paths = (
{
closed = 1;
nodes = (
"1172 -22 OFFCURVE",
"1368 180 OFFCURVE",
"1368 570 CURVE SMOOTH",
"1368 960 OFFCURVE",
"1172 1162 OFFCURVE",
"883 1162 CURVE SMOOTH",
"558 1162 OFFCURVE",
"465 920 OFFCURVE",
"465 570 CURVE",
"443 570 LINE",
"441 230 OFFCURVE",
"558 -22 OFFCURVE",
"879 -22 CURVE SMOOTH"
);
},
{
closed = 1;
nodes = (
"594 198 OFFCURVE",
"520 326 OFFCURVE",
"520 570 CURVE SMOOTH",
"520 814 OFFCURVE",
"594 942 OFFCURVE",
"728 942 CURVE SMOOTH",
"860 942 OFFCURVE",
"934 814 OFFCURVE",
"934 570 CURVE SMOOTH",
"934 326 OFFCURVE",
"860 198 OFFCURVE",
"728 198 CURVE SMOOTH"
);
},
{
closed = 1;
nodes = (
"510 0 LINE",
"510 262 LINE",
"479 581 LINE",
"540 838 LINE",
"540 1500 LINE",
"140 1500 LINE",
"140 0 LINE"
);
}
);
width = 1434;
}
);
leftKerningGroup = b;
rightKerningGroup = o;
rightMetricsKey = p;
unicode = 0062;
},
{
color = 8;
glyphname = c;
lastChange = "2021-05-03 08:45:35 +0000";
layers = (
{
anchors = (
{
name = bottom;
position = "{621, 0}";
},
{
name = top;
position = "{677, 1100}";
}
);
layerId = "CA54B7DC-FBBB-40FE-ACF3-AABDD76D6A7B";
rightMetricsKey = "=o-8";
paths = (
{
closed = 1;
nodes = (
"977 -16 OFFCURVE",
"1112 212 OFFCURVE",
"1124 361 CURVE",
"1080 361 LINE",
"1069 238 OFFCURVE",
"945 32 OFFCURVE",
"666 32 CURVE SMOOTH",
"379 32 OFFCURVE",
"184 226 OFFCURVE",
"184 550 CURVE SMOOTH",
"184 876 OFFCURVE",
"385 1072 OFFCURVE",
"678 1072 CURVE",
"678 1116 LINE",
"359 1116 OFFCURVE",
"134 910 OFFCURVE",
"134 550 CURVE SMOOTH",
"134 190 OFFCURVE",
"354 -16 OFFCURVE",
"666 -16 CURVE SMOOTH"
);
},
{
closed = 1;
nodes = (
"1080 691 OFFCURVE",
"1106 730 OFFCURVE",
"1106 795 CURVE SMOOTH",
"1106 943 OFFCURVE",
"968 1116 OFFCURVE",
"678 1116 CURVE",
"678 1072 LINE",
"948 1072 OFFCURVE",
"1062 918 OFFCURVE",
"1058 792 CURVE",
"1075 803 LINE",
"1029 809 OFFCURVE",
"982 790 OFFCURVE",
"982 743 CURVE SMOOTH",
"982 711 OFFCURVE",
"1003 691 OFFCURVE",
"1036 691 CURVE SMOOTH"
);
}
);
width = 1250;
},
{
anchors = (
{
name = bottom;
position = "{560, 0}";
},
{
name = top;
position = "{598, 1080}";
}
);
layerId = "1E61A082-F045-49A7-AB52-DD1B03FD9B54";
rightMetricsKey = "=o-14";
paths = (
{
closed = 1;
nodes = (
"886 -16 OFFCURVE",
"1015 197 OFFCURVE",
"1031 409 CURVE",
"993 409 LINE",
"979 230 OFFCURVE",
"860 28 OFFCURVE",
"590 28 CURVE SMOOTH",
"330 28 OFFCURVE",
"160 220 OFFCURVE",
"160 540 CURVE SMOOTH",
"160 863 OFFCURVE",
"338 1058 OFFCURVE",
"604 1058 CURVE",
"604 1096 LINE",
"312 1096 OFFCURVE",
"110 894 OFFCURVE",
"110 540 CURVE SMOOTH",
"110 186 OFFCURVE",
"305 -16 OFFCURVE",
"590 -16 CURVE SMOOTH"
);
},
{
closed = 1;
nodes = (
"988 678 OFFCURVE",
"1014 707 OFFCURVE",
"1014 772 CURVE SMOOTH",
"1014 932 OFFCURVE",
"884 1096 OFFCURVE",
"604 1096 CURVE",
"604 1058 LINE",
"866 1058 OFFCURVE",
"974 908 OFFCURVE",
"970 768 CURVE",
"987 790 LINE",
"939 796 OFFCURVE",
"890 777 OFFCURVE",
"890 730 CURVE SMOOTH",
"890 698 OFFCURVE",
"911 678 OFFCURVE",
"944 678 CURVE SMOOTH"
);
}
);
width = 1127;
},
{
anchors = (
{
name = bottom;
position = "{668, 0}";
},
{
name = top;
position = "{710, 1160}";
}
);
layerId = "219068EA-2B9B-40DC-949E-B60449C01B8A";
rightMetricsKey = "=o+8";
paths = (
{
closed = 1;
nodes = (
"1049 -26 OFFCURVE",
"1251 193 OFFCURVE",
"1258 465 CURVE",
"1030 465 LINE",
"1008 358 OFFCURVE",
"924 274 OFFCURVE",
"790 274 CURVE SMOOTH",
"592 274 OFFCURVE",
"481 426 OFFCURVE",
"481 639 CURVE SMOOTH",
"481 846 OFFCURVE",
"593 988 OFFCURVE",
"776 988 CURVE",
"723 1186 LINE",
"350 1186 OFFCURVE",
"82 971 OFFCURVE",
"82 581 CURVE SMOOTH",
"82 190 OFFCURVE",
"345 -26 OFFCURVE",
"713 -26 CURVE SMOOTH"
);
},
{
closed = 1;
nodes = (
"1142 679 OFFCURVE",
"1240 752 OFFCURVE",
"1240 880 CURVE SMOOTH",
"1240 1058 OFFCURVE",
"1032 1186 OFFCURVE",
"723 1186 CURVE",
"776 988 LINE",
"891 988 OFFCURVE",
"949 949 OFFCURVE",
"1026 864 CURVE",
"1031 1000 LINE",
"894 1000 OFFCURVE",
"805 963 OFFCURVE",
"805 842 CURVE SMOOTH",
"805 750 OFFCURVE",
"887 679 OFFCURVE",
"1013 679 CURVE SMOOTH"
);
}
);
width = 1348;
},
{
anchors = (
{
name = bottom;
position = "{614, 0}";
},
{
name = top;
position = "{644, 1140}";
}
);
layerId = "0C29AA02-E021-4BD1-A2C4-87F681D64C35";
rightMetricsKey = "=o+10";
paths = (
{
closed = 1;
nodes = (
"983 -30 OFFCURVE",
"1163 183 OFFCURVE",
"1170 489 CURVE",
"994 489 LINE",
"975 369 OFFCURVE",
"889 268 OFFCURVE",
"736 268 CURVE SMOOTH",
"550 268 OFFCURVE",
"445 419 OFFCURVE",
"445 629 CURVE SMOOTH",
"445 838 OFFCURVE",
"540 1001 OFFCURVE",
"730 1001 CURVE",
"661 1166 LINE",
"306 1166 OFFCURVE",
"52 955 OFFCURVE",
"52 571 CURVE SMOOTH",
"52 183 OFFCURVE",
"298 -30 OFFCURVE",
"643 -30 CURVE SMOOTH"
);
},
{
closed = 1;
nodes = (
"1072 619 OFFCURVE",
"1160 700 OFFCURVE",
"1160 824 CURVE SMOOTH",
"1160 1008 OFFCURVE",
"950 1166 OFFCURVE",
"661 1166 CURVE",
"730 1001 LINE",
"848 1001 OFFCURVE",
"925 943 OFFCURVE",
"970 866 CURVE",
"941 958 LINE",
"810 958 OFFCURVE",
"725 898 OFFCURVE",
"725 792 CURVE SMOOTH",
"725 692 OFFCURVE",
"809 619 OFFCURVE",
"935 619 CURVE SMOOTH"
);
}
);
width = 1232;
}
);
leftKerningGroup = o;
leftMetricsKey = o;
rightKerningGroup = c;
rightMetricsKey = o;
unicode = 0063;
},
{
color = 8;
glyphname = d;
lastChange = "2021-05-03 08:45:35 +0000";
layers = (
{
anchors = (
{
name = bottom;
position = "{720, 0}";
},
{
name = center;
position = "{720, 550}";
},
{
name = top;
position = "{720, 1560}";
},
{
name = topright;
position = "{1158, 1560}";
}
);
hints = (
{
origin = "{2, 2}";
scale = "{-0.9, 1}";
type = Corner;
name = _corner.Serif;
},
{
origin = "{2, 0}";
scale = "{-0.9, 1}";
type = Corner;
name = _corner.Serif;
}
);
layerId = "CA54B7DC-FBBB-40FE-ACF3-AABDD76D6A7B";
paths = (
{
closed = 1;
nodes = (
"961 -16 OFFCURVE",
"1154 198 OFFCURVE",
"1154 549 CURVE",
"1154 551 LINE",
"1154 902 OFFCURVE",
"961 1116 OFFCURVE",
"644 1116 CURVE SMOOTH",
"347 1116 OFFCURVE",
"134 902 OFFCURVE",
"134 550 CURVE SMOOTH",
"134 198 OFFCURVE",
"347 -16 OFFCURVE",
"644 -16 CURVE SMOOTH"
);
},
{
closed = 1;
nodes = (
"373 28 OFFCURVE",
"182 223 OFFCURVE",
"182 550 CURVE SMOOTH",
"182 877 OFFCURVE",
"373 1072 OFFCURVE",
"644 1072 CURVE SMOOTH",
"919 1072 OFFCURVE",
"1114 877 OFFCURVE",
"1114 550 CURVE SMOOTH",
"1114 223 OFFCURVE",
"919 28 OFFCURVE",
"644 28 CURVE SMOOTH"
);
},
{
closed = 1;
nodes = (
"1158 0 LINE",
"1158 1560 LINE",
"1110 1560 LINE",
"1110 746 LINE",
"1140 550 LINE",
"1114 334 LINE",
"1114 0 LINE"
);
}
);
width = 1432;
},
{
anchors = (
{
name = bottom;
position = "{644, 0}";
},
{
name = center;
position = "{644, 540}";
},
{
name = top;
position = "{644, 1500}";
},
{
name = topright;
position = "{1058, 1500}";
}
);
hints = (
{
origin = "{2, 0}";
scale = "{-0.9, 1}";
type = Corner;
name = _corner.Serif;
},
{
origin = "{2, 2}";
scale = "{-0.9, 1}";
type = Corner;
name = _corner.Serif;
}
);
layerId = "1E61A082-F045-49A7-AB52-DD1B03FD9B54";
paths = (
{
closed = 1;
nodes = (
"876 -16 OFFCURVE",
"1040 193 OFFCURVE",
"1040 539 CURVE",
"1040 541 LINE",
"1040 887 OFFCURVE",
"875 1096 OFFCURVE",
"582 1096 CURVE SMOOTH",
"308 1096 OFFCURVE",
"110 886 OFFCURVE",
"110 540 CURVE SMOOTH",
"110 194 OFFCURVE",
"308 -16 OFFCURVE",
"582 -16 CURVE SMOOTH"
);
},
{
closed = 1;
nodes = (
"334 22 OFFCURVE",
"158 215 OFFCURVE",
"158 540 CURVE SMOOTH",
"158 865 OFFCURVE",
"334 1058 OFFCURVE",
"582 1058 CURVE SMOOTH",
"834 1058 OFFCURVE",
"1014 865 OFFCURVE",
"1014 540 CURVE SMOOTH",
"1014 215 OFFCURVE",
"834 22 OFFCURVE",
"582 22 CURVE SMOOTH"
);
},
{
closed = 1;
nodes = (
"1058 0 LINE",
"1058 1500 LINE",
"1010 1500 LINE",
"1010 736 LINE",
"1026 540 LINE",
"1014 324 LINE",
"1014 0 LINE"
);
}
);
width = 1291;
},
{
anchors = (
{
name = bottom;
position = "{803, 0}";
},
{
name = center;
position = "{803, 580}";
},
{
name = top;
position = "{803, 1580}";
},
{
name = topright;
position = "{1398, 1580}";
}
);
hints = (
{
origin = "{2, 2}";
scale = "{-0.96, 0.98}";
type = Corner;
name = _corner.Serif;
},
{
origin = "{2, 0}";
scale = "{-0.92, 0.98}";
type = Corner;
name = _corner.Serif;
}
);
layerId = "219068EA-2B9B-40DC-949E-B60449C01B8A";
paths = (
{
closed = 1;
nodes = (
"953 -22 OFFCURVE",
"1095 214 OFFCURVE",
"1095 580 CURVE",
"1067 580 LINE",
"1067 956 OFFCURVE",
"953 1182 OFFCURVE",
"627 1182 CURVE SMOOTH",
"317 1182 OFFCURVE",
"92 966 OFFCURVE",
"92 580 CURVE SMOOTH",
"92 194 OFFCURVE",
"317 -22 OFFCURVE",
"631 -22 CURVE SMOOTH"
);
},
{
closed = 1;
nodes = (
"622 230 OFFCURVE",
"532 350 OFFCURVE",
"532 580 CURVE SMOOTH",
"532 810 OFFCURVE",
"622 930 OFFCURVE",
"774 930 CURVE SMOOTH",
"928 930 OFFCURVE",
"1018 810 OFFCURVE",
"1018 580 CURVE SMOOTH",
"1018 350 OFFCURVE",
"928 230 OFFCURVE",
"774 230 CURVE SMOOTH"
);
},
{
closed = 1;
nodes = (
"1398 0 LINE",
"1398 1580 LINE",
"998 1580 LINE",
"998 838 LINE",
"1060 581 LINE",
"1028 280 LINE",
"1028 0 LINE"
);
}
);
width = 1608;
},
{
anchors = (
{
name = bottom;
position = "{742, 0}";
},
{
name = center;
position = "{742, 570}";
},
{
name = top;
position = "{742, 1500}";
},
{
name = topright;
position = "{1294, 1500}";
}
);
hints = (
{
origin = "{2, 2}";
scale = "{-0.96, 0.98}";
type = Corner;
name = _corner.Serif;
},
{
origin = "{2, 0}";
scale = "{-0.92, 0.98}";
type = Corner;
name = _corner.Serif;
}
);
layerId = "0C29AA02-E021-4BD1-A2C4-87F681D64C35";
paths = (
{
closed = 1;
nodes = (
"876 -22 OFFCURVE",
"993 230 OFFCURVE",
"991 570 CURVE",
"969 570 LINE",
"969 920 OFFCURVE",
"876 1162 OFFCURVE",
"551 1162 CURVE SMOOTH",
"262 1162 OFFCURVE",
"66 960 OFFCURVE",
"66 570 CURVE SMOOTH",
"66 180 OFFCURVE",
"262 -22 OFFCURVE",
"555 -22 CURVE SMOOTH"
);
},
{
closed = 1;
nodes = (
"574 198 OFFCURVE",
"500 326 OFFCURVE",
"500 570 CURVE SMOOTH",
"500 814 OFFCURVE",
"574 942 OFFCURVE",
"706 942 CURVE SMOOTH",
"840 942 OFFCURVE",
"914 814 OFFCURVE",
"914 570 CURVE SMOOTH",
"914 326 OFFCURVE",
"840 198 OFFCURVE",
"706 198 CURVE SMOOTH"
);
},
{
closed = 1;
nodes = (
"1294 0 LINE",
"1294 1500 LINE",
"894 1500 LINE",
"894 838 LINE",
"956 581 LINE",
"924 280 LINE",
"924 0 LINE"
);
}
);
width = 1475;
}
);
leftKerningGroup = o;
leftMetricsKey = q;
rightKerningGroup = l;
rightMetricsKey = l;
unicode = 0064;
},
{
color = 8;
glyphname = eth;
lastChange = "2021-05-03 08:45:35 +0000";
layers = (
{
layerId = "CA54B7DC-FBBB-40FE-ACF3-AABDD76D6A7B";
paths = (
{
closed = 1;
nodes = (
"954 -16 OFFCURVE",
"1166 190 OFFCURVE",
"1166 570 CURVE SMOOTH",
"1166 1024 OFFCURVE",
"954 1371 OFFCURVE",
"540 1606 CURVE",
"516 1570 LINE",
"861 1375 OFFCURVE",
"1124 1065 OFFCURVE",
"1124 550 CURVE",
"1118 550 LINE",
"1118 221 OFFCURVE",
"928 22 OFFCURVE",
"650 22 CURVE SMOOTH",
"372 22 OFFCURVE",
"182 221 OFFCURVE",
"182 550 CURVE SMOOTH",
"182 879 OFFCURVE",
"372 1078 OFFCURVE",
"650 1078 CURVE SMOOTH",
"928 1078 OFFCURVE",
"1118 879 OFFCURVE",
"1118 550 CURVE",
"1152 550 LINE",
"1152 932 OFFCURVE",
"947 1116 OFFCURVE",
"650 1116 CURVE SMOOTH",
"346 1116 OFFCURVE",
"134 910 OFFCURVE",
"134 550 CURVE SMOOTH",
"134 190 OFFCURVE",
"346 -16 OFFCURVE",
"650 -16 CURVE SMOOTH"
);
},
{
closed = 1;
nodes = (
"1158 1407 LINE",
"1158 1448 LINE",
"460 1289 LINE",
"460 1248 LINE"
);
}
);
width = 1300;
},
{
layerId = "1E61A082-F045-49A7-AB52-DD1B03FD9B54";
paths = (
{
closed = 1;
nodes = (
"898 -16 OFFCURVE",
"1102 186 OFFCURVE",
"1102 560 CURVE SMOOTH",
"1102 1014 OFFCURVE",
"897 1361 OFFCURVE",
"496 1596 CURVE",
"472 1560 LINE",
"806 1365 OFFCURVE",
"1060 1055 OFFCURVE",
"1060 540 CURVE",
"1054 540 LINE",
"1054 217 OFFCURVE",
"872 22 OFFCURVE",
"606 22 CURVE SMOOTH",
"340 22 OFFCURVE",
"158 217 OFFCURVE",
"158 540 CURVE SMOOTH",
"158 863 OFFCURVE",
"340 1058 OFFCURVE",
"606 1058 CURVE SMOOTH",
"872 1058 OFFCURVE",
"1054 863 OFFCURVE",
"1054 540 CURVE",
"1080 540 LINE",
"1080 915 OFFCURVE",
"886 1096 OFFCURVE",
"606 1096 CURVE SMOOTH",
"314 1096 OFFCURVE",
"110 894 OFFCURVE",
"110 540 CURVE SMOOTH",
"110 186 OFFCURVE",
"314 -16 OFFCURVE",
"606 -16 CURVE SMOOTH"
);
},
{
closed = 1;
nodes = (
"1114 1397 LINE",
"1114 1438 LINE",
"416 1279 LINE",
"416 1238 LINE"
);
}
);
width = 1224;
},
{
layerId = "219068EA-2B9B-40DC-949E-B60449C01B8A";
paths = (
{
closed = 1;
nodes = (
"1149 -26 OFFCURVE",
"1418 210 OFFCURVE",
"1418 640 CURVE SMOOTH",
"1418 1076 OFFCURVE",
"1110 1493 OFFCURVE",
"674 1736 CURVE",
"551 1572 LINE",
"826 1340 OFFCURVE",
"1003 995 OFFCURVE",
"1000 546 CURVE",
"982 546 LINE",
"982 321 OFFCURVE",
"896 194 OFFCURVE",
"755 194 CURVE SMOOTH",
"613 194 OFFCURVE",
"528 314 OFFCURVE",
"528 530 CURVE SMOOTH",
"528 742 OFFCURVE",
"613 866 OFFCURVE",
"755 866 CURVE SMOOTH",
"897 866 OFFCURVE",
"982 761 OFFCURVE",
"982 546 CURVE",
"1044 546 LINE",
"1044 949 OFFCURVE",
"865 1086 OFFCURVE",
"592 1086 CURVE SMOOTH",
"311 1086 OFFCURVE",
"82 894 OFFCURVE",
"82 548 CURVE SMOOTH",
"82 178 OFFCURVE",
"366 -26 OFFCURVE",
"745 -26 CURVE SMOOTH"
);
},
{
closed = 1;
nodes = (
"1390 1290 LINE",
"1390 1504 LINE",
"472 1380 LINE",
"472 1166 LINE"
);
}
);
width = 1500;
},
{
layerId = "0C29AA02-E021-4BD1-A2C4-87F681D64C35";
rightMetricsKey = "=o+12";
paths = (
{
closed = 1;
nodes = (
"1078 -26 OFFCURVE",
"1348 217 OFFCURVE",
"1348 660 CURVE SMOOTH",
"1348 1093 OFFCURVE",
"1032 1486 OFFCURVE",
"585 1726 CURVE",
"470 1577 LINE",
"783 1271 OFFCURVE",
"896 1032 OFFCURVE",
"926 566 CURVE",
"912 566 LINE",
"912 328 OFFCURVE",
"834 194 OFFCURVE",
"705 194 CURVE SMOOTH",
"576 194 OFFCURVE",
"498 321 OFFCURVE",
"498 550 CURVE SMOOTH",
"498 775 OFFCURVE",
"576 906 OFFCURVE",
"705 906 CURVE SMOOTH",
"834 906 OFFCURVE",
"912 794 OFFCURVE",
"912 566 CURVE",
"968 566 LINE",
"968 935 OFFCURVE",
"802 1116 OFFCURVE",
"552 1116 CURVE SMOOTH",
"266 1116 OFFCURVE",
"52 922 OFFCURVE",
"52 570 CURVE SMOOTH",
"52 185 OFFCURVE",
"328 -26 OFFCURVE",
"695 -26 CURVE SMOOTH"
);
},
{
closed = 1;
nodes = (
"1306 1318 LINE",
"1306 1514 LINE",
"400 1390 LINE",
"400 1194 LINE"
);
}
);
width = 1412;
}
);
leftKerningGroup = o;
leftMetricsKey = o;
rightMetricsKey = o;
unicode = 00F0;
},
{
color = 8;
glyphname = dcroat;
lastChange = "2021-05-03 08:45:35 +0000";
layers = (
{
anchors = (
{
name = bottom;
position = "{734, 0}";
}
);
hints = (
{
origin = "{2, 0}";
scale = "{-0.9, 1}";
type = Corner;
name = _corner.Serif;
}
);
layerId = "CA54B7DC-FBBB-40FE-ACF3-AABDD76D6A7B";
paths = (
{
closed = 1;
nodes = (
"961 -16 OFFCURVE",
"1154 198 OFFCURVE",
"1154 549 CURVE",
"1154 551 LINE",
"1154 902 OFFCURVE",
"961 1116 OFFCURVE",
"644 1116 CURVE SMOOTH",
"347 1116 OFFCURVE",
"134 902 OFFCURVE",
"134 550 CURVE SMOOTH",
"134 198 OFFCURVE",
"347 -16 OFFCURVE",
"644 -16 CURVE SMOOTH"
);
},
{
closed = 1;
nodes = (
"373 28 OFFCURVE",
"182 223 OFFCURVE",
"182 550 CURVE SMOOTH",
"182 877 OFFCURVE",
"373 1072 OFFCURVE",
"644 1072 CURVE SMOOTH",
"919 1072 OFFCURVE",
"1114 877 OFFCURVE",
"1114 550 CURVE SMOOTH",
"1114 223 OFFCURVE",
"919 28 OFFCURVE",
"644 28 CURVE SMOOTH"
);
},
{
closed = 1;
nodes = (
"1158 0 LINE",
"1158 1560 LINE",
"1110 1560 LINE",
"1110 746 LINE",
"1140 550 LINE",
"1114 334 LINE",
"1114 0 LINE"
);
},
{
closed = 1;
nodes = (
"1352 1312 LINE",
"1352 1356 LINE",
"742 1356 LINE",
"742 1312 LINE"
);
}
);
width = 1432;
},
{
anchors = (
{
name = bottom;
position = "{654, 0}";
}
);
hints = (
{
origin = "{2, 0}";
scale = "{-0.9, 1}";
type = Corner;
name = _corner.Serif;
}
);
layerId = "1E61A082-F045-49A7-AB52-DD1B03FD9B54";
paths = (
{
closed = 1;
nodes = (
"876 -16 OFFCURVE",
"1040 193 OFFCURVE",
"1040 539 CURVE",
"1040 541 LINE",
"1040 887 OFFCURVE",
"875 1096 OFFCURVE",
"582 1096 CURVE SMOOTH",
"308 1096 OFFCURVE",
"110 886 OFFCURVE",
"110 540 CURVE SMOOTH",
"110 194 OFFCURVE",
"308 -16 OFFCURVE",
"582 -16 CURVE SMOOTH"
);
},
{
closed = 1;
nodes = (
"334 22 OFFCURVE",
"158 215 OFFCURVE",
"158 540 CURVE SMOOTH",
"158 865 OFFCURVE",
"334 1058 OFFCURVE",
"582 1058 CURVE SMOOTH",
"834 1058 OFFCURVE",
"1014 865 OFFCURVE",
"1014 540 CURVE SMOOTH",
"1014 215 OFFCURVE",
"834 22 OFFCURVE",
"582 22 CURVE SMOOTH"
);
},
{
closed = 1;
nodes = (
"1058 0 LINE",
"1058 1500 LINE",
"1010 1500 LINE",
"1010 736 LINE",
"1026 540 LINE",
"1014 324 LINE",
"1014 0 LINE"
);
},
{
closed = 1;
nodes = (
"1265 1282 LINE",
"1265 1322 LINE",
"675 1322 LINE",
"675 1282 LINE"
);
}
);
width = 1291;
},
{
anchors = (
{
name = bottom;
position = "{853, 0}";
}
);
hints = (
{
origin = "{2, 0}";
scale = "{-0.92, 0.98}";
type = Corner;
name = _corner.Serif;
}
);
layerId = "219068EA-2B9B-40DC-949E-B60449C01B8A";
paths = (
{
closed = 1;
nodes = (
"953 -22 OFFCURVE",
"1095 210 OFFCURVE",
"1095 570 CURVE",
"1067 570 LINE",
"1067 940 OFFCURVE",
"953 1162 OFFCURVE",
"627 1162 CURVE SMOOTH",
"317 1162 OFFCURVE",
"92 940 OFFCURVE",
"92 570 CURVE SMOOTH",
"92 200 OFFCURVE",
"317 -22 OFFCURVE",
"631 -22 CURVE SMOOTH"
);
},
{
closed = 1;
nodes = (
"622 230 OFFCURVE",
"532 347 OFFCURVE",
"532 570 CURVE SMOOTH",
"532 793 OFFCURVE",
"622 910 OFFCURVE",
"774 910 CURVE SMOOTH",
"928 910 OFFCURVE",
"1018 793 OFFCURVE",
"1018 570 CURVE SMOOTH",
"1018 347 OFFCURVE",
"928 230 OFFCURVE",
"774 230 CURVE SMOOTH"
);
},
{
closed = 1;
nodes = (
"1398 0 LINE",
"1398 1580 LINE",
"998 1580 LINE",
"998 838 LINE",
"1060 581 LINE",
"1028 280 LINE",
"1028 0 LINE"
);
},
{
closed = 1;
nodes = (
"1536 1272 LINE",
"1536 1450 LINE",
"729 1450 LINE",
"729 1272 LINE"
);
}
);
width = 1608;
},
{
anchors = (
{
name = bottom;
position = "{792, 0}";
}
);
hints = (
{
origin = "{2, 0}";
scale = "{-0.92, 0.98}";
type = Corner;
name = _corner.Serif;
}
);
layerId = "0C29AA02-E021-4BD1-A2C4-87F681D64C35";
paths = (
{
closed = 1;
nodes = (
"876 -20 OFFCURVE",
"993 228 OFFCURVE",
"991 560 CURVE",
"969 560 LINE",
"969 903 OFFCURVE",
"876 1140 OFFCURVE",
"551 1140 CURVE SMOOTH",
"262 1140 OFFCURVE",
"66 923 OFFCURVE",
"66 560 CURVE SMOOTH",
"66 197 OFFCURVE",
"262 -20 OFFCURVE",
"555 -20 CURVE SMOOTH"
);
},
{
closed = 1;
nodes = (
"574 200 OFFCURVE",
"500 324 OFFCURVE",
"500 560 CURVE SMOOTH",
"500 796 OFFCURVE",
"574 920 OFFCURVE",
"706 920 CURVE SMOOTH",
"840 920 OFFCURVE",
"914 796 OFFCURVE",
"914 560 CURVE SMOOTH",
"914 324 OFFCURVE",
"840 200 OFFCURVE",
"706 200 CURVE SMOOTH"
);
},
{
closed = 1;
nodes = (
"1294 0 LINE",
"1294 1500 LINE",
"894 1500 LINE",
"894 838 LINE",
"956 581 LINE",
"924 280 LINE",
"924 0 LINE"
);
},
{
closed = 1;
nodes = (
"1441 1212 LINE",
"1441 1390 LINE",
"634 1390 LINE",
"634 1212 LINE"
);
}
);
width = 1475;
}
);
leftKerningGroup = o;
leftMetricsKey = d;
rightKerningGroup = l;
rightMetricsKey = d;
unicode = 0111;
},
{
color = 8;
glyphname = e;
lastChange = "2021-05-03 08:45:35 +0000";
layers = (
{
anchors = (
{
name = bottom;
position = "{631, 0}";
},
{
name = ogonek;
position = "{896, 0}";
},
{
name = top;
position = "{631, 1100}";
}
);
layerId = "CA54B7DC-FBBB-40FE-ACF3-AABDD76D6A7B";
paths = (
{
closed = 1;
nodes = (
"963 -16 OFFCURVE",
"1083 185 OFFCURVE",
"1110 324 CURVE",
"1065 324 LINE",
"1038 210 OFFCURVE",
"932 32 OFFCURVE",
"646 32 CURVE SMOOTH",
"362 32 OFFCURVE",
"184 226 OFFCURVE",
"184 550 CURVE SMOOTH",
"184 876 OFFCURVE",
"364 1072 OFFCURVE",
"648 1072 CURVE",
"648 1116 LINE",
"338 1116 OFFCURVE",
"134 910 OFFCURVE",
"134 550 CURVE SMOOTH",
"134 190 OFFCURVE",
"336 -16 OFFCURVE",
"646 -16 CURVE SMOOTH"
);
},
{
closed = 1;
nodes = (
"1128 592 LINE",
"1128 612 LINE",
"1084 636 LINE",
"168 636 LINE",
"168 592 LINE"
);
},
{
closed = 1;
nodes = (
"1128 908 OFFCURVE",
"962 1116 OFFCURVE",
"648 1116 CURVE",
"648 1072 LINE",
"936 1072 OFFCURVE",
"1072 878 OFFCURVE",
"1084 636 CURVE",
"1128 612 LINE"
);
}
);
width = 1262;
},
{
anchors = (
{
name = bottom;
position = "{579, 0}";
},
{
name = ogonek;
position = "{831, 0}";
},
{
name = top;
position = "{579, 1080}";
}
);
layerId = "1E61A082-F045-49A7-AB52-DD1B03FD9B54";
paths = (
{
closed = 1;
nodes = (
"902 -16 OFFCURVE",
"1024 214 OFFCURVE",
"1039 380 CURVE",
"1001 380 LINE",
"987 235 OFFCURVE",
"875 28 OFFCURVE",
"594 28 CURVE SMOOTH",
"334 28 OFFCURVE",
"160 217 OFFCURVE",
"160 540 CURVE SMOOTH",
"160 863 OFFCURVE",
"332 1058 OFFCURVE",
"594 1058 CURVE",
"594 1096 LINE",
"306 1096 OFFCURVE",
"110 894 OFFCURVE",
"110 540 CURVE SMOOTH",
"110 186 OFFCURVE",
"306 -16 OFFCURVE",
"594 -16 CURVE SMOOTH"
);
},
{
closed = 1;
nodes = (
"1048 586 LINE",
"1048 600 LINE",
"1004 624 LINE",
"144 624 LINE",
"144 586 LINE"
);
},
{
closed = 1;
nodes = (
"1048 892 OFFCURVE",
"893 1096 OFFCURVE",
"594 1096 CURVE",
"594 1058 LINE",
"865 1058 OFFCURVE",
"994 864 OFFCURVE",
"1004 624 CURVE",
"1048 600 LINE"
);
}
);
width = 1158;
},
{
anchors = (
{
name = bottom;
position = "{680, 0}";
},
{
name = ogonek;
position = "{1005, 0}";
},
{
name = top;
position = "{680, 1160}";
}
);
layerId = "219068EA-2B9B-40DC-949E-B60449C01B8A";
rightMetricsKey = "=o+8";
paths = (
{
closed = 1;
nodes = (
"1069 -26 OFFCURVE",
"1251 207 OFFCURVE",
"1274 440 CURVE",
"1022 440 LINE",
"988 341 OFFCURVE",
"913 267 OFFCURVE",
"765 267 CURVE SMOOTH",
"586 267 OFFCURVE",
"474 399 OFFCURVE",
"474 610 CURVE SMOOTH",
"474 873 OFFCURVE",
"554 970 OFFCURVE",
"695 970 CURVE",
"683 1186 LINE",
"334 1186 OFFCURVE",
"82 970 OFFCURVE",
"82 580 CURVE SMOOTH",
"82 189 OFFCURVE",
"337 -26 OFFCURVE",
"699 -26 CURVE SMOOTH"
);
},
{
closed = 1;
nodes = (
"1278 560 LINE",
"1278 657 LINE",
"884 758 LINE",
"262 758 LINE",
"262 560 LINE"
);
},
{
closed = 1;
nodes = (
"1278 972 OFFCURVE",
"1069 1186 OFFCURVE",
"683 1186 CURVE",
"695 970 LINE",
"818 970 OFFCURVE",
"880 873 OFFCURVE",
"884 758 CURVE",
"1278 657 LINE"
);
}
);
width = 1368;
},
{
anchors = (
{
name = bottom;
position = "{632, 0}";
},
{
name = ogonek;
position = "{937, 0}";
},
{
name = top;
position = "{632, 1140}";
}
);
layerId = "0C29AA02-E021-4BD1-A2C4-87F681D64C35";
rightMetricsKey = "=o+8";
paths = (
{
closed = 1;
nodes = (
"1009 -26 OFFCURVE",
"1196 210 OFFCURVE",
"1198 490 CURVE",
"1022 490 LINE",
"1003 362 OFFCURVE",
"919 249 OFFCURVE",
"751 249 CURVE SMOOTH",
"556 249 OFFCURVE",
"450 387 OFFCURVE",
"450 608 CURVE SMOOTH",
"450 903 OFFCURVE",
"529 992 OFFCURVE",
"647 992 CURVE",
"649 1166 LINE",
"303 1166 OFFCURVE",
"52 944 OFFCURVE",
"52 570 CURVE SMOOTH",
"52 195 OFFCURVE",
"297 -26 OFFCURVE",
"645 -26 CURVE SMOOTH"
);
},
{
closed = 1;
nodes = (
"1202 570 LINE",
"1202 631 LINE",
"798 748 LINE",
"250 748 LINE",
"250 570 LINE"
);
},
{
closed = 1;
nodes = (
"1202 941 OFFCURVE",
"1008 1166 OFFCURVE",
"649 1166 CURVE",
"647 992 LINE",
"743 992 OFFCURVE",
"796 899 OFFCURVE",
"798 748 CURVE",
"1202 631 LINE"
);
}
);
width = 1262;
}
);
leftKerningGroup = o;
leftMetricsKey = o;
rightKerningGroup = o;
rightMetricsKey = o;
unicode = 0065;
},
{
color = 8;
glyphname = f;
lastChange = "2021-05-03 10:02:20 +0000";
layers = (
{
anchors = (
{
name = bottom;
position = "{471, 0}";
},
{
name = top;
position = "{471, 1560}";
}
);
hints = (
{
origin = "{0, 3}";
type = Corner;
name = _corner.Serif;
},
{
origin = "{0, 0}";
scale = "{-1.2, 1}";
type = Corner;
name = _corner.Serif;
options = 1;
}
);
layerId = "CA54B7DC-FBBB-40FE-ACF3-AABDD76D6A7B";
paths = (
{
closed = 1;
nodes = (
"440 0 LINE",
"440 1166 LINE",
"392 1162 LINE",
"392 0 LINE"
);
},
{
closed = 1;
nodes = (
"820 1056 LINE",
"820 1100 LINE",
"92 1100 LINE",
"92 1056 LINE"
);
},
{
closed = 1;
nodes = (
"440 1166 LINE",
"440 1412 OFFCURVE",
"547 1532 OFFCURVE",
"742 1532 CURVE",
"742 1576 LINE",
"517 1576 OFFCURVE",
"392 1435 OFFCURVE",
"392 1162 CURVE"
);
},
{
closed = 1;
nodes = (
"964 1275 OFFCURVE",
"994 1312 OFFCURVE",
"994 1369 CURVE SMOOTH",
"994 1505 OFFCURVE",
"884 1576 OFFCURVE",
"742 1576 CURVE",
"742 1532 LINE",
"866 1532 OFFCURVE",
"949 1476 OFFCURVE",
"944 1374 CURVE",
"963 1389 LINE",
"906 1395 OFFCURVE",
"864 1374 OFFCURVE",
"864 1328 CURVE SMOOTH",
"864 1296 OFFCURVE",
"888 1275 OFFCURVE",
"920 1275 CURVE SMOOTH"
);
}
);
width = 942;
},
{
anchors = (
{
name = bottom;
position = "{441, 0}";
},
{
name = top;
position = "{441, 1500}";
}
);
hints = (
{
origin = "{0, 3}";
type = Corner;
name = _corner.Serif;
},
{
origin = "{0, 0}";
scale = "{-1.6, 1}";
type = Corner;
name = _corner.Serif;
options = 1;
}
);
layerId = "1E61A082-F045-49A7-AB52-DD1B03FD9B54";
paths = (
{
closed = 1;
nodes = (
"404 0 LINE",
"404 1116 LINE",
"356 1112 LINE",
"356 0 LINE"
);
},
{
closed = 1;
nodes = (
"804 1042 LINE",
"804 1080 LINE",
"56 1080 LINE",
"56 1042 LINE"
);
},
{
closed = 1;
nodes = (
"404 1116 LINE",
"404 1359 OFFCURVE",
"514 1478 OFFCURVE",
"714 1478 CURVE",
"714 1516 LINE",
"484 1516 OFFCURVE",
"356 1378 OFFCURVE",
"356 1112 CURVE"
);
},
{
closed = 1;
nodes = (
"940 1195 OFFCURVE",
"970 1232 OFFCURVE",
"970 1289 CURVE SMOOTH",
"970 1443 OFFCURVE",
"858 1516 OFFCURVE",
"714 1516 CURVE",
"714 1478 LINE",
"843 1478 OFFCURVE",
"929 1413 OFFCURVE",
"925 1293 CURVE",
"944 1309 LINE",
"884 1315 OFFCURVE",
"840 1294 OFFCURVE",
"840 1248 CURVE SMOOTH",
"840 1216 OFFCURVE",
"864 1195 OFFCURVE",
"896 1195 CURVE SMOOTH"
);
}
);
width = 908;
},
{
anchors = (
{
name = bottom;
position = "{494, 0}";
},
{
name = top;
position = "{494, 1580}";
}
);
hints = (
{
origin = "{0, 3}";
scale = "{1, 0.98}";
type = Corner;
name = _corner.Serif;
},
{
origin = "{0, 0}";
scale = "{-1.5, 0.98}";
type = Corner;
name = _corner.Serif;
options = 1;
}
);
layerId = "219068EA-2B9B-40DC-949E-B60449C01B8A";
paths = (
{
closed = 1;
nodes = (
"648 0 LINE",
"648 1295 LINE",
"248 1236 LINE",
"248 0 LINE"
);
},
{
closed = 1;
nodes = (
"994 930 LINE",
"994 1160 LINE",
"20 1160 LINE",
"20 930 LINE"
);
},
{
closed = 1;
nodes = (
"648 1295 LINE",
"648 1407 OFFCURVE",
"708 1452 OFFCURVE",
"812 1452 CURVE",
"794 1642 LINE",
"503 1642 OFFCURVE",
"248 1516 OFFCURVE",
"248 1236 CURVE"
);
},
{
closed = 1;
nodes = (
"1125 1230 OFFCURVE",
"1196 1309 OFFCURVE",
"1196 1400 CURVE SMOOTH",
"1196 1546 OFFCURVE",
"1034 1642 OFFCURVE",
"794 1642 CURVE",
"812 1452 LINE",
"878 1452 OFFCURVE",
"920 1419 OFFCURVE",
"943 1379 CURVE",
"972 1480 LINE",
"866 1480 OFFCURVE",
"799 1461 OFFCURVE",
"799 1367 CURVE SMOOTH",
"799 1275 OFFCURVE",
"889 1230 OFFCURVE",
"994 1230 CURVE SMOOTH"
);
}
);
width = 1044;
},
{
anchors = (
{
name = bottom;
position = "{450, 0}";
},
{
name = top;
position = "{450, 1500}";
}
);
hints = (
{
origin = "{0, 3}";
scale = "{1, 0.98}";
type = Corner;
name = _corner.Serif;
},
{
origin = "{0, 0}";
scale = "{-1.7, 0.98}";
type = Corner;
name = _corner.Serif;
options = 1;
}
);
layerId = "0C29AA02-E021-4BD1-A2C4-87F681D64C35";
paths = (
{
closed = 1;
nodes = (
"626 0 LINE",
"626 1295 LINE",
"226 1216 LINE",
"226 0 LINE"
);
},
{
closed = 1;
nodes = (
"942 932 LINE",
"942 1140 LINE",
"-2 1140 LINE",
"-2 932 LINE"
);
},
{
closed = 1;
nodes = (
"626 1295 LINE",
"626 1436 OFFCURVE",
"687 1496 OFFCURVE",
"791 1496 CURVE",
"755 1644 LINE",
"474 1644 OFFCURVE",
"226 1527 OFFCURVE",
"226 1216 CURVE"
);
},
{
closed = 1;
nodes = (
"1066 1224 OFFCURVE",
"1145 1296 OFFCURVE",
"1145 1408 CURVE SMOOTH",
"1145 1549 OFFCURVE",
"982 1644 OFFCURVE",
"755 1644 CURVE",
"791 1496 LINE",
"862 1496 OFFCURVE",
"912 1467 OFFCURVE",
"942 1433 CURVE",
"927 1502 LINE",
"826 1502 OFFCURVE",
"748 1460 OFFCURVE",
"748 1366 CURVE SMOOTH",
"748 1271 OFFCURVE",
"831 1224 OFFCURVE",
"937 1224 CURVE SMOOTH"
);
}
);
width = 993;
}
);
leftKerningGroup = f;
rightKerningGroup = f;
unicode = 0066;
},
{
color = 8;
glyphname = g;
lastChange = "2021-05-03 08:45:35 +0000";
layers = (
{
anchors = (
{
name = bottom;
position = "{652, -440}";
},
{
name = top;
position = "{652, 1100}";
}
);
layerId = "CA54B7DC-FBBB-40FE-ACF3-AABDD76D6A7B";
paths = (
{
closed = 1;
nodes = (
"826 -400 LINE SMOOTH",
"1089 -400 OFFCURVE",
"1190 -252 OFFCURVE",
"1190 -108 CURVE SMOOTH",
"1190 35 OFFCURVE",
"1110 120 OFFCURVE",
"942 120 CURVE SMOOTH",
"390 120 LINE SMOOTH",
"262 120 OFFCURVE",
"178 194 OFFCURVE",
"178 296 CURVE SMOOTH",
"178 410 OFFCURVE",
"256 467 OFFCURVE",
"362 478 CURVE",
"358 516 LINE",
"245 512 OFFCURVE",
"130 438 OFFCURVE",
"130 296 CURVE SMOOTH",
"130 165 OFFCURVE",
"232 76 OFFCURVE",
"386 76 CURVE SMOOTH",
"940 76 LINE SMOOTH",
"1082 76 OFFCURVE",
"1142 11 OFFCURVE",
"1142 -110 CURVE SMOOTH",
"1142 -232 OFFCURVE",
"1059 -356 OFFCURVE",
"826 -356 CURVE SMOOTH",
"538 -356 LINE SMOOTH",
"333 -356 OFFCURVE",
"244 -271 OFFCURVE",
"244 -134 CURVE SMOOTH",
"244 -13 OFFCURVE",
"351 55 OFFCURVE",
"412 80 CURVE",
"396 112 LINE",
"305 78 OFFCURVE",
"196 -2 OFFCURVE",
"196 -134 CURVE SMOOTH",
"196 -300 OFFCURVE",
"306 -400 OFFCURVE",
"538 -400 CURVE SMOOTH"
);
},
{
closed = 1;
nodes = (
"884 368 OFFCURVE",
"1052 514 OFFCURVE",
"1052 738 CURVE SMOOTH",
"1052 916 OFFCURVE",
"942 1022 OFFCURVE",
"836 1066 CURVE",
"658 1108 LINE",
"408 1108 OFFCURVE",
"240 962 OFFCURVE",
"240 738 CURVE SMOOTH",
"240 514 OFFCURVE",
"408 368 OFFCURVE",
"646 368 CURVE SMOOTH"
);
},
{
closed = 1;
nodes = (
"438 412 OFFCURVE",
"288 540 OFFCURVE",
"288 738 CURVE SMOOTH",
"288 936 OFFCURVE",
"438 1064 OFFCURVE",
"646 1064 CURVE SMOOTH",
"854 1064 OFFCURVE",
"1004 936 OFFCURVE",
"1004 738 CURVE SMOOTH",
"1004 540 OFFCURVE",
"854 412 OFFCURVE",
"646 412 CURVE SMOOTH"
);
},
{
closed = 1;
nodes = (
"1206 1066 LINE",
"1206 1108 LINE",
"658 1108 LINE",
"836 1066 LINE"
);
}
);
width = 1304;
},
{
anchors = (
{
name = bottom;
position = "{622, -440}";
},
{
name = top;
position = "{622, 1080}";
}
);
layerId = "1E61A082-F045-49A7-AB52-DD1B03FD9B54";
paths = (
{
closed = 1;
nodes = (
"780 -400 LINE SMOOTH",
"1043 -400 OFFCURVE",
"1144 -252 OFFCURVE",
"1144 -108 CURVE SMOOTH",
"1144 35 OFFCURVE",
"1064 120 OFFCURVE",
"896 120 CURVE SMOOTH",
"328 120 LINE SMOOTH",
"206 120 OFFCURVE",
"126 192 OFFCURVE",
"126 289 CURVE SMOOTH",
"126 400 OFFCURVE",
"204 456 OFFCURVE",
"310 466 CURVE",
"306 496 LINE",
"193 492 OFFCURVE",
"78 420 OFFCURVE",
"78 285 CURVE SMOOTH",
"78 161 OFFCURVE",
"176 80 OFFCURVE",
"324 80 CURVE SMOOTH",
"894 80 LINE SMOOTH",
"1036 80 OFFCURVE",
"1096 12 OFFCURVE",
"1096 -111 CURVE SMOOTH",
"1096 -234 OFFCURVE",
"1013 -362 OFFCURVE",
"780 -362 CURVE SMOOTH",
"486 -362 LINE SMOOTH",
"281 -362 OFFCURVE",
"192 -274 OFFCURVE",
"192 -135 CURVE SMOOTH",
"192 -13 OFFCURVE",
"299 55 OFFCURVE",
"360 80 CURVE",
"344 102 LINE",
"250 69 OFFCURVE",
"144 -1 OFFCURVE",
"144 -140 CURVE SMOOTH",
"144 -302 OFFCURVE",
"254 -400 OFFCURVE",
"486 -400 CURVE SMOOTH"
);
},
{
closed = 1;
nodes = (
"826 360 OFFCURVE",
"990 503 OFFCURVE",
"990 724 CURVE SMOOTH",
"990 902 OFFCURVE",
"886 1007 OFFCURVE",
"753 1052 CURVE",
"606 1088 LINE",
"362 1088 OFFCURVE",
"198 945 OFFCURVE",
"198 724 CURVE SMOOTH",
"198 503 OFFCURVE",
"362 360 OFFCURVE",
"594 360 CURVE SMOOTH"
);
},
{
closed = 1;
nodes = (
"392 398 OFFCURVE",
"246 526 OFFCURVE",
"246 724 CURVE SMOOTH",
"246 922 OFFCURVE",
"392 1050 OFFCURVE",
"594 1050 CURVE SMOOTH",
"796 1050 OFFCURVE",
"942 922 OFFCURVE",
"942 724 CURVE SMOOTH",
"942 526 OFFCURVE",
"796 398 OFFCURVE",
"594 398 CURVE SMOOTH"
);
},
{
closed = 1;
nodes = (
"1168 1052 LINE",
"1168 1088 LINE",
"606 1088 LINE",
"753 1052 LINE"
);
}
);
width = 1248;
},
{
anchors = (
{
name = bottom;
position = "{734, -440}";
},
{
name = top;
position = "{734, 1160}";
}
);
layerId = "219068EA-2B9B-40DC-949E-B60449C01B8A";
paths = (
{
closed = 1;
nodes = (
"861 -420 LINE SMOOTH",
"1204 -420 OFFCURVE",
"1380 -263 OFFCURVE",
"1380 0 CURVE SMOOTH",
"1380 188 OFFCURVE",
"1242 310 OFFCURVE",
"991 310 CURVE SMOOTH",
"461 310 LINE SMOOTH",
"402 310 OFFCURVE",
"367 331 OFFCURVE",
"367 378 CURVE SMOOTH",
"367 423 OFFCURVE",
"404 450 OFFCURVE",
"467 450 CURVE",
"449 524 LINE",
"225 526 OFFCURVE",
"76 419 OFFCURVE",
"76 238 CURVE SMOOTH",
"76 65 OFFCURVE",
"225 -40 OFFCURVE",
"449 -40 CURVE SMOOTH",
"895 -40 LINE SMOOTH",
"958 -40 OFFCURVE",
"999 -64 OFFCURVE",
"999 -119 CURVE SMOOTH",
"999 -181 OFFCURVE",
"953 -222 OFFCURVE",
"863 -222 CURVE SMOOTH",
"607 -222 LINE SMOOTH",
"512 -222 OFFCURVE",
"459 -189 OFFCURVE",
"459 -116 CURVE SMOOTH",
"459 -81 OFFCURVE",
"477 -52 OFFCURVE",
"506 -27 CURVE",
"470 3 LINE",
"298 3 OFFCURVE",
"162 -60 OFFCURVE",
"162 -204 CURVE SMOOTH",
"162 -356 OFFCURVE",
"305 -420 OFFCURVE",
"532 -420 CURVE SMOOTH"
);
},
{
closed = 1;
nodes = (
"1052 402 OFFCURVE",
"1240 542 OFFCURVE",
"1240 750 CURVE SMOOTH",
"1240 862 OFFCURVE",
"1176 927 OFFCURVE",
"1118 956 CURVE",
"722 1170 LINE",
"386 1170 OFFCURVE",
"174 1030 OFFCURVE",
"174 786 CURVE SMOOTH",
"174 542 OFFCURVE",
"386 402 OFFCURVE",
"722 402 CURVE SMOOTH"
);
},
{
closed = 1;
nodes = (
"628 598 OFFCURVE",
"574 674 OFFCURVE",
"574 786 CURVE SMOOTH",
"574 894 OFFCURVE",
"628 974 OFFCURVE",
"722 974 CURVE SMOOTH",
"816 974 OFFCURVE",
"870 894 OFFCURVE",
"870 786 CURVE SMOOTH",
"870 674 OFFCURVE",
"816 598 OFFCURVE",
"722 598 CURVE SMOOTH"
);
},
{
closed = 1;
nodes = (
"1356 956 LINE",
"1356 1170 LINE",
"722 1170 LINE",
"1118 956 LINE"
);
}
);
width = 1466;
},
{
anchors = (
{
name = bottom;
position = "{690, -440}";
},
{
name = top;
position = "{690, 1140}";
}
);
layerId = "0C29AA02-E021-4BD1-A2C4-87F681D64C35";
paths = (
{
closed = 1;
nodes = (
"831 -420 LINE SMOOTH",
"1167 -420 OFFCURVE",
"1340 -267 OFFCURVE",
"1340 -14 CURVE SMOOTH",
"1340 164 OFFCURVE",
"1206 282 OFFCURVE",
"961 282 CURVE SMOOTH",
"439 282 LINE SMOOTH",
"370 282 OFFCURVE",
"329 308 OFFCURVE",
"329 366 CURVE SMOOTH",
"329 424 OFFCURVE",
"370 450 OFFCURVE",
"439 450 CURVE",
"421 524 LINE",
"197 526 OFFCURVE",
"48 416 OFFCURVE",
"48 234 CURVE SMOOTH",
"48 65 OFFCURVE",
"197 -48 OFFCURVE",
"421 -48 CURVE SMOOTH",
"865 -48 LINE SMOOTH",
"940 -48 OFFCURVE",
"989 -73 OFFCURVE",
"989 -133 CURVE SMOOTH",
"989 -199 OFFCURVE",
"936 -242 OFFCURVE",
"833 -242 CURVE SMOOTH",
"579 -242 LINE SMOOTH",
"477 -242 OFFCURVE",
"421 -206 OFFCURVE",
"421 -126 CURVE SMOOTH",
"421 -87 OFFCURVE",
"443 -55 OFFCURVE",
"478 -27 CURVE",
"462 -1 LINE",
"279 -1 OFFCURVE",
"134 -63 OFFCURVE",
"134 -206 CURVE SMOOTH",
"134 -357 OFFCURVE",
"277 -420 OFFCURVE",
"504 -420 CURVE SMOOTH"
);
},
{
closed = 1;
nodes = (
"1013 390 OFFCURVE",
"1200 528 OFFCURVE",
"1200 734 CURVE SMOOTH",
"1200 854 OFFCURVE",
"1123 924 OFFCURVE",
"1052 954 CURVE",
"684 1150 LINE",
"349 1150 OFFCURVE",
"138 1012 OFFCURVE",
"138 770 CURVE SMOOTH",
"138 528 OFFCURVE",
"349 390 OFFCURVE",
"684 390 CURVE SMOOTH"
);
},
{
closed = 1;
nodes = (
"596 556 OFFCURVE",
"546 643 OFFCURVE",
"546 770 CURVE SMOOTH",
"546 893 OFFCURVE",
"596 984 OFFCURVE",
"684 984 CURVE SMOOTH",
"772 984 OFFCURVE",
"822 893 OFFCURVE",
"822 770 CURVE SMOOTH",
"822 643 OFFCURVE",
"772 556 OFFCURVE",
"684 556 CURVE SMOOTH"
);
},
{
closed = 1;
nodes = (
"1328 954 LINE",
"1328 1150 LINE",
"684 1150 LINE",
"1052 954 LINE"
);
}
);
width = 1380;
}
);
leftKerningGroup = g;
rightKerningGroup = g;
unicode = 0067;
},
{
color = 8;
glyphname = h;
lastChange = "2021-05-03 08:53:03 +0000";
layers = (
{
anchors = (
{
name = bottom;
position = "{691, 0}";
},
{
name = center;
position = "{691, 780}";
},
{
name = top;
position = "{296, 1560}";
}
);
hints = (
{
origin = "{0, 2}";
scale = "{-0.9, 1}";
type = Corner;
name = _corner.Serif;
},
{
origin = "{0, 3}";
type = Corner;
name = _corner.Serif;
options = 1;
},
{
origin = "{0, 0}";
scale = "{-1, 1}";
type = Corner;
name = _corner.Serif;
},
{
origin = "{1, 15}";
type = Corner;
name = _corner.Serif;
},
{
origin = "{1, 0}";
scale = "{-0.86, 1}";
type = Corner;
name = _corner.Serif;
options = 1;
}
);
layerId = "CA54B7DC-FBBB-40FE-ACF3-AABDD76D6A7B";
paths = (
{
closed = 1;
nodes = (
"340 0 LINE",
"340 1560 LINE",
"292 1560 LINE",
"292 0 LINE"
);
},
{
closed = 1;
nodes = (
"1126 0 LINE",
"1126 764 LINE SMOOTH",
"1126 1018 OFFCURVE",
"978 1116 OFFCURVE",
"768 1116 CURVE SMOOTH",
"528 1116 OFFCURVE",
"304 954 OFFCURVE",
"304 552 CURVE",
"340 552 LINE",
"340 911 OFFCURVE",
"546 1072 OFFCURVE",
"766 1072 CURVE SMOOTH",
"958 1072 OFFCURVE",
"1078 981 OFFCURVE",
"1078 764 CURVE SMOOTH",
"1078 0 LINE"
);
}
);
width = 1386;
},
{
anchors = (
{
name = bottom;
position = "{624, 0}";
},
{
name = center;
position = "{624, 750}";
},
{
name = top;
position = "{258, 1500}";
}
);
hints = (
{
origin = "{0, 2}";
scale = "{-0.9, 1}";
type = Corner;
name = _corner.Serif;
},
{
origin = "{0, 3}";
type = Corner;
name = _corner.Serif;
options = 1;
},
{
origin = "{0, 0}";
scale = "{-1.22, 1}";
type = Corner;
name = _corner.Serif;
},
{
origin = "{1, 15}";
scale = "{1.22, 1}";
type = Corner;
name = _corner.Serif;
},
{
origin = "{1, 0}";
scale = "{-0.86, 1}";
type = Corner;
name = _corner.Serif;
}
);
layerId = "1E61A082-F045-49A7-AB52-DD1B03FD9B54";
paths = (
{
closed = 1;
nodes = (
"302 0 LINE",
"302 1500 LINE",
"254 1500 LINE",
"254 0 LINE"
);
},
{
closed = 1;
nodes = (
"1024 0 LINE",
"1024 774 LINE SMOOTH",
"1024 998 OFFCURVE",
"890 1096 OFFCURVE",
"700 1096 CURVE SMOOTH",
"473 1096 OFFCURVE",
"277 952 OFFCURVE",
"277 582 CURVE",
"302 582 LINE",
"302 908 OFFCURVE",
"493 1058 OFFCURVE",
"698 1058 CURVE SMOOTH",
"871 1058 OFFCURVE",
"976 967 OFFCURVE",
"976 774 CURVE SMOOTH",
"976 0 LINE"
);
}
);
width = 1246;
},
{
anchors = (
{
name = bottom;
position = "{767, 0}";
},
{
name = center;
position = "{767, 790}";
},
{
name = top;
position = "{417, 1580}";
}
);
hints = (
{
origin = "{0, 2}";
scale = "{-0.96, 0.98}";
type = Corner;
name = _corner.Serif;
},
{
origin = "{0, 3}";
scale = "{1.06, 0.98}";
type = Corner;
name = _corner.Serif;
options = 1;
},
{
origin = "{0, 0}";
scale = "{-0.66, 0.98}";
type = Corner;
name = _corner.Serif;
},
{
origin = "{1, 15}";
scale = "{0.66, 0.98}";
type = Corner;
name = _corner.Serif;
options = 1;
},
{
origin = "{1, 0}";
scale = "{-0.76, 0.98}";
type = Corner;
name = _corner.Serif;
}
);
layerId = "219068EA-2B9B-40DC-949E-B60449C01B8A";
paths = (
{
closed = 1;
nodes = (
"631 0 LINE",
"631 1580 LINE",
"231 1580 LINE",
"231 0 LINE"
);
},
{
closed = 1;
nodes = (
"1349 0 LINE",
"1349 779 LINE SMOOTH",
"1349 1060 OFFCURVE",
"1194 1183 OFFCURVE",
"976 1183 CURVE SMOOTH",
"676 1183 OFFCURVE",
"598 1001 OFFCURVE",
"598 720 CURVE",
"631 722 LINE",
"631 868 OFFCURVE",
"711 919 OFFCURVE",
"802 919 CURVE SMOOTH",
"890 919 OFFCURVE",
"949 868 OFFCURVE",
"949 768 CURVE SMOOTH",
"949 0 LINE"
);
}
);
width = 1541;
},
{
anchors = (
{
name = bottom;
position = "{724, 0}";
},
{
name = center;
position = "{724, 750}";
},
{
name = top;
position = "{390, 1500}";
}
);
hints = (
{
origin = "{0, 3}";
scale = "{1.06, 0.98}";
type = Corner;
name = _corner.Serif;
options = 1;
},
{
origin = "{0, 0}";
scale = "{-0.6, 0.98}";
type = Corner;
name = _corner.Serif;
},
{
origin = "{0, 2}";
scale = "{-0.96, 0.98}";
type = Corner;
name = _corner.Serif;
},
{
origin = "{1, 15}";
scale = "{0.6, 0.98}";
type = Corner;
name = _corner.Serif;
options = 1;
},
{
origin = "{1, 0}";
scale = "{-0.76, 0.98}";
type = Corner;
name = _corner.Serif;
}
);
layerId = "0C29AA02-E021-4BD1-A2C4-87F681D64C35";
paths = (
{
closed = 1;
nodes = (
"604 0 LINE",
"604 1500 LINE",
"204 1500 LINE",
"204 0 LINE"
);
},
{
closed = 1;
nodes = (
"1276 0 LINE",
"1276 789 LINE SMOOTH",
"1276 1048 OFFCURVE",
"1130 1162 OFFCURVE",
"924 1162 CURVE SMOOTH",
"644 1162 OFFCURVE",
"575 997 OFFCURVE",
"575 741 CURVE",
"604 743 LINE",
"604 874 OFFCURVE",
"673 920 OFFCURVE",
"752 920 CURVE SMOOTH",
"827 920 OFFCURVE",
"876 876 OFFCURVE",
"876 789 CURVE SMOOTH",
"876 0 LINE"
);
}
);
width = 1442;
}
);
leftKerningGroup = l;
leftMetricsKey = l;
rightKerningGroup = n;
rightMetricsKey = n;
unicode = 0068;
},
